%TF.GenerationSoftware,KiCad,Pcbnew,(5.1.6)-1*%
%TF.CreationDate,2021-04-08T21:05:13-07:00*%
%TF.ProjectId,DJetECUTester,444a6574-4543-4555-9465-737465722e6b,rev?*%
%TF.SameCoordinates,Original*%
%TF.FileFunction,Soldermask,Bot*%
%TF.FilePolarity,Negative*%
%FSLAX46Y46*%
G04 Gerber Fmt 4.6, Leading zero omitted, Abs format (unit mm)*
G04 Created by KiCad (PCBNEW (5.1.6)-1) date 2021-04-08 21:05:13*
%MOMM*%
%LPD*%
G01*
G04 APERTURE LIST*
%ADD10C,1.900000*%
%ADD11R,1.900000X1.900000*%
%ADD12R,2.200000X2.200000*%
%ADD13C,2.200000*%
%ADD14R,1.800000X1.800000*%
%ADD15O,1.800000X1.800000*%
%ADD16C,1.000000*%
G04 APERTURE END LIST*
D10*
%TO.C,J8*%
X264200000Y-129200000D03*
X259200000Y-129200000D03*
X254200000Y-129200000D03*
X249200000Y-129200000D03*
D11*
X244200000Y-129200000D03*
%TD*%
D10*
%TO.C,J6*%
X223400000Y-129200000D03*
X228400000Y-129200000D03*
X233400000Y-129200000D03*
D11*
X238400000Y-129200000D03*
%TD*%
D10*
%TO.C,J10*%
X234033000Y-59690000D03*
X239033000Y-59690000D03*
X244033000Y-59690000D03*
X249033000Y-59690000D03*
X254033000Y-59690000D03*
X259033000Y-59690000D03*
D11*
X264033000Y-59690000D03*
%TD*%
D10*
%TO.C,J9*%
X183854000Y-59690000D03*
X188854000Y-59690000D03*
X193854000Y-59690000D03*
X198854000Y-59690000D03*
X203854000Y-59690000D03*
X208854000Y-59690000D03*
X213854000Y-59690000D03*
X218854000Y-59690000D03*
X223854000Y-59690000D03*
D11*
X228854000Y-59690000D03*
%TD*%
D10*
%TO.C,J5*%
X262509000Y-77517000D03*
D11*
X262509000Y-72517000D03*
%TD*%
D10*
%TO.C,J2*%
X262001000Y-120777000D03*
X262001000Y-115777000D03*
X262001000Y-110777000D03*
X262001000Y-105777000D03*
X262001000Y-100777000D03*
X262001000Y-95777000D03*
X262001000Y-90777000D03*
D11*
X262001000Y-85777000D03*
%TD*%
D12*
%TO.C,J7*%
X178308000Y-111125000D03*
D13*
X178308000Y-113665000D03*
X178308000Y-116205000D03*
X178308000Y-118745000D03*
X178308000Y-121285000D03*
X178308000Y-123825000D03*
%TD*%
D14*
%TO.C,J1*%
X199263000Y-94361000D03*
D15*
X201803000Y-94361000D03*
X199263000Y-96901000D03*
X201803000Y-96901000D03*
X199263000Y-99441000D03*
X201803000Y-99441000D03*
%TD*%
D16*
%TO.C,J3*%
X180446000Y-98302000D03*
X180446000Y-102702000D03*
%TD*%
D14*
%TO.C,J4*%
X242697000Y-114046000D03*
D15*
X240157000Y-114046000D03*
X242697000Y-111506000D03*
X240157000Y-111506000D03*
X242697000Y-108966000D03*
X240157000Y-108966000D03*
X242697000Y-106426000D03*
X240157000Y-106426000D03*
X242697000Y-103886000D03*
X240157000Y-103886000D03*
X242697000Y-101346000D03*
X240157000Y-101346000D03*
X242697000Y-98806000D03*
X240157000Y-98806000D03*
X242697000Y-96266000D03*
X240157000Y-96266000D03*
X242697000Y-93726000D03*
X240157000Y-93726000D03*
X242697000Y-91186000D03*
X240157000Y-91186000D03*
X242697000Y-88646000D03*
X240157000Y-88646000D03*
X242697000Y-86106000D03*
X240157000Y-86106000D03*
X242697000Y-83566000D03*
X240157000Y-83566000D03*
%TD*%
D14*
%TO.C,JP2*%
X231902000Y-101854000D03*
D15*
X234442000Y-101854000D03*
%TD*%
%TO.C,JP3*%
X234442000Y-97663000D03*
D14*
X231902000Y-97663000D03*
%TD*%
%TO.C,JP4*%
X188976000Y-113411000D03*
D15*
X188976000Y-115951000D03*
X188976000Y-118491000D03*
%TD*%
M02*
