M48
; DRILL file {KiCad (5.1.12)-1} date 10/15/22 21:36:54
; FORMAT={-:-/ absolute / inch / decimal}
; #@! TF.CreationDate,2022-10-15T21:36:54-07:00
; #@! TF.GenerationSoftware,Kicad,Pcbnew,(5.1.12)-1
; #@! TF.FileFunction,Plated,1,2,PTH
FMAT,2
INCH
T1C0.0118
T2C0.0315
T3C0.0354
T4C0.0394
T5C0.0402
T6C0.0512
%
G90
G05
T1
X6.8969Y-2.1984
X6.8969Y-2.6241
X6.8969Y-3.0498
X6.8969Y-3.4756
X6.8969Y-3.9013
X6.8969Y-4.327
X6.8969Y-5.1785
X6.8969Y-5.6042
X6.9094Y-4.3858
X6.937Y-3.5827
X6.9578Y-4.7224
X6.9882Y-4.5787
X6.9882Y-4.6732
X6.9921Y-3.7008
X6.9921Y-3.8661
X6.9921Y-4.0394
X7.0Y-4.2126
X7.0315Y-3.5197
X7.0315Y-3.6535
X7.063Y-3.1732
X7.0787Y-3.3386
X7.0984Y-4.5748
X7.0984Y-4.6772
X7.1098Y-2.4112
X7.1098Y-2.837
X7.1098Y-3.6884
X7.1098Y-4.1142
X7.1098Y-5.3914
X7.1181Y-3.9843
X7.1402Y-4.9656
X7.1417Y-3.2283
X7.1706Y-4.4791
X7.1929Y-5.5906
X7.2047Y-3.7087
X7.2047Y-4.0551
X7.2126Y-3.1654
X7.2126Y-4.2126
X7.2205Y-3.2283
X7.2205Y-3.3937
X7.248Y-5.6496
X7.2618Y-3.1107
X7.275Y-3.35
X7.2923Y-5.6651
X7.2992Y-4.0
X7.2992Y-4.1339
X7.3112Y-3.9356
X7.3227Y-2.1984
X7.3227Y-2.6241
X7.3531Y-4.7528
X7.3531Y-5.1785
X7.3622Y-3.9291
X7.405Y-3.995
X7.4139Y-4.2358
X7.415Y-3.335
X7.4409Y-3.4016
X7.4443Y-3.4452
X7.4488Y-3.937
X7.4961Y-4.2677
X7.5051Y-5.4522
X7.51Y-3.925
X7.515Y-3.585
X7.5355Y-2.4112
X7.5355Y-3.8709
X7.5591Y-3.5118
X7.56Y-3.56
X7.565Y-3.66
X7.5659Y-4.5095
X7.5659Y-4.9656
X7.6268Y-3.1715
X7.6457Y-3.937
X7.7008Y-2.7638
X7.7008Y-2.8976
X7.7008Y-3.5039
X7.7087Y-3.8819
X7.718Y-2.6545
X7.718Y-5.2393
X7.718Y-5.6651
X7.735Y-4.865
X7.7484Y-2.1984
X7.76Y-4.925
X7.785Y-3.555
X7.8092Y-3.506
X7.8092Y-4.0229
X7.8092Y-4.692
X7.8583Y-4.4882
X7.9004Y-4.3575
X7.9309Y-5.0265
X7.9309Y-5.4522
X7.9528Y-2.811
X7.96Y-3.1417
X7.96Y-2.955
X7.9613Y-2.4112
X7.98Y-4.6
X7.9843Y-3.4409
X7.9917Y-3.0194
X8.0157Y-3.9134
X8.0394Y-3.6929
X8.05Y-3.76
X8.063Y-2.7638
X8.065Y-4.43
X8.07Y-4.4838
X8.0709Y-2.9528
X8.0709Y-3.3307
X8.0709Y-3.5591
X8.11Y-3.755
X8.11Y-3.81
X8.1133Y-2.6849
X8.1133Y-4.1446
X8.1339Y-4.6693
X8.1417Y-3.7323
X8.1437Y-4.7832
X8.1437Y-5.2393
X8.1437Y-5.6651
X8.145Y-4.04
X8.1654Y-4.9606
X8.1741Y-2.1984
X8.1741Y-3.2627
X8.1969Y-2.8583
X8.1969Y-4.4173
X8.2047Y-4.7638
X8.2047Y-4.9921
X8.22Y-4.0
X8.22Y-4.635
X8.2205Y-3.8189
X8.2283Y-4.4252
X8.2283Y-4.8504
X8.23Y-4.595
X8.2362Y-4.1811
X8.2472Y-4.7453
X8.255Y-3.915
X8.265Y-3.87
X8.2835Y-3.5827
X8.2835Y-4.9055
X8.2913Y-3.6535
X8.2958Y-4.4183
X8.325Y-4.745
X8.3262Y-2.4721
X8.3388Y-3.985
X8.345Y-3.785
X8.346Y-3.7546
X8.3488Y-3.715
X8.3566Y-5.0265
X8.3566Y-5.4522
X8.36Y-4.0612
X8.3622Y-4.9055
X8.3812Y-4.03
X8.385Y-4.63
X8.3858Y-3.752
X8.387Y-2.9586
X8.387Y-3.6276
X8.405Y-4.42
X8.4055Y-3.5157
X8.4252Y-5.3465
X8.435Y-4.115
X8.445Y-4.26
X8.4464Y-4.7579
X8.4478Y-3.9925
X8.4528Y-3.7598
X8.4543Y-3.5201
X8.46Y-4.375
X8.4646Y-3.7165
X8.4844Y-3.5157
X8.485Y-4.345
X8.4882Y-2.685
X8.5354Y-4.5433
X8.539Y-3.3539
X8.5573Y-3.5881
X8.5669Y-3.4646
X8.5695Y-2.2288
X8.5695Y-2.6545
X8.5695Y-5.2393
X8.5695Y-5.6651
X8.58Y-3.8095
X8.5999Y-4.2662
X8.6063Y-3.6378
X8.6063Y-4.6378
X8.618Y-2.86
X8.6181Y-3.8307
X8.6303Y-4.8744
X8.6535Y-3.5669
X8.6911Y-3.0803
X8.6911Y-3.7493
X8.6929Y-4.874
X8.6969Y-3.8307
X8.7165Y-4.5748
X8.74Y-4.505
X8.748Y-4.8189
X8.7559Y-4.7717
X8.7772Y-3.3778
X8.7795Y-3.0709
X8.7795Y-4.6063
X8.7819Y-3.333
X8.7823Y-5.4522
X8.8031Y-3.0945
X8.8031Y-3.4094
X8.811Y-3.0
X8.8127Y-2.4112
X8.8127Y-4.4791
X8.8425Y-3.4409
X8.8431Y-2.8066
X8.8431Y-5.0873
X8.8583Y-3.1732
X8.874Y-2.7165
X8.8873Y-3.1349
X8.8898Y-4.748
X8.9055Y-3.1102
X8.9158Y-4.0945
X8.9158Y-4.1654
X8.9213Y-4.5118
X8.9291Y-4.315
X8.93Y-4.61
X8.9344Y-3.5668
X8.937Y-3.7638
X8.9606Y-3.0
X8.9606Y-4.7087
X8.9685Y-3.2047
X8.9685Y-4.6457
X8.9788Y-3.725
X8.9952Y-4.8136
X8.9952Y-5.6651
X9.0256Y-2.1984
X9.0256Y-3.2323
X9.0315Y-3.937
X9.056Y-2.5937
X9.056Y-3.8709
X9.056Y-5.3001
X9.0709Y-2.5433
X9.1024Y-2.4961
X9.1063Y-3.2992
X9.1314Y-2.6063
X9.1339Y-2.685
X9.1339Y-2.7165
X9.1376Y-4.3974
X9.1417Y-4.7008
X9.1426Y-4.5474
X9.1472Y-2.9282
X9.1472Y-4.2966
X9.1476Y-4.2474
X9.1496Y-3.4567
X9.2081Y-5.0265
X9.2385Y-4.6311
X9.2441Y-3.7165
X9.252Y-4.7008
X9.2689Y-5.513
X9.2795Y-3.6181
X9.2835Y-3.4134
X9.2835Y-4.3189
X9.2874Y-4.4685
X9.2874Y-4.6142
X9.2993Y-2.4112
X9.3031Y-2.9173
X9.3297Y-3.506
X9.3858Y-3.5315
X9.3905Y-2.7458
X9.4209Y-5.2393
X9.4513Y-4.844
X9.4567Y-2.4724
X9.4724Y-4.7402
X9.4749Y-4.0079
X9.4803Y-3.126
X9.4843Y-3.795
X9.4882Y-3.7323
X9.4961Y-2.4724
X9.5043Y-3.8384
X9.5118Y-4.9606
X9.5121Y-2.1984
X9.5157Y-2.5827
X9.5173Y-4.189
X9.5173Y-4.3386
X9.5258Y-3.811
X9.5276Y-3.0551
X9.5379Y-3.6299
X9.5426Y-4.2358
X9.5426Y-5.6651
X9.5433Y-2.5433
X9.5433Y-2.9173
X9.5433Y-4.1102
X9.5512Y-3.0945
X9.5591Y-3.9055
X9.5591Y-4.0315
X9.5827Y-2.5173
X9.6159Y-2.86
X9.6338Y-4.5703
X9.6535Y-3.2913
X9.6642Y-2.8978
X9.6642Y-3.4148
X9.685Y-5.2835
X9.6929Y-3.9291
X9.6929Y-4.1811
X9.6929Y-4.315
X9.6929Y-4.5591
X9.6929Y-4.685
X9.6929Y-4.937
X9.6929Y-5.0709
X9.6929Y-5.4094
X9.7008Y-2.622
X9.7008Y-3.0394
X9.7165Y-3.6929
X9.725Y-2.4112
X9.7323Y-4.4803
X9.7323Y-4.8425
X9.7323Y-5.2047
X9.7323Y-5.5669
X9.748Y-3.7323
X9.748Y-3.9921
X9.7542Y-3.928
X9.7638Y-3.685
X9.7638Y-4.252
X9.7638Y-4.622
X9.7638Y-4.9921
X9.7638Y-5.3465
X9.7858Y-4.0534
X9.7858Y-4.9352
X9.811Y-3.5591
X9.811Y-3.7402
X9.8162Y-5.513
X9.8189Y-3.9291
X9.8346Y-3.6772
X9.8425Y-4.5591
X9.8425Y-4.937
X9.8425Y-5.2913
X9.8583Y-3.5591
X9.874Y-3.0984
X9.8898Y-3.7323
X9.9055Y-3.5669
X9.9075Y-4.3879
X9.9134Y-4.9921
X9.9134Y-5.3465
X9.9213Y-4.2677
X9.9213Y-4.622
X9.9291Y-3.7323
X9.9379Y-2.1984
X9.9379Y-2.7153
X9.9379Y-5.2089
X9.9528Y-3.0945
X9.9528Y-3.5591
X9.9528Y-3.6535
X9.9528Y-3.7795
X9.9987Y-3.0803
X10.0079Y-3.6063
X10.0157Y-4.0236
X10.0291Y-3.658
X10.0291Y-4.692
X10.0394Y-3.3386
X10.0433Y-3.2126
X10.0472Y-2.4512
X10.0551Y-3.7717
X10.0551Y-3.9449
X10.063Y-5.6142
X10.0827Y-3.5906
X10.0945Y-3.0787
X10.1024Y-2.7795
X10.1063Y-5.6378
X10.1203Y-2.4417
X10.122Y-3.2677
X10.122Y-3.4921
X10.1507Y-3.3539
X10.1507Y-4.9961
X10.1507Y-5.4218
X10.1969Y-3.189
X10.1969Y-3.2677
X10.1969Y-3.3465
X10.1969Y-3.4252
X10.1969Y-3.5039
X10.1969Y-3.5827
X10.1969Y-3.6614
X10.1969Y-3.7795
X10.1969Y-3.8583
X10.1969Y-3.937
X10.1969Y-4.0157
X10.1969Y-4.0945
X10.1969Y-4.1732
X10.1969Y-4.3307
X10.1969Y-4.4094
X10.1969Y-4.4882
X10.1969Y-4.5669
X10.1969Y-4.6457
X10.1969Y-4.7244
X10.1969Y-4.8031
X10.1969Y-4.9213
X10.1969Y-5.0
X10.1969Y-5.0787
X10.1969Y-5.1575
X10.1969Y-5.315
X10.1969Y-5.3937
X10.1969Y-5.4724
X10.1969Y-5.5512
X10.1969Y-5.6299
X10.2116Y-2.8674
X10.2116Y-4.2662
X10.242Y-3.8709
X10.2441Y-2.4724
X10.2677Y-3.0472
X10.2756Y-3.189
X10.3332Y-2.2288
X10.3332Y-5.6651
X10.3543Y-3.189
X10.3622Y-3.126
X10.394Y-2.5937
X10.394Y-3.5364
X10.394Y-4.5703
X10.394Y-5.1785
X10.4244Y-3.1107
X10.4331Y-3.189
X10.4488Y-2.8268
X10.4548Y-4.0838
X10.4567Y-3.0433
X10.5118Y-3.189
X10.5157Y-4.8744
X10.5461Y-5.4522
X10.5906Y-3.189
X10.6069Y-3.8101
X10.6069Y-4.3575
X10.6373Y-2.7762
X10.6457Y-2.5669
X10.6677Y-3.2931
X10.6693Y-3.189
X10.6693Y-3.3465
X10.6693Y-3.4252
X10.6693Y-3.5039
X10.6693Y-3.5827
X10.6693Y-3.6614
X10.6693Y-3.8583
X10.6693Y-3.937
X10.6693Y-4.0157
X10.6693Y-4.0945
X10.6693Y-4.1732
X10.6693Y-4.4094
X10.6693Y-4.4882
X10.6693Y-4.5669
X10.6693Y-4.6457
X10.6693Y-4.7244
X10.6693Y-4.8819
X10.6693Y-4.9606
X10.6693Y-5.0394
X10.6693Y-5.1181
X10.6693Y-5.1969
X10.6693Y-5.2756
X10.6981Y-2.2896
X10.7285Y-4.6615
X10.7285Y-5.0873
X10.748Y-3.189
X10.7589Y-5.6651
X10.8198Y-3.0194
X10.8198Y-3.5668
X10.8198Y-4.0229
X10.8268Y-3.189
X10.8425Y-2.4961
X10.8806Y-2.5937
X10.9055Y-3.189
X10.911Y-5.3306
X10.9414Y-4.8744
X10.9718Y-4.4183
X10.9843Y-3.189
X11.0326Y-2.1984
X11.0326Y-3.2323
X11.0326Y-3.8101
X11.0394Y-2.5433
X11.063Y-3.189
X11.0934Y-2.8674
X11.0934Y-5.5738
X11.1417Y-3.189
X11.1543Y-4.175
X11.1847Y-2.4721
X11.1847Y-3.506
X11.1847Y-4.6311
X11.1847Y-5.0569
X11.2205Y-3.189
X11.2362Y-2.5118
X11.2598Y-3.3858
X11.2598Y-3.622
X11.2598Y-3.937
X11.2598Y-4.1339
X11.2598Y-4.4488
X11.2598Y-4.685
X11.2598Y-5.0
X11.2598Y-5.1969
X11.2992Y-3.189
X11.3063Y-3.0803
X11.3367Y-5.3306
X11.3386Y-3.3858
X11.3386Y-3.622
X11.3386Y-3.937
X11.3386Y-4.1339
X11.3386Y-4.4488
X11.3386Y-4.685
X11.3386Y-5.0
X11.3386Y-5.1969
X11.3671Y-4.3879
X11.378Y-3.189
X11.3975Y-2.2592
X11.3975Y-2.7458
X11.3975Y-3.7189
X11.4252Y-2.6063
X11.4279Y-4.8744
X11.4279Y-5.6651
X11.4567Y-3.189
X11.4584Y-3.3539
X11.5354Y-3.189
X11.5752Y-2.719
X11.58Y-3.9621
X11.58Y-4.6007
X11.58Y-5.1481
X11.6104Y-2.5329
X11.6104Y-2.9586
X11.6142Y-3.189
X11.6712Y-5.4826
X11.685Y-5.5669
X11.6929Y-3.189
X11.7016Y-4.2662
X11.7624Y-2.1984
X11.7624Y-3.2323
X11.7624Y-3.658
X11.7717Y-3.189
X11.7795Y-2.8268
X11.7929Y-4.9352
X11.7953Y-5.4961
X11.7953Y-5.6575
X11.811Y-3.3858
X11.811Y-3.622
X11.811Y-3.937
X11.811Y-4.1339
X11.811Y-4.4488
X11.811Y-4.685
X11.811Y-5.0
X11.811Y-5.1969
X11.8504Y-3.189
X11.8841Y-5.2697
X11.8898Y-2.3386
X11.8898Y-3.3858
X11.8898Y-3.622
X11.8898Y-3.937
X11.8898Y-4.1339
X11.8898Y-4.4488
X11.8898Y-4.685
X11.8898Y-5.0
X11.8898Y-5.1969
X11.8898Y-5.5748
X11.9145Y-4.0534
X11.9145Y-4.5095
X11.9145Y-5.6651
X11.9291Y-3.189
X11.9449Y-2.7762
X11.9843Y-2.2598
X11.9843Y-2.4252
X12.0079Y-3.189
X12.0236Y-2.4882
X12.0361Y-2.4112
X12.0665Y-3.1107
X12.0665Y-4.7832
X12.0866Y-2.3386
X12.0866Y-3.189
X12.0969Y-3.8101
X12.1274Y-4.2662
X12.1274Y-5.4522
X12.1654Y-3.189
X12.2441Y-3.189
X12.249Y-2.1984
X12.249Y-3.3539
X12.2794Y-2.5937
X12.3098Y-4.0229
X12.3098Y-4.5399
X12.3098Y-4.9656
X12.3228Y-2.6063
X12.3228Y-3.189
X12.3402Y-2.9586
X12.3402Y-5.6651
X12.3543Y-5.4331
X12.3622Y-3.3858
X12.3622Y-3.622
X12.3622Y-3.937
X12.3622Y-4.1339
X12.3622Y-4.4488
X12.3622Y-4.685
X12.3622Y-5.0
X12.3622Y-5.1969
X12.401Y-3.6884
X12.401Y-5.3001
X12.4016Y-3.189
X12.4094Y-2.4646
X12.4094Y-2.7244
X12.4409Y-3.3858
X12.4409Y-3.622
X12.4409Y-3.937
X12.4409Y-4.1339
X12.4409Y-4.4488
X12.4409Y-4.6457
X12.4409Y-5.0
X12.4409Y-5.1969
X12.4803Y-3.189
X12.4882Y-2.5984
X12.5039Y-5.4882
X12.5227Y-2.4112
X12.5227Y-4.7528
X12.5531Y-3.2323
X12.5531Y-4.327
X12.5591Y-3.189
X12.5984Y-2.5748
X12.6063Y-2.4094
X12.6139Y-3.9013
X12.6378Y-3.189
X12.6747Y-2.8066
X12.7051Y-3.506
X12.7051Y-4.9961
X12.7051Y-5.513
X12.7165Y-3.189
X12.7165Y-5.5709
X12.7355Y-2.1984
X12.7397Y-4.4169
X12.7607Y-3.9479
X12.8456Y-3.7511
X12.8572Y-3.0498
X12.8572Y-4.0838
X12.8572Y-4.6311
X12.8583Y-2.3543
X12.918Y-2.4417
X12.918Y-3.7189
X12.9449Y-4.5906
X12.9449Y-4.685
X12.9449Y-4.7953
X12.9484Y-5.1785
X12.9528Y-3.189
X12.9606Y-4.4882
X12.9788Y-5.6651
X13.0315Y-3.189
X13.063Y-2.9921
X13.0701Y-2.7762
X13.0701Y-3.2627
X13.0701Y-4.2966
X13.0701Y-4.844
X13.0787Y-4.4803
X13.0787Y-4.5827
X13.0787Y-4.685
X13.0787Y-4.7953
X13.1102Y-3.189
X13.1309Y-3.9317
X13.1339Y-2.937
X13.1613Y-2.1984
X13.1613Y-5.3914
X13.189Y-3.189
X13.1917Y-3.5668
T3
X10.3346Y-3.3661
X10.3346Y-3.4646
X10.3346Y-3.563
X10.3346Y-3.8976
X10.3346Y-3.9961
X10.3346Y-4.0945
X10.3346Y-4.4291
X10.3346Y-4.5276
X10.3346Y-4.626
X10.3346Y-4.9606
X10.3346Y-5.0591
X10.3346Y-5.1575
T4
X7.845Y-3.715
X7.845Y-3.815
X7.845Y-3.915
X7.945Y-3.715
X7.945Y-3.815
X7.945Y-3.915
X8.7323Y-3.1441
X8.7323Y-3.2441
X9.13Y-3.845
X9.13Y-4.01
X9.23Y-3.845
X9.23Y-4.01
T5
X10.3622Y-2.8449
X10.3622Y-2.9449
X10.3622Y-3.0449
X11.7983Y-5.5709
X11.9983Y-5.5709
X12.1883Y-5.5712
X12.3833Y-5.5712
X12.5833Y-5.5712
T6
X7.0433Y-4.626
X7.0433Y-4.8228
X7.0433Y-5.0197
X7.0433Y-5.2165
X7.4488Y-2.3543
X7.6457Y-2.3543
X7.8425Y-2.3543
X8.0394Y-2.3543
X8.4785Y-2.35
X8.6754Y-2.35
X8.8722Y-2.35
X9.0691Y-2.35
X9.2659Y-2.35
X9.4628Y-2.35
X9.6596Y-2.35
X9.8565Y-2.35
X10.0533Y-2.35
X10.2502Y-2.35
X10.4541Y-2.35
X10.6509Y-2.35
X10.8478Y-2.35
X11.0446Y-2.35
X11.2415Y-2.35
X11.4383Y-2.35
X11.6352Y-2.35
X11.9882Y-2.3425
X12.0551Y-2.8268
X12.0551Y-3.0236
X12.185Y-2.3425
X13.0118Y-3.3574
X13.0118Y-3.5542
X13.0118Y-3.7511
X13.0118Y-3.9479
X13.0118Y-4.1448
X13.0118Y-4.3416
X13.0118Y-4.5385
X13.0118Y-4.7353
T2
G00X12.4094Y-2.5551
M15
G01X12.4094Y-2.6417
M16
G05
G00X12.6417Y-2.4882
M15
G01X12.5551Y-2.4882
M16
G05
G00X12.6496Y-2.7165
M15
G01X12.5472Y-2.7165
M16
G05
T0
M30
