%TF.GenerationSoftware,KiCad,Pcbnew,(5.1.6)-1*%
%TF.CreationDate,2021-04-08T21:05:13-07:00*%
%TF.ProjectId,DJetECUTester,444a6574-4543-4555-9465-737465722e6b,rev?*%
%TF.SameCoordinates,Original*%
%TF.FileFunction,Soldermask,Top*%
%TF.FilePolarity,Negative*%
%FSLAX46Y46*%
G04 Gerber Fmt 4.6, Leading zero omitted, Abs format (unit mm)*
G04 Created by KiCad (PCBNEW (5.1.6)-1) date 2021-04-08 21:05:13*
%MOMM*%
%LPD*%
G01*
G04 APERTURE LIST*
%ADD10C,1.900000*%
%ADD11R,1.900000X1.900000*%
%ADD12R,1.600000X3.100000*%
%ADD13R,1.300000X1.500000*%
%ADD14R,0.900000X1.000000*%
%ADD15R,1.000000X0.900000*%
%ADD16R,2.200000X2.200000*%
%ADD17C,2.200000*%
%ADD18C,2.100000*%
%ADD19R,2.700000X1.600000*%
%ADD20R,1.900000X2.600000*%
%ADD21R,1.600000X2.700000*%
%ADD22R,1.320000X1.010000*%
%ADD23R,1.800000X1.800000*%
%ADD24O,1.800000X1.800000*%
%ADD25R,2.600000X2.100000*%
%ADD26R,2.600000X0.600000*%
%ADD27C,1.000000*%
%ADD28R,1.900000X5.800000*%
%ADD29R,4.700000X1.200000*%
%ADD30R,9.500000X10.900000*%
%ADD31R,1.850000X0.550000*%
G04 APERTURE END LIST*
D10*
%TO.C,J8*%
X264200000Y-129200000D03*
X259200000Y-129200000D03*
X254200000Y-129200000D03*
X249200000Y-129200000D03*
D11*
X244200000Y-129200000D03*
%TD*%
D10*
%TO.C,J6*%
X223400000Y-129200000D03*
X228400000Y-129200000D03*
X233400000Y-129200000D03*
D11*
X238400000Y-129200000D03*
%TD*%
D10*
%TO.C,J10*%
X234033000Y-59690000D03*
X239033000Y-59690000D03*
X244033000Y-59690000D03*
X249033000Y-59690000D03*
X254033000Y-59690000D03*
X259033000Y-59690000D03*
D11*
X264033000Y-59690000D03*
%TD*%
D10*
%TO.C,J9*%
X183854000Y-59690000D03*
X188854000Y-59690000D03*
X193854000Y-59690000D03*
X198854000Y-59690000D03*
X203854000Y-59690000D03*
X208854000Y-59690000D03*
X213854000Y-59690000D03*
X218854000Y-59690000D03*
X223854000Y-59690000D03*
D11*
X228854000Y-59690000D03*
%TD*%
D10*
%TO.C,J5*%
X262509000Y-77517000D03*
D11*
X262509000Y-72517000D03*
%TD*%
D10*
%TO.C,J2*%
X262001000Y-120777000D03*
X262001000Y-115777000D03*
X262001000Y-110777000D03*
X262001000Y-105777000D03*
X262001000Y-100777000D03*
X262001000Y-95777000D03*
X262001000Y-90777000D03*
D11*
X262001000Y-85777000D03*
%TD*%
D12*
%TO.C,TP8*%
X251881000Y-110744000D03*
%TD*%
D13*
%TO.C,Y1*%
X217119000Y-119888000D03*
X217119000Y-122088000D03*
X215519000Y-119888000D03*
X215519000Y-122088000D03*
%TD*%
%TO.C,R37*%
G36*
G01*
X190272750Y-107461000D02*
X191235250Y-107461000D01*
G75*
G02*
X191504000Y-107729750I0J-268750D01*
G01*
X191504000Y-108267250D01*
G75*
G02*
X191235250Y-108536000I-268750J0D01*
G01*
X190272750Y-108536000D01*
G75*
G02*
X190004000Y-108267250I0J268750D01*
G01*
X190004000Y-107729750D01*
G75*
G02*
X190272750Y-107461000I268750J0D01*
G01*
G37*
G36*
G01*
X190272750Y-105586000D02*
X191235250Y-105586000D01*
G75*
G02*
X191504000Y-105854750I0J-268750D01*
G01*
X191504000Y-106392250D01*
G75*
G02*
X191235250Y-106661000I-268750J0D01*
G01*
X190272750Y-106661000D01*
G75*
G02*
X190004000Y-106392250I0J268750D01*
G01*
X190004000Y-105854750D01*
G75*
G02*
X190272750Y-105586000I268750J0D01*
G01*
G37*
%TD*%
%TO.C,R36*%
G36*
G01*
X185901250Y-118599000D02*
X184938750Y-118599000D01*
G75*
G02*
X184670000Y-118330250I0J268750D01*
G01*
X184670000Y-117792750D01*
G75*
G02*
X184938750Y-117524000I268750J0D01*
G01*
X185901250Y-117524000D01*
G75*
G02*
X186170000Y-117792750I0J-268750D01*
G01*
X186170000Y-118330250D01*
G75*
G02*
X185901250Y-118599000I-268750J0D01*
G01*
G37*
G36*
G01*
X185901250Y-120474000D02*
X184938750Y-120474000D01*
G75*
G02*
X184670000Y-120205250I0J268750D01*
G01*
X184670000Y-119667750D01*
G75*
G02*
X184938750Y-119399000I268750J0D01*
G01*
X185901250Y-119399000D01*
G75*
G02*
X186170000Y-119667750I0J-268750D01*
G01*
X186170000Y-120205250D01*
G75*
G02*
X185901250Y-120474000I-268750J0D01*
G01*
G37*
%TD*%
%TO.C,R32*%
G36*
G01*
X193772500Y-111479250D02*
X193772500Y-110516750D01*
G75*
G02*
X194041250Y-110248000I268750J0D01*
G01*
X194578750Y-110248000D01*
G75*
G02*
X194847500Y-110516750I0J-268750D01*
G01*
X194847500Y-111479250D01*
G75*
G02*
X194578750Y-111748000I-268750J0D01*
G01*
X194041250Y-111748000D01*
G75*
G02*
X193772500Y-111479250I0J268750D01*
G01*
G37*
G36*
G01*
X191897500Y-111479250D02*
X191897500Y-110516750D01*
G75*
G02*
X192166250Y-110248000I268750J0D01*
G01*
X192703750Y-110248000D01*
G75*
G02*
X192972500Y-110516750I0J-268750D01*
G01*
X192972500Y-111479250D01*
G75*
G02*
X192703750Y-111748000I-268750J0D01*
G01*
X192166250Y-111748000D01*
G75*
G02*
X191897500Y-111479250I0J268750D01*
G01*
G37*
%TD*%
%TO.C,R31*%
G36*
G01*
X187859750Y-124557500D02*
X188822250Y-124557500D01*
G75*
G02*
X189091000Y-124826250I0J-268750D01*
G01*
X189091000Y-125363750D01*
G75*
G02*
X188822250Y-125632500I-268750J0D01*
G01*
X187859750Y-125632500D01*
G75*
G02*
X187591000Y-125363750I0J268750D01*
G01*
X187591000Y-124826250D01*
G75*
G02*
X187859750Y-124557500I268750J0D01*
G01*
G37*
G36*
G01*
X187859750Y-122682500D02*
X188822250Y-122682500D01*
G75*
G02*
X189091000Y-122951250I0J-268750D01*
G01*
X189091000Y-123488750D01*
G75*
G02*
X188822250Y-123757500I-268750J0D01*
G01*
X187859750Y-123757500D01*
G75*
G02*
X187591000Y-123488750I0J268750D01*
G01*
X187591000Y-122951250D01*
G75*
G02*
X187859750Y-122682500I268750J0D01*
G01*
G37*
%TD*%
%TO.C,R30*%
G36*
G01*
X196625500Y-110516750D02*
X196625500Y-111479250D01*
G75*
G02*
X196356750Y-111748000I-268750J0D01*
G01*
X195819250Y-111748000D01*
G75*
G02*
X195550500Y-111479250I0J268750D01*
G01*
X195550500Y-110516750D01*
G75*
G02*
X195819250Y-110248000I268750J0D01*
G01*
X196356750Y-110248000D01*
G75*
G02*
X196625500Y-110516750I0J-268750D01*
G01*
G37*
G36*
G01*
X198500500Y-110516750D02*
X198500500Y-111479250D01*
G75*
G02*
X198231750Y-111748000I-268750J0D01*
G01*
X197694250Y-111748000D01*
G75*
G02*
X197425500Y-111479250I0J268750D01*
G01*
X197425500Y-110516750D01*
G75*
G02*
X197694250Y-110248000I268750J0D01*
G01*
X198231750Y-110248000D01*
G75*
G02*
X198500500Y-110516750I0J-268750D01*
G01*
G37*
%TD*%
%TO.C,R29*%
G36*
G01*
X190018750Y-124527500D02*
X190981250Y-124527500D01*
G75*
G02*
X191250000Y-124796250I0J-268750D01*
G01*
X191250000Y-125333750D01*
G75*
G02*
X190981250Y-125602500I-268750J0D01*
G01*
X190018750Y-125602500D01*
G75*
G02*
X189750000Y-125333750I0J268750D01*
G01*
X189750000Y-124796250D01*
G75*
G02*
X190018750Y-124527500I268750J0D01*
G01*
G37*
G36*
G01*
X190018750Y-122652500D02*
X190981250Y-122652500D01*
G75*
G02*
X191250000Y-122921250I0J-268750D01*
G01*
X191250000Y-123458750D01*
G75*
G02*
X190981250Y-123727500I-268750J0D01*
G01*
X190018750Y-123727500D01*
G75*
G02*
X189750000Y-123458750I0J268750D01*
G01*
X189750000Y-122921250D01*
G75*
G02*
X190018750Y-122652500I268750J0D01*
G01*
G37*
%TD*%
D14*
%TO.C,Q14*%
X195326000Y-106061000D03*
X196276000Y-108061000D03*
X194376000Y-108061000D03*
%TD*%
D15*
%TO.C,Q13*%
X183674000Y-122870000D03*
X185674000Y-121920000D03*
X185674000Y-123820000D03*
%TD*%
D16*
%TO.C,J7*%
X178308000Y-111125000D03*
D17*
X178308000Y-113665000D03*
X178308000Y-116205000D03*
X178308000Y-118745000D03*
X178308000Y-121285000D03*
X178308000Y-123825000D03*
%TD*%
D18*
%TO.C,TP4*%
X222758000Y-97536000D03*
%TD*%
%TO.C,TP3*%
X226568000Y-97536000D03*
%TD*%
%TO.C,TP2*%
X222758000Y-101854000D03*
%TD*%
%TO.C,TP1*%
X226568000Y-101854000D03*
%TD*%
%TO.C,C1*%
G36*
G01*
X222707375Y-108770000D02*
X221538625Y-108770000D01*
G75*
G02*
X221273000Y-108504375I0J265625D01*
G01*
X221273000Y-106335625D01*
G75*
G02*
X221538625Y-106070000I265625J0D01*
G01*
X222707375Y-106070000D01*
G75*
G02*
X222973000Y-106335625I0J-265625D01*
G01*
X222973000Y-108504375D01*
G75*
G02*
X222707375Y-108770000I-265625J0D01*
G01*
G37*
G36*
G01*
X222707375Y-112370000D02*
X221538625Y-112370000D01*
G75*
G02*
X221273000Y-112104375I0J265625D01*
G01*
X221273000Y-109935625D01*
G75*
G02*
X221538625Y-109670000I265625J0D01*
G01*
X222707375Y-109670000D01*
G75*
G02*
X222973000Y-109935625I0J-265625D01*
G01*
X222973000Y-112104375D01*
G75*
G02*
X222707375Y-112370000I-265625J0D01*
G01*
G37*
%TD*%
%TO.C,C2*%
G36*
G01*
X211809250Y-109219500D02*
X210846750Y-109219500D01*
G75*
G02*
X210578000Y-108950750I0J268750D01*
G01*
X210578000Y-108413250D01*
G75*
G02*
X210846750Y-108144500I268750J0D01*
G01*
X211809250Y-108144500D01*
G75*
G02*
X212078000Y-108413250I0J-268750D01*
G01*
X212078000Y-108950750D01*
G75*
G02*
X211809250Y-109219500I-268750J0D01*
G01*
G37*
G36*
G01*
X211809250Y-107344500D02*
X210846750Y-107344500D01*
G75*
G02*
X210578000Y-107075750I0J268750D01*
G01*
X210578000Y-106538250D01*
G75*
G02*
X210846750Y-106269500I268750J0D01*
G01*
X211809250Y-106269500D01*
G75*
G02*
X212078000Y-106538250I0J-268750D01*
G01*
X212078000Y-107075750D01*
G75*
G02*
X211809250Y-107344500I-268750J0D01*
G01*
G37*
%TD*%
%TO.C,C3*%
G36*
G01*
X211989750Y-122652500D02*
X212952250Y-122652500D01*
G75*
G02*
X213221000Y-122921250I0J-268750D01*
G01*
X213221000Y-123458750D01*
G75*
G02*
X212952250Y-123727500I-268750J0D01*
G01*
X211989750Y-123727500D01*
G75*
G02*
X211721000Y-123458750I0J268750D01*
G01*
X211721000Y-122921250D01*
G75*
G02*
X211989750Y-122652500I268750J0D01*
G01*
G37*
G36*
G01*
X211989750Y-120777500D02*
X212952250Y-120777500D01*
G75*
G02*
X213221000Y-121046250I0J-268750D01*
G01*
X213221000Y-121583750D01*
G75*
G02*
X212952250Y-121852500I-268750J0D01*
G01*
X211989750Y-121852500D01*
G75*
G02*
X211721000Y-121583750I0J268750D01*
G01*
X211721000Y-121046250D01*
G75*
G02*
X211989750Y-120777500I268750J0D01*
G01*
G37*
%TD*%
%TO.C,C4*%
G36*
G01*
X218410500Y-120496250D02*
X218410500Y-119533750D01*
G75*
G02*
X218679250Y-119265000I268750J0D01*
G01*
X219216750Y-119265000D01*
G75*
G02*
X219485500Y-119533750I0J-268750D01*
G01*
X219485500Y-120496250D01*
G75*
G02*
X219216750Y-120765000I-268750J0D01*
G01*
X218679250Y-120765000D01*
G75*
G02*
X218410500Y-120496250I0J268750D01*
G01*
G37*
G36*
G01*
X220285500Y-120496250D02*
X220285500Y-119533750D01*
G75*
G02*
X220554250Y-119265000I268750J0D01*
G01*
X221091750Y-119265000D01*
G75*
G02*
X221360500Y-119533750I0J-268750D01*
G01*
X221360500Y-120496250D01*
G75*
G02*
X221091750Y-120765000I-268750J0D01*
G01*
X220554250Y-120765000D01*
G75*
G02*
X220285500Y-120496250I0J268750D01*
G01*
G37*
%TD*%
%TO.C,C5*%
G36*
G01*
X221360500Y-121565750D02*
X221360500Y-122528250D01*
G75*
G02*
X221091750Y-122797000I-268750J0D01*
G01*
X220554250Y-122797000D01*
G75*
G02*
X220285500Y-122528250I0J268750D01*
G01*
X220285500Y-121565750D01*
G75*
G02*
X220554250Y-121297000I268750J0D01*
G01*
X221091750Y-121297000D01*
G75*
G02*
X221360500Y-121565750I0J-268750D01*
G01*
G37*
G36*
G01*
X219485500Y-121565750D02*
X219485500Y-122528250D01*
G75*
G02*
X219216750Y-122797000I-268750J0D01*
G01*
X218679250Y-122797000D01*
G75*
G02*
X218410500Y-122528250I0J268750D01*
G01*
X218410500Y-121565750D01*
G75*
G02*
X218679250Y-121297000I268750J0D01*
G01*
X219216750Y-121297000D01*
G75*
G02*
X219485500Y-121565750I0J-268750D01*
G01*
G37*
%TD*%
%TO.C,C6*%
G36*
G01*
X209957750Y-122652500D02*
X210920250Y-122652500D01*
G75*
G02*
X211189000Y-122921250I0J-268750D01*
G01*
X211189000Y-123458750D01*
G75*
G02*
X210920250Y-123727500I-268750J0D01*
G01*
X209957750Y-123727500D01*
G75*
G02*
X209689000Y-123458750I0J268750D01*
G01*
X209689000Y-122921250D01*
G75*
G02*
X209957750Y-122652500I268750J0D01*
G01*
G37*
G36*
G01*
X209957750Y-120777500D02*
X210920250Y-120777500D01*
G75*
G02*
X211189000Y-121046250I0J-268750D01*
G01*
X211189000Y-121583750D01*
G75*
G02*
X210920250Y-121852500I-268750J0D01*
G01*
X209957750Y-121852500D01*
G75*
G02*
X209689000Y-121583750I0J268750D01*
G01*
X209689000Y-121046250D01*
G75*
G02*
X209957750Y-120777500I268750J0D01*
G01*
G37*
%TD*%
%TO.C,C7*%
G36*
G01*
X194664250Y-97311500D02*
X193701750Y-97311500D01*
G75*
G02*
X193433000Y-97042750I0J268750D01*
G01*
X193433000Y-96505250D01*
G75*
G02*
X193701750Y-96236500I268750J0D01*
G01*
X194664250Y-96236500D01*
G75*
G02*
X194933000Y-96505250I0J-268750D01*
G01*
X194933000Y-97042750D01*
G75*
G02*
X194664250Y-97311500I-268750J0D01*
G01*
G37*
G36*
G01*
X194664250Y-99186500D02*
X193701750Y-99186500D01*
G75*
G02*
X193433000Y-98917750I0J268750D01*
G01*
X193433000Y-98380250D01*
G75*
G02*
X193701750Y-98111500I268750J0D01*
G01*
X194664250Y-98111500D01*
G75*
G02*
X194933000Y-98380250I0J-268750D01*
G01*
X194933000Y-98917750D01*
G75*
G02*
X194664250Y-99186500I-268750J0D01*
G01*
G37*
%TD*%
%TO.C,C8*%
G36*
G01*
X215483000Y-71604000D02*
X215483000Y-73684000D01*
G75*
G02*
X215223000Y-73944000I-260000J0D01*
G01*
X211243000Y-73944000D01*
G75*
G02*
X210983000Y-73684000I0J260000D01*
G01*
X210983000Y-71604000D01*
G75*
G02*
X211243000Y-71344000I260000J0D01*
G01*
X215223000Y-71344000D01*
G75*
G02*
X215483000Y-71604000I0J-260000D01*
G01*
G37*
G36*
G01*
X207083000Y-71604000D02*
X207083000Y-73684000D01*
G75*
G02*
X206823000Y-73944000I-260000J0D01*
G01*
X202843000Y-73944000D01*
G75*
G02*
X202583000Y-73684000I0J260000D01*
G01*
X202583000Y-71604000D01*
G75*
G02*
X202843000Y-71344000I260000J0D01*
G01*
X206823000Y-71344000D01*
G75*
G02*
X207083000Y-71604000I0J-260000D01*
G01*
G37*
%TD*%
%TO.C,C9*%
G36*
G01*
X184687500Y-82830750D02*
X184687500Y-83793250D01*
G75*
G02*
X184418750Y-84062000I-268750J0D01*
G01*
X183881250Y-84062000D01*
G75*
G02*
X183612500Y-83793250I0J268750D01*
G01*
X183612500Y-82830750D01*
G75*
G02*
X183881250Y-82562000I268750J0D01*
G01*
X184418750Y-82562000D01*
G75*
G02*
X184687500Y-82830750I0J-268750D01*
G01*
G37*
G36*
G01*
X182812500Y-82830750D02*
X182812500Y-83793250D01*
G75*
G02*
X182543750Y-84062000I-268750J0D01*
G01*
X182006250Y-84062000D01*
G75*
G02*
X181737500Y-83793250I0J268750D01*
G01*
X181737500Y-82830750D01*
G75*
G02*
X182006250Y-82562000I268750J0D01*
G01*
X182543750Y-82562000D01*
G75*
G02*
X182812500Y-82830750I0J-268750D01*
G01*
G37*
%TD*%
%TO.C,C10*%
G36*
G01*
X203938000Y-79226000D02*
X206018000Y-79226000D01*
G75*
G02*
X206278000Y-79486000I0J-260000D01*
G01*
X206278000Y-83066000D01*
G75*
G02*
X206018000Y-83326000I-260000J0D01*
G01*
X203938000Y-83326000D01*
G75*
G02*
X203678000Y-83066000I0J260000D01*
G01*
X203678000Y-79486000D01*
G75*
G02*
X203938000Y-79226000I260000J0D01*
G01*
G37*
G36*
G01*
X203938000Y-85326000D02*
X206018000Y-85326000D01*
G75*
G02*
X206278000Y-85586000I0J-260000D01*
G01*
X206278000Y-89166000D01*
G75*
G02*
X206018000Y-89426000I-260000J0D01*
G01*
X203938000Y-89426000D01*
G75*
G02*
X203678000Y-89166000I0J260000D01*
G01*
X203678000Y-85586000D01*
G75*
G02*
X203938000Y-85326000I260000J0D01*
G01*
G37*
%TD*%
%TO.C,C11*%
G36*
G01*
X195860750Y-91791500D02*
X196823250Y-91791500D01*
G75*
G02*
X197092000Y-92060250I0J-268750D01*
G01*
X197092000Y-92597750D01*
G75*
G02*
X196823250Y-92866500I-268750J0D01*
G01*
X195860750Y-92866500D01*
G75*
G02*
X195592000Y-92597750I0J268750D01*
G01*
X195592000Y-92060250D01*
G75*
G02*
X195860750Y-91791500I268750J0D01*
G01*
G37*
G36*
G01*
X195860750Y-89916500D02*
X196823250Y-89916500D01*
G75*
G02*
X197092000Y-90185250I0J-268750D01*
G01*
X197092000Y-90722750D01*
G75*
G02*
X196823250Y-90991500I-268750J0D01*
G01*
X195860750Y-90991500D01*
G75*
G02*
X195592000Y-90722750I0J268750D01*
G01*
X195592000Y-90185250D01*
G75*
G02*
X195860750Y-89916500I268750J0D01*
G01*
G37*
%TD*%
%TO.C,C12*%
G36*
G01*
X183468000Y-90474625D02*
X183468000Y-91643375D01*
G75*
G02*
X183202375Y-91909000I-265625J0D01*
G01*
X181033625Y-91909000D01*
G75*
G02*
X180768000Y-91643375I0J265625D01*
G01*
X180768000Y-90474625D01*
G75*
G02*
X181033625Y-90209000I265625J0D01*
G01*
X183202375Y-90209000D01*
G75*
G02*
X183468000Y-90474625I0J-265625D01*
G01*
G37*
G36*
G01*
X179868000Y-90474625D02*
X179868000Y-91643375D01*
G75*
G02*
X179602375Y-91909000I-265625J0D01*
G01*
X177433625Y-91909000D01*
G75*
G02*
X177168000Y-91643375I0J265625D01*
G01*
X177168000Y-90474625D01*
G75*
G02*
X177433625Y-90209000I265625J0D01*
G01*
X179602375Y-90209000D01*
G75*
G02*
X179868000Y-90474625I0J-265625D01*
G01*
G37*
%TD*%
%TO.C,C13*%
G36*
G01*
X188367750Y-96266500D02*
X189330250Y-96266500D01*
G75*
G02*
X189599000Y-96535250I0J-268750D01*
G01*
X189599000Y-97072750D01*
G75*
G02*
X189330250Y-97341500I-268750J0D01*
G01*
X188367750Y-97341500D01*
G75*
G02*
X188099000Y-97072750I0J268750D01*
G01*
X188099000Y-96535250D01*
G75*
G02*
X188367750Y-96266500I268750J0D01*
G01*
G37*
G36*
G01*
X188367750Y-98141500D02*
X189330250Y-98141500D01*
G75*
G02*
X189599000Y-98410250I0J-268750D01*
G01*
X189599000Y-98947750D01*
G75*
G02*
X189330250Y-99216500I-268750J0D01*
G01*
X188367750Y-99216500D01*
G75*
G02*
X188099000Y-98947750I0J268750D01*
G01*
X188099000Y-98410250D01*
G75*
G02*
X188367750Y-98141500I268750J0D01*
G01*
G37*
%TD*%
D19*
%TO.C,D1*%
X201549000Y-111712000D03*
X201549000Y-108712000D03*
%TD*%
D20*
%TO.C,D2*%
X181356000Y-76105000D03*
X181356000Y-80105000D03*
%TD*%
D21*
%TO.C,D3*%
X181102000Y-86487000D03*
X178102000Y-86487000D03*
%TD*%
D22*
%TO.C,D4*%
X192024000Y-99917000D03*
X192024000Y-96647000D03*
%TD*%
%TO.C,FB1*%
G36*
G01*
X187171250Y-99216500D02*
X186208750Y-99216500D01*
G75*
G02*
X185940000Y-98947750I0J268750D01*
G01*
X185940000Y-98410250D01*
G75*
G02*
X186208750Y-98141500I268750J0D01*
G01*
X187171250Y-98141500D01*
G75*
G02*
X187440000Y-98410250I0J-268750D01*
G01*
X187440000Y-98947750D01*
G75*
G02*
X187171250Y-99216500I-268750J0D01*
G01*
G37*
G36*
G01*
X187171250Y-97341500D02*
X186208750Y-97341500D01*
G75*
G02*
X185940000Y-97072750I0J268750D01*
G01*
X185940000Y-96535250D01*
G75*
G02*
X186208750Y-96266500I268750J0D01*
G01*
X187171250Y-96266500D01*
G75*
G02*
X187440000Y-96535250I0J-268750D01*
G01*
X187440000Y-97072750D01*
G75*
G02*
X187171250Y-97341500I-268750J0D01*
G01*
G37*
%TD*%
D23*
%TO.C,J1*%
X199263000Y-94361000D03*
D24*
X201803000Y-94361000D03*
X199263000Y-96901000D03*
X201803000Y-96901000D03*
X199263000Y-99441000D03*
X201803000Y-99441000D03*
%TD*%
D25*
%TO.C,J3*%
X177546000Y-96102000D03*
X177546000Y-104902000D03*
X183046000Y-96102000D03*
X183046000Y-104902000D03*
D26*
X183046000Y-98902000D03*
X183046000Y-99702000D03*
X183046000Y-100502000D03*
X183046000Y-101302000D03*
X183046000Y-102102000D03*
D27*
X180446000Y-98302000D03*
X180446000Y-102702000D03*
%TD*%
D23*
%TO.C,J4*%
X242697000Y-114046000D03*
D24*
X240157000Y-114046000D03*
X242697000Y-111506000D03*
X240157000Y-111506000D03*
X242697000Y-108966000D03*
X240157000Y-108966000D03*
X242697000Y-106426000D03*
X240157000Y-106426000D03*
X242697000Y-103886000D03*
X240157000Y-103886000D03*
X242697000Y-101346000D03*
X240157000Y-101346000D03*
X242697000Y-98806000D03*
X240157000Y-98806000D03*
X242697000Y-96266000D03*
X240157000Y-96266000D03*
X242697000Y-93726000D03*
X240157000Y-93726000D03*
X242697000Y-91186000D03*
X240157000Y-91186000D03*
X242697000Y-88646000D03*
X240157000Y-88646000D03*
X242697000Y-86106000D03*
X240157000Y-86106000D03*
X242697000Y-83566000D03*
X240157000Y-83566000D03*
%TD*%
D23*
%TO.C,JP2*%
X231902000Y-101854000D03*
D24*
X234442000Y-101854000D03*
%TD*%
%TO.C,JP3*%
X234442000Y-97663000D03*
D23*
X231902000Y-97663000D03*
%TD*%
%TO.C,JP4*%
X188976000Y-113411000D03*
D24*
X188976000Y-115951000D03*
X188976000Y-118491000D03*
%TD*%
D28*
%TO.C,L1*%
X182372000Y-70485000D03*
X177772000Y-70485000D03*
%TD*%
D15*
%TO.C,Q1*%
X233696000Y-109794000D03*
X233696000Y-111694000D03*
X235696000Y-110744000D03*
%TD*%
%TO.C,Q2*%
X233696000Y-117414000D03*
X233696000Y-119314000D03*
X235696000Y-118364000D03*
%TD*%
%TO.C,Q3*%
X233696000Y-113604000D03*
X233696000Y-115504000D03*
X235696000Y-114554000D03*
%TD*%
%TO.C,Q4*%
X235696000Y-106934000D03*
X233696000Y-107884000D03*
X233696000Y-105984000D03*
%TD*%
%TO.C,Q5*%
X233569000Y-86807000D03*
X233569000Y-88707000D03*
X235569000Y-87757000D03*
%TD*%
%TO.C,Q6*%
X231759000Y-85090000D03*
X229759000Y-86040000D03*
X229759000Y-84140000D03*
%TD*%
%TO.C,Q7*%
X229775000Y-89220000D03*
X229775000Y-91120000D03*
X231775000Y-90170000D03*
%TD*%
%TO.C,Q8*%
X233569000Y-92014000D03*
X233569000Y-93914000D03*
X235569000Y-92964000D03*
%TD*%
D14*
%TO.C,Q9*%
X193421000Y-125095000D03*
X192471000Y-123095000D03*
X194371000Y-123095000D03*
%TD*%
%TO.C,Q10*%
X195326000Y-112919000D03*
X196276000Y-114919000D03*
X194376000Y-114919000D03*
%TD*%
%TO.C,R1*%
G36*
G01*
X202184500Y-115924250D02*
X202184500Y-114961750D01*
G75*
G02*
X202453250Y-114693000I268750J0D01*
G01*
X202990750Y-114693000D01*
G75*
G02*
X203259500Y-114961750I0J-268750D01*
G01*
X203259500Y-115924250D01*
G75*
G02*
X202990750Y-116193000I-268750J0D01*
G01*
X202453250Y-116193000D01*
G75*
G02*
X202184500Y-115924250I0J268750D01*
G01*
G37*
G36*
G01*
X204059500Y-115924250D02*
X204059500Y-114961750D01*
G75*
G02*
X204328250Y-114693000I268750J0D01*
G01*
X204865750Y-114693000D01*
G75*
G02*
X205134500Y-114961750I0J-268750D01*
G01*
X205134500Y-115924250D01*
G75*
G02*
X204865750Y-116193000I-268750J0D01*
G01*
X204328250Y-116193000D01*
G75*
G02*
X204059500Y-115924250I0J268750D01*
G01*
G37*
%TD*%
%TO.C,R2*%
G36*
G01*
X216434750Y-110255000D02*
X217397250Y-110255000D01*
G75*
G02*
X217666000Y-110523750I0J-268750D01*
G01*
X217666000Y-111061250D01*
G75*
G02*
X217397250Y-111330000I-268750J0D01*
G01*
X216434750Y-111330000D01*
G75*
G02*
X216166000Y-111061250I0J268750D01*
G01*
X216166000Y-110523750D01*
G75*
G02*
X216434750Y-110255000I268750J0D01*
G01*
G37*
G36*
G01*
X216434750Y-108380000D02*
X217397250Y-108380000D01*
G75*
G02*
X217666000Y-108648750I0J-268750D01*
G01*
X217666000Y-109186250D01*
G75*
G02*
X217397250Y-109455000I-268750J0D01*
G01*
X216434750Y-109455000D01*
G75*
G02*
X216166000Y-109186250I0J268750D01*
G01*
X216166000Y-108648750D01*
G75*
G02*
X216434750Y-108380000I268750J0D01*
G01*
G37*
%TD*%
%TO.C,R3*%
G36*
G01*
X203435000Y-122835750D02*
X203435000Y-123798250D01*
G75*
G02*
X203166250Y-124067000I-268750J0D01*
G01*
X202628750Y-124067000D01*
G75*
G02*
X202360000Y-123798250I0J268750D01*
G01*
X202360000Y-122835750D01*
G75*
G02*
X202628750Y-122567000I268750J0D01*
G01*
X203166250Y-122567000D01*
G75*
G02*
X203435000Y-122835750I0J-268750D01*
G01*
G37*
G36*
G01*
X205310000Y-122835750D02*
X205310000Y-123798250D01*
G75*
G02*
X205041250Y-124067000I-268750J0D01*
G01*
X204503750Y-124067000D01*
G75*
G02*
X204235000Y-123798250I0J268750D01*
G01*
X204235000Y-122835750D01*
G75*
G02*
X204503750Y-122567000I268750J0D01*
G01*
X205041250Y-122567000D01*
G75*
G02*
X205310000Y-122835750I0J-268750D01*
G01*
G37*
%TD*%
%TO.C,R4*%
G36*
G01*
X201675500Y-122835750D02*
X201675500Y-123798250D01*
G75*
G02*
X201406750Y-124067000I-268750J0D01*
G01*
X200869250Y-124067000D01*
G75*
G02*
X200600500Y-123798250I0J268750D01*
G01*
X200600500Y-122835750D01*
G75*
G02*
X200869250Y-122567000I268750J0D01*
G01*
X201406750Y-122567000D01*
G75*
G02*
X201675500Y-122835750I0J-268750D01*
G01*
G37*
G36*
G01*
X199800500Y-122835750D02*
X199800500Y-123798250D01*
G75*
G02*
X199531750Y-124067000I-268750J0D01*
G01*
X198994250Y-124067000D01*
G75*
G02*
X198725500Y-123798250I0J268750D01*
G01*
X198725500Y-122835750D01*
G75*
G02*
X198994250Y-122567000I268750J0D01*
G01*
X199531750Y-122567000D01*
G75*
G02*
X199800500Y-122835750I0J-268750D01*
G01*
G37*
%TD*%
%TO.C,R5*%
G36*
G01*
X200178750Y-113284500D02*
X201141250Y-113284500D01*
G75*
G02*
X201410000Y-113553250I0J-268750D01*
G01*
X201410000Y-114090750D01*
G75*
G02*
X201141250Y-114359500I-268750J0D01*
G01*
X200178750Y-114359500D01*
G75*
G02*
X199910000Y-114090750I0J268750D01*
G01*
X199910000Y-113553250D01*
G75*
G02*
X200178750Y-113284500I268750J0D01*
G01*
G37*
G36*
G01*
X200178750Y-115159500D02*
X201141250Y-115159500D01*
G75*
G02*
X201410000Y-115428250I0J-268750D01*
G01*
X201410000Y-115965750D01*
G75*
G02*
X201141250Y-116234500I-268750J0D01*
G01*
X200178750Y-116234500D01*
G75*
G02*
X199910000Y-115965750I0J268750D01*
G01*
X199910000Y-115428250D01*
G75*
G02*
X200178750Y-115159500I268750J0D01*
G01*
G37*
%TD*%
%TO.C,R6*%
G36*
G01*
X179226500Y-82830750D02*
X179226500Y-83793250D01*
G75*
G02*
X178957750Y-84062000I-268750J0D01*
G01*
X178420250Y-84062000D01*
G75*
G02*
X178151500Y-83793250I0J268750D01*
G01*
X178151500Y-82830750D01*
G75*
G02*
X178420250Y-82562000I268750J0D01*
G01*
X178957750Y-82562000D01*
G75*
G02*
X179226500Y-82830750I0J-268750D01*
G01*
G37*
G36*
G01*
X181101500Y-82830750D02*
X181101500Y-83793250D01*
G75*
G02*
X180832750Y-84062000I-268750J0D01*
G01*
X180295250Y-84062000D01*
G75*
G02*
X180026500Y-83793250I0J268750D01*
G01*
X180026500Y-82830750D01*
G75*
G02*
X180295250Y-82562000I268750J0D01*
G01*
X180832750Y-82562000D01*
G75*
G02*
X181101500Y-82830750I0J-268750D01*
G01*
G37*
%TD*%
%TO.C,R7*%
G36*
G01*
X231423500Y-109119750D02*
X231423500Y-110082250D01*
G75*
G02*
X231154750Y-110351000I-268750J0D01*
G01*
X230617250Y-110351000D01*
G75*
G02*
X230348500Y-110082250I0J268750D01*
G01*
X230348500Y-109119750D01*
G75*
G02*
X230617250Y-108851000I268750J0D01*
G01*
X231154750Y-108851000D01*
G75*
G02*
X231423500Y-109119750I0J-268750D01*
G01*
G37*
G36*
G01*
X229548500Y-109119750D02*
X229548500Y-110082250D01*
G75*
G02*
X229279750Y-110351000I-268750J0D01*
G01*
X228742250Y-110351000D01*
G75*
G02*
X228473500Y-110082250I0J268750D01*
G01*
X228473500Y-109119750D01*
G75*
G02*
X228742250Y-108851000I268750J0D01*
G01*
X229279750Y-108851000D01*
G75*
G02*
X229548500Y-109119750I0J-268750D01*
G01*
G37*
%TD*%
%TO.C,R8*%
G36*
G01*
X231393500Y-117247750D02*
X231393500Y-118210250D01*
G75*
G02*
X231124750Y-118479000I-268750J0D01*
G01*
X230587250Y-118479000D01*
G75*
G02*
X230318500Y-118210250I0J268750D01*
G01*
X230318500Y-117247750D01*
G75*
G02*
X230587250Y-116979000I268750J0D01*
G01*
X231124750Y-116979000D01*
G75*
G02*
X231393500Y-117247750I0J-268750D01*
G01*
G37*
G36*
G01*
X229518500Y-117247750D02*
X229518500Y-118210250D01*
G75*
G02*
X229249750Y-118479000I-268750J0D01*
G01*
X228712250Y-118479000D01*
G75*
G02*
X228443500Y-118210250I0J268750D01*
G01*
X228443500Y-117247750D01*
G75*
G02*
X228712250Y-116979000I268750J0D01*
G01*
X229249750Y-116979000D01*
G75*
G02*
X229518500Y-117247750I0J-268750D01*
G01*
G37*
%TD*%
%TO.C,R9*%
G36*
G01*
X230318500Y-112114250D02*
X230318500Y-111151750D01*
G75*
G02*
X230587250Y-110883000I268750J0D01*
G01*
X231124750Y-110883000D01*
G75*
G02*
X231393500Y-111151750I0J-268750D01*
G01*
X231393500Y-112114250D01*
G75*
G02*
X231124750Y-112383000I-268750J0D01*
G01*
X230587250Y-112383000D01*
G75*
G02*
X230318500Y-112114250I0J268750D01*
G01*
G37*
G36*
G01*
X228443500Y-112114250D02*
X228443500Y-111151750D01*
G75*
G02*
X228712250Y-110883000I268750J0D01*
G01*
X229249750Y-110883000D01*
G75*
G02*
X229518500Y-111151750I0J-268750D01*
G01*
X229518500Y-112114250D01*
G75*
G02*
X229249750Y-112383000I-268750J0D01*
G01*
X228712250Y-112383000D01*
G75*
G02*
X228443500Y-112114250I0J268750D01*
G01*
G37*
%TD*%
%TO.C,R10*%
G36*
G01*
X231393500Y-119279750D02*
X231393500Y-120242250D01*
G75*
G02*
X231124750Y-120511000I-268750J0D01*
G01*
X230587250Y-120511000D01*
G75*
G02*
X230318500Y-120242250I0J268750D01*
G01*
X230318500Y-119279750D01*
G75*
G02*
X230587250Y-119011000I268750J0D01*
G01*
X231124750Y-119011000D01*
G75*
G02*
X231393500Y-119279750I0J-268750D01*
G01*
G37*
G36*
G01*
X229518500Y-119279750D02*
X229518500Y-120242250D01*
G75*
G02*
X229249750Y-120511000I-268750J0D01*
G01*
X228712250Y-120511000D01*
G75*
G02*
X228443500Y-120242250I0J268750D01*
G01*
X228443500Y-119279750D01*
G75*
G02*
X228712250Y-119011000I268750J0D01*
G01*
X229249750Y-119011000D01*
G75*
G02*
X229518500Y-119279750I0J-268750D01*
G01*
G37*
%TD*%
%TO.C,R11*%
G36*
G01*
X231393500Y-113183750D02*
X231393500Y-114146250D01*
G75*
G02*
X231124750Y-114415000I-268750J0D01*
G01*
X230587250Y-114415000D01*
G75*
G02*
X230318500Y-114146250I0J268750D01*
G01*
X230318500Y-113183750D01*
G75*
G02*
X230587250Y-112915000I268750J0D01*
G01*
X231124750Y-112915000D01*
G75*
G02*
X231393500Y-113183750I0J-268750D01*
G01*
G37*
G36*
G01*
X229518500Y-113183750D02*
X229518500Y-114146250D01*
G75*
G02*
X229249750Y-114415000I-268750J0D01*
G01*
X228712250Y-114415000D01*
G75*
G02*
X228443500Y-114146250I0J268750D01*
G01*
X228443500Y-113183750D01*
G75*
G02*
X228712250Y-112915000I268750J0D01*
G01*
X229249750Y-112915000D01*
G75*
G02*
X229518500Y-113183750I0J-268750D01*
G01*
G37*
%TD*%
%TO.C,R12*%
G36*
G01*
X231393500Y-105055750D02*
X231393500Y-106018250D01*
G75*
G02*
X231124750Y-106287000I-268750J0D01*
G01*
X230587250Y-106287000D01*
G75*
G02*
X230318500Y-106018250I0J268750D01*
G01*
X230318500Y-105055750D01*
G75*
G02*
X230587250Y-104787000I268750J0D01*
G01*
X231124750Y-104787000D01*
G75*
G02*
X231393500Y-105055750I0J-268750D01*
G01*
G37*
G36*
G01*
X229518500Y-105055750D02*
X229518500Y-106018250D01*
G75*
G02*
X229249750Y-106287000I-268750J0D01*
G01*
X228712250Y-106287000D01*
G75*
G02*
X228443500Y-106018250I0J268750D01*
G01*
X228443500Y-105055750D01*
G75*
G02*
X228712250Y-104787000I268750J0D01*
G01*
X229249750Y-104787000D01*
G75*
G02*
X229518500Y-105055750I0J-268750D01*
G01*
G37*
%TD*%
%TO.C,R13*%
G36*
G01*
X230318500Y-116178250D02*
X230318500Y-115215750D01*
G75*
G02*
X230587250Y-114947000I268750J0D01*
G01*
X231124750Y-114947000D01*
G75*
G02*
X231393500Y-115215750I0J-268750D01*
G01*
X231393500Y-116178250D01*
G75*
G02*
X231124750Y-116447000I-268750J0D01*
G01*
X230587250Y-116447000D01*
G75*
G02*
X230318500Y-116178250I0J268750D01*
G01*
G37*
G36*
G01*
X228443500Y-116178250D02*
X228443500Y-115215750D01*
G75*
G02*
X228712250Y-114947000I268750J0D01*
G01*
X229249750Y-114947000D01*
G75*
G02*
X229518500Y-115215750I0J-268750D01*
G01*
X229518500Y-116178250D01*
G75*
G02*
X229249750Y-116447000I-268750J0D01*
G01*
X228712250Y-116447000D01*
G75*
G02*
X228443500Y-116178250I0J268750D01*
G01*
G37*
%TD*%
%TO.C,R14*%
G36*
G01*
X230318500Y-108050250D02*
X230318500Y-107087750D01*
G75*
G02*
X230587250Y-106819000I268750J0D01*
G01*
X231124750Y-106819000D01*
G75*
G02*
X231393500Y-107087750I0J-268750D01*
G01*
X231393500Y-108050250D01*
G75*
G02*
X231124750Y-108319000I-268750J0D01*
G01*
X230587250Y-108319000D01*
G75*
G02*
X230318500Y-108050250I0J268750D01*
G01*
G37*
G36*
G01*
X228443500Y-108050250D02*
X228443500Y-107087750D01*
G75*
G02*
X228712250Y-106819000I268750J0D01*
G01*
X229249750Y-106819000D01*
G75*
G02*
X229518500Y-107087750I0J-268750D01*
G01*
X229518500Y-108050250D01*
G75*
G02*
X229249750Y-108319000I-268750J0D01*
G01*
X228712250Y-108319000D01*
G75*
G02*
X228443500Y-108050250I0J268750D01*
G01*
G37*
%TD*%
%TO.C,R15*%
G36*
G01*
X205766750Y-99919500D02*
X206729250Y-99919500D01*
G75*
G02*
X206998000Y-100188250I0J-268750D01*
G01*
X206998000Y-100725750D01*
G75*
G02*
X206729250Y-100994500I-268750J0D01*
G01*
X205766750Y-100994500D01*
G75*
G02*
X205498000Y-100725750I0J268750D01*
G01*
X205498000Y-100188250D01*
G75*
G02*
X205766750Y-99919500I268750J0D01*
G01*
G37*
G36*
G01*
X205766750Y-98044500D02*
X206729250Y-98044500D01*
G75*
G02*
X206998000Y-98313250I0J-268750D01*
G01*
X206998000Y-98850750D01*
G75*
G02*
X206729250Y-99119500I-268750J0D01*
G01*
X205766750Y-99119500D01*
G75*
G02*
X205498000Y-98850750I0J268750D01*
G01*
X205498000Y-98313250D01*
G75*
G02*
X205766750Y-98044500I268750J0D01*
G01*
G37*
%TD*%
%TO.C,R16*%
G36*
G01*
X205766750Y-91186500D02*
X206729250Y-91186500D01*
G75*
G02*
X206998000Y-91455250I0J-268750D01*
G01*
X206998000Y-91992750D01*
G75*
G02*
X206729250Y-92261500I-268750J0D01*
G01*
X205766750Y-92261500D01*
G75*
G02*
X205498000Y-91992750I0J268750D01*
G01*
X205498000Y-91455250D01*
G75*
G02*
X205766750Y-91186500I268750J0D01*
G01*
G37*
G36*
G01*
X205766750Y-93061500D02*
X206729250Y-93061500D01*
G75*
G02*
X206998000Y-93330250I0J-268750D01*
G01*
X206998000Y-93867750D01*
G75*
G02*
X206729250Y-94136500I-268750J0D01*
G01*
X205766750Y-94136500D01*
G75*
G02*
X205498000Y-93867750I0J268750D01*
G01*
X205498000Y-93330250D01*
G75*
G02*
X205766750Y-93061500I268750J0D01*
G01*
G37*
%TD*%
%TO.C,R17*%
G36*
G01*
X230232000Y-80290750D02*
X230232000Y-81253250D01*
G75*
G02*
X229963250Y-81522000I-268750J0D01*
G01*
X229425750Y-81522000D01*
G75*
G02*
X229157000Y-81253250I0J268750D01*
G01*
X229157000Y-80290750D01*
G75*
G02*
X229425750Y-80022000I268750J0D01*
G01*
X229963250Y-80022000D01*
G75*
G02*
X230232000Y-80290750I0J-268750D01*
G01*
G37*
G36*
G01*
X232107000Y-80290750D02*
X232107000Y-81253250D01*
G75*
G02*
X231838250Y-81522000I-268750J0D01*
G01*
X231300750Y-81522000D01*
G75*
G02*
X231032000Y-81253250I0J268750D01*
G01*
X231032000Y-80290750D01*
G75*
G02*
X231300750Y-80022000I268750J0D01*
G01*
X231838250Y-80022000D01*
G75*
G02*
X232107000Y-80290750I0J-268750D01*
G01*
G37*
%TD*%
%TO.C,R18*%
G36*
G01*
X227427500Y-83285250D02*
X227427500Y-82322750D01*
G75*
G02*
X227696250Y-82054000I268750J0D01*
G01*
X228233750Y-82054000D01*
G75*
G02*
X228502500Y-82322750I0J-268750D01*
G01*
X228502500Y-83285250D01*
G75*
G02*
X228233750Y-83554000I-268750J0D01*
G01*
X227696250Y-83554000D01*
G75*
G02*
X227427500Y-83285250I0J268750D01*
G01*
G37*
G36*
G01*
X225552500Y-83285250D02*
X225552500Y-82322750D01*
G75*
G02*
X225821250Y-82054000I268750J0D01*
G01*
X226358750Y-82054000D01*
G75*
G02*
X226627500Y-82322750I0J-268750D01*
G01*
X226627500Y-83285250D01*
G75*
G02*
X226358750Y-83554000I-268750J0D01*
G01*
X225821250Y-83554000D01*
G75*
G02*
X225552500Y-83285250I0J268750D01*
G01*
G37*
%TD*%
%TO.C,R19*%
G36*
G01*
X233045500Y-85317250D02*
X233045500Y-84354750D01*
G75*
G02*
X233314250Y-84086000I268750J0D01*
G01*
X233851750Y-84086000D01*
G75*
G02*
X234120500Y-84354750I0J-268750D01*
G01*
X234120500Y-85317250D01*
G75*
G02*
X233851750Y-85586000I-268750J0D01*
G01*
X233314250Y-85586000D01*
G75*
G02*
X233045500Y-85317250I0J268750D01*
G01*
G37*
G36*
G01*
X234920500Y-85317250D02*
X234920500Y-84354750D01*
G75*
G02*
X235189250Y-84086000I268750J0D01*
G01*
X235726750Y-84086000D01*
G75*
G02*
X235995500Y-84354750I0J-268750D01*
G01*
X235995500Y-85317250D01*
G75*
G02*
X235726750Y-85586000I-268750J0D01*
G01*
X235189250Y-85586000D01*
G75*
G02*
X234920500Y-85317250I0J268750D01*
G01*
G37*
%TD*%
%TO.C,R20*%
G36*
G01*
X227427500Y-85444250D02*
X227427500Y-84481750D01*
G75*
G02*
X227696250Y-84213000I268750J0D01*
G01*
X228233750Y-84213000D01*
G75*
G02*
X228502500Y-84481750I0J-268750D01*
G01*
X228502500Y-85444250D01*
G75*
G02*
X228233750Y-85713000I-268750J0D01*
G01*
X227696250Y-85713000D01*
G75*
G02*
X227427500Y-85444250I0J268750D01*
G01*
G37*
G36*
G01*
X225552500Y-85444250D02*
X225552500Y-84481750D01*
G75*
G02*
X225821250Y-84213000I268750J0D01*
G01*
X226358750Y-84213000D01*
G75*
G02*
X226627500Y-84481750I0J-268750D01*
G01*
X226627500Y-85444250D01*
G75*
G02*
X226358750Y-85713000I-268750J0D01*
G01*
X225821250Y-85713000D01*
G75*
G02*
X225552500Y-85444250I0J268750D01*
G01*
G37*
%TD*%
%TO.C,R21*%
G36*
G01*
X228472500Y-86640750D02*
X228472500Y-87603250D01*
G75*
G02*
X228203750Y-87872000I-268750J0D01*
G01*
X227666250Y-87872000D01*
G75*
G02*
X227397500Y-87603250I0J268750D01*
G01*
X227397500Y-86640750D01*
G75*
G02*
X227666250Y-86372000I268750J0D01*
G01*
X228203750Y-86372000D01*
G75*
G02*
X228472500Y-86640750I0J-268750D01*
G01*
G37*
G36*
G01*
X226597500Y-86640750D02*
X226597500Y-87603250D01*
G75*
G02*
X226328750Y-87872000I-268750J0D01*
G01*
X225791250Y-87872000D01*
G75*
G02*
X225522500Y-87603250I0J268750D01*
G01*
X225522500Y-86640750D01*
G75*
G02*
X225791250Y-86372000I268750J0D01*
G01*
X226328750Y-86372000D01*
G75*
G02*
X226597500Y-86640750I0J-268750D01*
G01*
G37*
%TD*%
%TO.C,R22*%
G36*
G01*
X230407500Y-92609750D02*
X230407500Y-93572250D01*
G75*
G02*
X230138750Y-93841000I-268750J0D01*
G01*
X229601250Y-93841000D01*
G75*
G02*
X229332500Y-93572250I0J268750D01*
G01*
X229332500Y-92609750D01*
G75*
G02*
X229601250Y-92341000I268750J0D01*
G01*
X230138750Y-92341000D01*
G75*
G02*
X230407500Y-92609750I0J-268750D01*
G01*
G37*
G36*
G01*
X232282500Y-92609750D02*
X232282500Y-93572250D01*
G75*
G02*
X232013750Y-93841000I-268750J0D01*
G01*
X231476250Y-93841000D01*
G75*
G02*
X231207500Y-93572250I0J268750D01*
G01*
X231207500Y-92609750D01*
G75*
G02*
X231476250Y-92341000I268750J0D01*
G01*
X232013750Y-92341000D01*
G75*
G02*
X232282500Y-92609750I0J-268750D01*
G01*
G37*
%TD*%
%TO.C,R23*%
G36*
G01*
X226597500Y-88799750D02*
X226597500Y-89762250D01*
G75*
G02*
X226328750Y-90031000I-268750J0D01*
G01*
X225791250Y-90031000D01*
G75*
G02*
X225522500Y-89762250I0J268750D01*
G01*
X225522500Y-88799750D01*
G75*
G02*
X225791250Y-88531000I268750J0D01*
G01*
X226328750Y-88531000D01*
G75*
G02*
X226597500Y-88799750I0J-268750D01*
G01*
G37*
G36*
G01*
X228472500Y-88799750D02*
X228472500Y-89762250D01*
G75*
G02*
X228203750Y-90031000I-268750J0D01*
G01*
X227666250Y-90031000D01*
G75*
G02*
X227397500Y-89762250I0J268750D01*
G01*
X227397500Y-88799750D01*
G75*
G02*
X227666250Y-88531000I268750J0D01*
G01*
X228203750Y-88531000D01*
G75*
G02*
X228472500Y-88799750I0J-268750D01*
G01*
G37*
%TD*%
%TO.C,R24*%
G36*
G01*
X226627500Y-92609750D02*
X226627500Y-93572250D01*
G75*
G02*
X226358750Y-93841000I-268750J0D01*
G01*
X225821250Y-93841000D01*
G75*
G02*
X225552500Y-93572250I0J268750D01*
G01*
X225552500Y-92609750D01*
G75*
G02*
X225821250Y-92341000I268750J0D01*
G01*
X226358750Y-92341000D01*
G75*
G02*
X226627500Y-92609750I0J-268750D01*
G01*
G37*
G36*
G01*
X228502500Y-92609750D02*
X228502500Y-93572250D01*
G75*
G02*
X228233750Y-93841000I-268750J0D01*
G01*
X227696250Y-93841000D01*
G75*
G02*
X227427500Y-93572250I0J268750D01*
G01*
X227427500Y-92609750D01*
G75*
G02*
X227696250Y-92341000I268750J0D01*
G01*
X228233750Y-92341000D01*
G75*
G02*
X228502500Y-92609750I0J-268750D01*
G01*
G37*
%TD*%
%TO.C,R25*%
G36*
G01*
X195453500Y-120496250D02*
X195453500Y-119533750D01*
G75*
G02*
X195722250Y-119265000I268750J0D01*
G01*
X196259750Y-119265000D01*
G75*
G02*
X196528500Y-119533750I0J-268750D01*
G01*
X196528500Y-120496250D01*
G75*
G02*
X196259750Y-120765000I-268750J0D01*
G01*
X195722250Y-120765000D01*
G75*
G02*
X195453500Y-120496250I0J268750D01*
G01*
G37*
G36*
G01*
X197328500Y-120496250D02*
X197328500Y-119533750D01*
G75*
G02*
X197597250Y-119265000I268750J0D01*
G01*
X198134750Y-119265000D01*
G75*
G02*
X198403500Y-119533750I0J-268750D01*
G01*
X198403500Y-120496250D01*
G75*
G02*
X198134750Y-120765000I-268750J0D01*
G01*
X197597250Y-120765000D01*
G75*
G02*
X197328500Y-120496250I0J268750D01*
G01*
G37*
%TD*%
%TO.C,R26*%
G36*
G01*
X195453500Y-118337250D02*
X195453500Y-117374750D01*
G75*
G02*
X195722250Y-117106000I268750J0D01*
G01*
X196259750Y-117106000D01*
G75*
G02*
X196528500Y-117374750I0J-268750D01*
G01*
X196528500Y-118337250D01*
G75*
G02*
X196259750Y-118606000I-268750J0D01*
G01*
X195722250Y-118606000D01*
G75*
G02*
X195453500Y-118337250I0J268750D01*
G01*
G37*
G36*
G01*
X197328500Y-118337250D02*
X197328500Y-117374750D01*
G75*
G02*
X197597250Y-117106000I268750J0D01*
G01*
X198134750Y-117106000D01*
G75*
G02*
X198403500Y-117374750I0J-268750D01*
G01*
X198403500Y-118337250D01*
G75*
G02*
X198134750Y-118606000I-268750J0D01*
G01*
X197597250Y-118606000D01*
G75*
G02*
X197328500Y-118337250I0J268750D01*
G01*
G37*
%TD*%
%TO.C,R27*%
G36*
G01*
X194847500Y-119533750D02*
X194847500Y-120496250D01*
G75*
G02*
X194578750Y-120765000I-268750J0D01*
G01*
X194041250Y-120765000D01*
G75*
G02*
X193772500Y-120496250I0J268750D01*
G01*
X193772500Y-119533750D01*
G75*
G02*
X194041250Y-119265000I268750J0D01*
G01*
X194578750Y-119265000D01*
G75*
G02*
X194847500Y-119533750I0J-268750D01*
G01*
G37*
G36*
G01*
X192972500Y-119533750D02*
X192972500Y-120496250D01*
G75*
G02*
X192703750Y-120765000I-268750J0D01*
G01*
X192166250Y-120765000D01*
G75*
G02*
X191897500Y-120496250I0J268750D01*
G01*
X191897500Y-119533750D01*
G75*
G02*
X192166250Y-119265000I268750J0D01*
G01*
X192703750Y-119265000D01*
G75*
G02*
X192972500Y-119533750I0J-268750D01*
G01*
G37*
%TD*%
%TO.C,R28*%
G36*
G01*
X194847500Y-117374750D02*
X194847500Y-118337250D01*
G75*
G02*
X194578750Y-118606000I-268750J0D01*
G01*
X194041250Y-118606000D01*
G75*
G02*
X193772500Y-118337250I0J268750D01*
G01*
X193772500Y-117374750D01*
G75*
G02*
X194041250Y-117106000I268750J0D01*
G01*
X194578750Y-117106000D01*
G75*
G02*
X194847500Y-117374750I0J-268750D01*
G01*
G37*
G36*
G01*
X192972500Y-117374750D02*
X192972500Y-118337250D01*
G75*
G02*
X192703750Y-118606000I-268750J0D01*
G01*
X192166250Y-118606000D01*
G75*
G02*
X191897500Y-118337250I0J268750D01*
G01*
X191897500Y-117374750D01*
G75*
G02*
X192166250Y-117106000I268750J0D01*
G01*
X192703750Y-117106000D01*
G75*
G02*
X192972500Y-117374750I0J-268750D01*
G01*
G37*
%TD*%
D12*
%TO.C,TP5*%
X252008000Y-95885000D03*
%TD*%
%TO.C,TP6*%
X252008000Y-100965000D03*
%TD*%
%TO.C,TP7*%
X252008000Y-105918000D03*
%TD*%
%TO.C,TP9*%
X251881000Y-115824000D03*
%TD*%
%TO.C,U1*%
G36*
G01*
X208297000Y-120037000D02*
X207997000Y-120037000D01*
G75*
G02*
X207847000Y-119887000I0J150000D01*
G01*
X207847000Y-118587000D01*
G75*
G02*
X207997000Y-118437000I150000J0D01*
G01*
X208297000Y-118437000D01*
G75*
G02*
X208447000Y-118587000I0J-150000D01*
G01*
X208447000Y-119887000D01*
G75*
G02*
X208297000Y-120037000I-150000J0D01*
G01*
G37*
G36*
G01*
X209097000Y-120037000D02*
X208797000Y-120037000D01*
G75*
G02*
X208647000Y-119887000I0J150000D01*
G01*
X208647000Y-118587000D01*
G75*
G02*
X208797000Y-118437000I150000J0D01*
G01*
X209097000Y-118437000D01*
G75*
G02*
X209247000Y-118587000I0J-150000D01*
G01*
X209247000Y-119887000D01*
G75*
G02*
X209097000Y-120037000I-150000J0D01*
G01*
G37*
G36*
G01*
X209897000Y-120037000D02*
X209597000Y-120037000D01*
G75*
G02*
X209447000Y-119887000I0J150000D01*
G01*
X209447000Y-118587000D01*
G75*
G02*
X209597000Y-118437000I150000J0D01*
G01*
X209897000Y-118437000D01*
G75*
G02*
X210047000Y-118587000I0J-150000D01*
G01*
X210047000Y-119887000D01*
G75*
G02*
X209897000Y-120037000I-150000J0D01*
G01*
G37*
G36*
G01*
X210697000Y-120037000D02*
X210397000Y-120037000D01*
G75*
G02*
X210247000Y-119887000I0J150000D01*
G01*
X210247000Y-118587000D01*
G75*
G02*
X210397000Y-118437000I150000J0D01*
G01*
X210697000Y-118437000D01*
G75*
G02*
X210847000Y-118587000I0J-150000D01*
G01*
X210847000Y-119887000D01*
G75*
G02*
X210697000Y-120037000I-150000J0D01*
G01*
G37*
G36*
G01*
X211497000Y-120037000D02*
X211197000Y-120037000D01*
G75*
G02*
X211047000Y-119887000I0J150000D01*
G01*
X211047000Y-118587000D01*
G75*
G02*
X211197000Y-118437000I150000J0D01*
G01*
X211497000Y-118437000D01*
G75*
G02*
X211647000Y-118587000I0J-150000D01*
G01*
X211647000Y-119887000D01*
G75*
G02*
X211497000Y-120037000I-150000J0D01*
G01*
G37*
G36*
G01*
X212297000Y-120037000D02*
X211997000Y-120037000D01*
G75*
G02*
X211847000Y-119887000I0J150000D01*
G01*
X211847000Y-118587000D01*
G75*
G02*
X211997000Y-118437000I150000J0D01*
G01*
X212297000Y-118437000D01*
G75*
G02*
X212447000Y-118587000I0J-150000D01*
G01*
X212447000Y-119887000D01*
G75*
G02*
X212297000Y-120037000I-150000J0D01*
G01*
G37*
G36*
G01*
X213097000Y-120037000D02*
X212797000Y-120037000D01*
G75*
G02*
X212647000Y-119887000I0J150000D01*
G01*
X212647000Y-118587000D01*
G75*
G02*
X212797000Y-118437000I150000J0D01*
G01*
X213097000Y-118437000D01*
G75*
G02*
X213247000Y-118587000I0J-150000D01*
G01*
X213247000Y-119887000D01*
G75*
G02*
X213097000Y-120037000I-150000J0D01*
G01*
G37*
G36*
G01*
X213897000Y-120037000D02*
X213597000Y-120037000D01*
G75*
G02*
X213447000Y-119887000I0J150000D01*
G01*
X213447000Y-118587000D01*
G75*
G02*
X213597000Y-118437000I150000J0D01*
G01*
X213897000Y-118437000D01*
G75*
G02*
X214047000Y-118587000I0J-150000D01*
G01*
X214047000Y-119887000D01*
G75*
G02*
X213897000Y-120037000I-150000J0D01*
G01*
G37*
G36*
G01*
X215772000Y-118162000D02*
X214472000Y-118162000D01*
G75*
G02*
X214322000Y-118012000I0J150000D01*
G01*
X214322000Y-117712000D01*
G75*
G02*
X214472000Y-117562000I150000J0D01*
G01*
X215772000Y-117562000D01*
G75*
G02*
X215922000Y-117712000I0J-150000D01*
G01*
X215922000Y-118012000D01*
G75*
G02*
X215772000Y-118162000I-150000J0D01*
G01*
G37*
G36*
G01*
X215772000Y-117362000D02*
X214472000Y-117362000D01*
G75*
G02*
X214322000Y-117212000I0J150000D01*
G01*
X214322000Y-116912000D01*
G75*
G02*
X214472000Y-116762000I150000J0D01*
G01*
X215772000Y-116762000D01*
G75*
G02*
X215922000Y-116912000I0J-150000D01*
G01*
X215922000Y-117212000D01*
G75*
G02*
X215772000Y-117362000I-150000J0D01*
G01*
G37*
G36*
G01*
X215772000Y-116562000D02*
X214472000Y-116562000D01*
G75*
G02*
X214322000Y-116412000I0J150000D01*
G01*
X214322000Y-116112000D01*
G75*
G02*
X214472000Y-115962000I150000J0D01*
G01*
X215772000Y-115962000D01*
G75*
G02*
X215922000Y-116112000I0J-150000D01*
G01*
X215922000Y-116412000D01*
G75*
G02*
X215772000Y-116562000I-150000J0D01*
G01*
G37*
G36*
G01*
X215772000Y-115762000D02*
X214472000Y-115762000D01*
G75*
G02*
X214322000Y-115612000I0J150000D01*
G01*
X214322000Y-115312000D01*
G75*
G02*
X214472000Y-115162000I150000J0D01*
G01*
X215772000Y-115162000D01*
G75*
G02*
X215922000Y-115312000I0J-150000D01*
G01*
X215922000Y-115612000D01*
G75*
G02*
X215772000Y-115762000I-150000J0D01*
G01*
G37*
G36*
G01*
X215772000Y-114962000D02*
X214472000Y-114962000D01*
G75*
G02*
X214322000Y-114812000I0J150000D01*
G01*
X214322000Y-114512000D01*
G75*
G02*
X214472000Y-114362000I150000J0D01*
G01*
X215772000Y-114362000D01*
G75*
G02*
X215922000Y-114512000I0J-150000D01*
G01*
X215922000Y-114812000D01*
G75*
G02*
X215772000Y-114962000I-150000J0D01*
G01*
G37*
G36*
G01*
X215772000Y-114162000D02*
X214472000Y-114162000D01*
G75*
G02*
X214322000Y-114012000I0J150000D01*
G01*
X214322000Y-113712000D01*
G75*
G02*
X214472000Y-113562000I150000J0D01*
G01*
X215772000Y-113562000D01*
G75*
G02*
X215922000Y-113712000I0J-150000D01*
G01*
X215922000Y-114012000D01*
G75*
G02*
X215772000Y-114162000I-150000J0D01*
G01*
G37*
G36*
G01*
X215772000Y-113362000D02*
X214472000Y-113362000D01*
G75*
G02*
X214322000Y-113212000I0J150000D01*
G01*
X214322000Y-112912000D01*
G75*
G02*
X214472000Y-112762000I150000J0D01*
G01*
X215772000Y-112762000D01*
G75*
G02*
X215922000Y-112912000I0J-150000D01*
G01*
X215922000Y-113212000D01*
G75*
G02*
X215772000Y-113362000I-150000J0D01*
G01*
G37*
G36*
G01*
X215772000Y-112562000D02*
X214472000Y-112562000D01*
G75*
G02*
X214322000Y-112412000I0J150000D01*
G01*
X214322000Y-112112000D01*
G75*
G02*
X214472000Y-111962000I150000J0D01*
G01*
X215772000Y-111962000D01*
G75*
G02*
X215922000Y-112112000I0J-150000D01*
G01*
X215922000Y-112412000D01*
G75*
G02*
X215772000Y-112562000I-150000J0D01*
G01*
G37*
G36*
G01*
X213897000Y-111687000D02*
X213597000Y-111687000D01*
G75*
G02*
X213447000Y-111537000I0J150000D01*
G01*
X213447000Y-110237000D01*
G75*
G02*
X213597000Y-110087000I150000J0D01*
G01*
X213897000Y-110087000D01*
G75*
G02*
X214047000Y-110237000I0J-150000D01*
G01*
X214047000Y-111537000D01*
G75*
G02*
X213897000Y-111687000I-150000J0D01*
G01*
G37*
G36*
G01*
X213097000Y-111687000D02*
X212797000Y-111687000D01*
G75*
G02*
X212647000Y-111537000I0J150000D01*
G01*
X212647000Y-110237000D01*
G75*
G02*
X212797000Y-110087000I150000J0D01*
G01*
X213097000Y-110087000D01*
G75*
G02*
X213247000Y-110237000I0J-150000D01*
G01*
X213247000Y-111537000D01*
G75*
G02*
X213097000Y-111687000I-150000J0D01*
G01*
G37*
G36*
G01*
X212297000Y-111687000D02*
X211997000Y-111687000D01*
G75*
G02*
X211847000Y-111537000I0J150000D01*
G01*
X211847000Y-110237000D01*
G75*
G02*
X211997000Y-110087000I150000J0D01*
G01*
X212297000Y-110087000D01*
G75*
G02*
X212447000Y-110237000I0J-150000D01*
G01*
X212447000Y-111537000D01*
G75*
G02*
X212297000Y-111687000I-150000J0D01*
G01*
G37*
G36*
G01*
X211497000Y-111687000D02*
X211197000Y-111687000D01*
G75*
G02*
X211047000Y-111537000I0J150000D01*
G01*
X211047000Y-110237000D01*
G75*
G02*
X211197000Y-110087000I150000J0D01*
G01*
X211497000Y-110087000D01*
G75*
G02*
X211647000Y-110237000I0J-150000D01*
G01*
X211647000Y-111537000D01*
G75*
G02*
X211497000Y-111687000I-150000J0D01*
G01*
G37*
G36*
G01*
X210697000Y-111687000D02*
X210397000Y-111687000D01*
G75*
G02*
X210247000Y-111537000I0J150000D01*
G01*
X210247000Y-110237000D01*
G75*
G02*
X210397000Y-110087000I150000J0D01*
G01*
X210697000Y-110087000D01*
G75*
G02*
X210847000Y-110237000I0J-150000D01*
G01*
X210847000Y-111537000D01*
G75*
G02*
X210697000Y-111687000I-150000J0D01*
G01*
G37*
G36*
G01*
X209897000Y-111687000D02*
X209597000Y-111687000D01*
G75*
G02*
X209447000Y-111537000I0J150000D01*
G01*
X209447000Y-110237000D01*
G75*
G02*
X209597000Y-110087000I150000J0D01*
G01*
X209897000Y-110087000D01*
G75*
G02*
X210047000Y-110237000I0J-150000D01*
G01*
X210047000Y-111537000D01*
G75*
G02*
X209897000Y-111687000I-150000J0D01*
G01*
G37*
G36*
G01*
X209097000Y-111687000D02*
X208797000Y-111687000D01*
G75*
G02*
X208647000Y-111537000I0J150000D01*
G01*
X208647000Y-110237000D01*
G75*
G02*
X208797000Y-110087000I150000J0D01*
G01*
X209097000Y-110087000D01*
G75*
G02*
X209247000Y-110237000I0J-150000D01*
G01*
X209247000Y-111537000D01*
G75*
G02*
X209097000Y-111687000I-150000J0D01*
G01*
G37*
G36*
G01*
X208297000Y-111687000D02*
X207997000Y-111687000D01*
G75*
G02*
X207847000Y-111537000I0J150000D01*
G01*
X207847000Y-110237000D01*
G75*
G02*
X207997000Y-110087000I150000J0D01*
G01*
X208297000Y-110087000D01*
G75*
G02*
X208447000Y-110237000I0J-150000D01*
G01*
X208447000Y-111537000D01*
G75*
G02*
X208297000Y-111687000I-150000J0D01*
G01*
G37*
G36*
G01*
X207422000Y-112562000D02*
X206122000Y-112562000D01*
G75*
G02*
X205972000Y-112412000I0J150000D01*
G01*
X205972000Y-112112000D01*
G75*
G02*
X206122000Y-111962000I150000J0D01*
G01*
X207422000Y-111962000D01*
G75*
G02*
X207572000Y-112112000I0J-150000D01*
G01*
X207572000Y-112412000D01*
G75*
G02*
X207422000Y-112562000I-150000J0D01*
G01*
G37*
G36*
G01*
X207422000Y-113362000D02*
X206122000Y-113362000D01*
G75*
G02*
X205972000Y-113212000I0J150000D01*
G01*
X205972000Y-112912000D01*
G75*
G02*
X206122000Y-112762000I150000J0D01*
G01*
X207422000Y-112762000D01*
G75*
G02*
X207572000Y-112912000I0J-150000D01*
G01*
X207572000Y-113212000D01*
G75*
G02*
X207422000Y-113362000I-150000J0D01*
G01*
G37*
G36*
G01*
X207422000Y-114162000D02*
X206122000Y-114162000D01*
G75*
G02*
X205972000Y-114012000I0J150000D01*
G01*
X205972000Y-113712000D01*
G75*
G02*
X206122000Y-113562000I150000J0D01*
G01*
X207422000Y-113562000D01*
G75*
G02*
X207572000Y-113712000I0J-150000D01*
G01*
X207572000Y-114012000D01*
G75*
G02*
X207422000Y-114162000I-150000J0D01*
G01*
G37*
G36*
G01*
X207422000Y-114962000D02*
X206122000Y-114962000D01*
G75*
G02*
X205972000Y-114812000I0J150000D01*
G01*
X205972000Y-114512000D01*
G75*
G02*
X206122000Y-114362000I150000J0D01*
G01*
X207422000Y-114362000D01*
G75*
G02*
X207572000Y-114512000I0J-150000D01*
G01*
X207572000Y-114812000D01*
G75*
G02*
X207422000Y-114962000I-150000J0D01*
G01*
G37*
G36*
G01*
X207422000Y-115762000D02*
X206122000Y-115762000D01*
G75*
G02*
X205972000Y-115612000I0J150000D01*
G01*
X205972000Y-115312000D01*
G75*
G02*
X206122000Y-115162000I150000J0D01*
G01*
X207422000Y-115162000D01*
G75*
G02*
X207572000Y-115312000I0J-150000D01*
G01*
X207572000Y-115612000D01*
G75*
G02*
X207422000Y-115762000I-150000J0D01*
G01*
G37*
G36*
G01*
X207422000Y-116562000D02*
X206122000Y-116562000D01*
G75*
G02*
X205972000Y-116412000I0J150000D01*
G01*
X205972000Y-116112000D01*
G75*
G02*
X206122000Y-115962000I150000J0D01*
G01*
X207422000Y-115962000D01*
G75*
G02*
X207572000Y-116112000I0J-150000D01*
G01*
X207572000Y-116412000D01*
G75*
G02*
X207422000Y-116562000I-150000J0D01*
G01*
G37*
G36*
G01*
X207422000Y-117362000D02*
X206122000Y-117362000D01*
G75*
G02*
X205972000Y-117212000I0J150000D01*
G01*
X205972000Y-116912000D01*
G75*
G02*
X206122000Y-116762000I150000J0D01*
G01*
X207422000Y-116762000D01*
G75*
G02*
X207572000Y-116912000I0J-150000D01*
G01*
X207572000Y-117212000D01*
G75*
G02*
X207422000Y-117362000I-150000J0D01*
G01*
G37*
G36*
G01*
X207422000Y-118162000D02*
X206122000Y-118162000D01*
G75*
G02*
X205972000Y-118012000I0J150000D01*
G01*
X205972000Y-117712000D01*
G75*
G02*
X206122000Y-117562000I150000J0D01*
G01*
X207422000Y-117562000D01*
G75*
G02*
X207572000Y-117712000I0J-150000D01*
G01*
X207572000Y-118012000D01*
G75*
G02*
X207422000Y-118162000I-150000J0D01*
G01*
G37*
%TD*%
D29*
%TO.C,U2*%
X198815000Y-77695000D03*
X198815000Y-75995000D03*
X198815000Y-74295000D03*
X198815000Y-72595000D03*
X198815000Y-70895000D03*
D30*
X189665000Y-74295000D03*
%TD*%
D31*
%TO.C,U3*%
X193846000Y-92998000D03*
X193846000Y-92348000D03*
X193846000Y-91698000D03*
X193846000Y-91048000D03*
X193846000Y-90398000D03*
X193846000Y-89748000D03*
X193846000Y-89098000D03*
X193846000Y-88448000D03*
X193846000Y-87798000D03*
X193846000Y-87148000D03*
X193846000Y-86498000D03*
X193846000Y-85848000D03*
X193846000Y-85198000D03*
X193846000Y-84548000D03*
X186646000Y-84548000D03*
X186646000Y-85198000D03*
X186646000Y-85848000D03*
X186646000Y-86498000D03*
X186646000Y-87148000D03*
X186646000Y-87798000D03*
X186646000Y-88448000D03*
X186646000Y-89098000D03*
X186646000Y-89748000D03*
X186646000Y-90398000D03*
X186646000Y-91048000D03*
X186646000Y-91698000D03*
X186646000Y-92348000D03*
X186646000Y-92998000D03*
%TD*%
%TO.C,U4*%
G36*
G01*
X215620500Y-100664000D02*
X215620500Y-100414000D01*
G75*
G02*
X215745500Y-100289000I125000J0D01*
G01*
X217070500Y-100289000D01*
G75*
G02*
X217195500Y-100414000I0J-125000D01*
G01*
X217195500Y-100664000D01*
G75*
G02*
X217070500Y-100789000I-125000J0D01*
G01*
X215745500Y-100789000D01*
G75*
G02*
X215620500Y-100664000I0J125000D01*
G01*
G37*
G36*
G01*
X215620500Y-101314000D02*
X215620500Y-101064000D01*
G75*
G02*
X215745500Y-100939000I125000J0D01*
G01*
X217070500Y-100939000D01*
G75*
G02*
X217195500Y-101064000I0J-125000D01*
G01*
X217195500Y-101314000D01*
G75*
G02*
X217070500Y-101439000I-125000J0D01*
G01*
X215745500Y-101439000D01*
G75*
G02*
X215620500Y-101314000I0J125000D01*
G01*
G37*
G36*
G01*
X215620500Y-101964000D02*
X215620500Y-101714000D01*
G75*
G02*
X215745500Y-101589000I125000J0D01*
G01*
X217070500Y-101589000D01*
G75*
G02*
X217195500Y-101714000I0J-125000D01*
G01*
X217195500Y-101964000D01*
G75*
G02*
X217070500Y-102089000I-125000J0D01*
G01*
X215745500Y-102089000D01*
G75*
G02*
X215620500Y-101964000I0J125000D01*
G01*
G37*
G36*
G01*
X215620500Y-102614000D02*
X215620500Y-102364000D01*
G75*
G02*
X215745500Y-102239000I125000J0D01*
G01*
X217070500Y-102239000D01*
G75*
G02*
X217195500Y-102364000I0J-125000D01*
G01*
X217195500Y-102614000D01*
G75*
G02*
X217070500Y-102739000I-125000J0D01*
G01*
X215745500Y-102739000D01*
G75*
G02*
X215620500Y-102614000I0J125000D01*
G01*
G37*
G36*
G01*
X215620500Y-103264000D02*
X215620500Y-103014000D01*
G75*
G02*
X215745500Y-102889000I125000J0D01*
G01*
X217070500Y-102889000D01*
G75*
G02*
X217195500Y-103014000I0J-125000D01*
G01*
X217195500Y-103264000D01*
G75*
G02*
X217070500Y-103389000I-125000J0D01*
G01*
X215745500Y-103389000D01*
G75*
G02*
X215620500Y-103264000I0J125000D01*
G01*
G37*
G36*
G01*
X215620500Y-103914000D02*
X215620500Y-103664000D01*
G75*
G02*
X215745500Y-103539000I125000J0D01*
G01*
X217070500Y-103539000D01*
G75*
G02*
X217195500Y-103664000I0J-125000D01*
G01*
X217195500Y-103914000D01*
G75*
G02*
X217070500Y-104039000I-125000J0D01*
G01*
X215745500Y-104039000D01*
G75*
G02*
X215620500Y-103914000I0J125000D01*
G01*
G37*
G36*
G01*
X215620500Y-104564000D02*
X215620500Y-104314000D01*
G75*
G02*
X215745500Y-104189000I125000J0D01*
G01*
X217070500Y-104189000D01*
G75*
G02*
X217195500Y-104314000I0J-125000D01*
G01*
X217195500Y-104564000D01*
G75*
G02*
X217070500Y-104689000I-125000J0D01*
G01*
X215745500Y-104689000D01*
G75*
G02*
X215620500Y-104564000I0J125000D01*
G01*
G37*
G36*
G01*
X209895500Y-104564000D02*
X209895500Y-104314000D01*
G75*
G02*
X210020500Y-104189000I125000J0D01*
G01*
X211345500Y-104189000D01*
G75*
G02*
X211470500Y-104314000I0J-125000D01*
G01*
X211470500Y-104564000D01*
G75*
G02*
X211345500Y-104689000I-125000J0D01*
G01*
X210020500Y-104689000D01*
G75*
G02*
X209895500Y-104564000I0J125000D01*
G01*
G37*
G36*
G01*
X209895500Y-103914000D02*
X209895500Y-103664000D01*
G75*
G02*
X210020500Y-103539000I125000J0D01*
G01*
X211345500Y-103539000D01*
G75*
G02*
X211470500Y-103664000I0J-125000D01*
G01*
X211470500Y-103914000D01*
G75*
G02*
X211345500Y-104039000I-125000J0D01*
G01*
X210020500Y-104039000D01*
G75*
G02*
X209895500Y-103914000I0J125000D01*
G01*
G37*
G36*
G01*
X209895500Y-103264000D02*
X209895500Y-103014000D01*
G75*
G02*
X210020500Y-102889000I125000J0D01*
G01*
X211345500Y-102889000D01*
G75*
G02*
X211470500Y-103014000I0J-125000D01*
G01*
X211470500Y-103264000D01*
G75*
G02*
X211345500Y-103389000I-125000J0D01*
G01*
X210020500Y-103389000D01*
G75*
G02*
X209895500Y-103264000I0J125000D01*
G01*
G37*
G36*
G01*
X209895500Y-102614000D02*
X209895500Y-102364000D01*
G75*
G02*
X210020500Y-102239000I125000J0D01*
G01*
X211345500Y-102239000D01*
G75*
G02*
X211470500Y-102364000I0J-125000D01*
G01*
X211470500Y-102614000D01*
G75*
G02*
X211345500Y-102739000I-125000J0D01*
G01*
X210020500Y-102739000D01*
G75*
G02*
X209895500Y-102614000I0J125000D01*
G01*
G37*
G36*
G01*
X209895500Y-101964000D02*
X209895500Y-101714000D01*
G75*
G02*
X210020500Y-101589000I125000J0D01*
G01*
X211345500Y-101589000D01*
G75*
G02*
X211470500Y-101714000I0J-125000D01*
G01*
X211470500Y-101964000D01*
G75*
G02*
X211345500Y-102089000I-125000J0D01*
G01*
X210020500Y-102089000D01*
G75*
G02*
X209895500Y-101964000I0J125000D01*
G01*
G37*
G36*
G01*
X209895500Y-101314000D02*
X209895500Y-101064000D01*
G75*
G02*
X210020500Y-100939000I125000J0D01*
G01*
X211345500Y-100939000D01*
G75*
G02*
X211470500Y-101064000I0J-125000D01*
G01*
X211470500Y-101314000D01*
G75*
G02*
X211345500Y-101439000I-125000J0D01*
G01*
X210020500Y-101439000D01*
G75*
G02*
X209895500Y-101314000I0J125000D01*
G01*
G37*
G36*
G01*
X209895500Y-100664000D02*
X209895500Y-100414000D01*
G75*
G02*
X210020500Y-100289000I125000J0D01*
G01*
X211345500Y-100289000D01*
G75*
G02*
X211470500Y-100414000I0J-125000D01*
G01*
X211470500Y-100664000D01*
G75*
G02*
X211345500Y-100789000I-125000J0D01*
G01*
X210020500Y-100789000D01*
G75*
G02*
X209895500Y-100664000I0J125000D01*
G01*
G37*
%TD*%
%TO.C,U5*%
G36*
G01*
X209837000Y-93679000D02*
X209837000Y-93429000D01*
G75*
G02*
X209962000Y-93304000I125000J0D01*
G01*
X211287000Y-93304000D01*
G75*
G02*
X211412000Y-93429000I0J-125000D01*
G01*
X211412000Y-93679000D01*
G75*
G02*
X211287000Y-93804000I-125000J0D01*
G01*
X209962000Y-93804000D01*
G75*
G02*
X209837000Y-93679000I0J125000D01*
G01*
G37*
G36*
G01*
X209837000Y-94329000D02*
X209837000Y-94079000D01*
G75*
G02*
X209962000Y-93954000I125000J0D01*
G01*
X211287000Y-93954000D01*
G75*
G02*
X211412000Y-94079000I0J-125000D01*
G01*
X211412000Y-94329000D01*
G75*
G02*
X211287000Y-94454000I-125000J0D01*
G01*
X209962000Y-94454000D01*
G75*
G02*
X209837000Y-94329000I0J125000D01*
G01*
G37*
G36*
G01*
X209837000Y-94979000D02*
X209837000Y-94729000D01*
G75*
G02*
X209962000Y-94604000I125000J0D01*
G01*
X211287000Y-94604000D01*
G75*
G02*
X211412000Y-94729000I0J-125000D01*
G01*
X211412000Y-94979000D01*
G75*
G02*
X211287000Y-95104000I-125000J0D01*
G01*
X209962000Y-95104000D01*
G75*
G02*
X209837000Y-94979000I0J125000D01*
G01*
G37*
G36*
G01*
X209837000Y-95629000D02*
X209837000Y-95379000D01*
G75*
G02*
X209962000Y-95254000I125000J0D01*
G01*
X211287000Y-95254000D01*
G75*
G02*
X211412000Y-95379000I0J-125000D01*
G01*
X211412000Y-95629000D01*
G75*
G02*
X211287000Y-95754000I-125000J0D01*
G01*
X209962000Y-95754000D01*
G75*
G02*
X209837000Y-95629000I0J125000D01*
G01*
G37*
G36*
G01*
X209837000Y-96279000D02*
X209837000Y-96029000D01*
G75*
G02*
X209962000Y-95904000I125000J0D01*
G01*
X211287000Y-95904000D01*
G75*
G02*
X211412000Y-96029000I0J-125000D01*
G01*
X211412000Y-96279000D01*
G75*
G02*
X211287000Y-96404000I-125000J0D01*
G01*
X209962000Y-96404000D01*
G75*
G02*
X209837000Y-96279000I0J125000D01*
G01*
G37*
G36*
G01*
X209837000Y-96929000D02*
X209837000Y-96679000D01*
G75*
G02*
X209962000Y-96554000I125000J0D01*
G01*
X211287000Y-96554000D01*
G75*
G02*
X211412000Y-96679000I0J-125000D01*
G01*
X211412000Y-96929000D01*
G75*
G02*
X211287000Y-97054000I-125000J0D01*
G01*
X209962000Y-97054000D01*
G75*
G02*
X209837000Y-96929000I0J125000D01*
G01*
G37*
G36*
G01*
X209837000Y-97579000D02*
X209837000Y-97329000D01*
G75*
G02*
X209962000Y-97204000I125000J0D01*
G01*
X211287000Y-97204000D01*
G75*
G02*
X211412000Y-97329000I0J-125000D01*
G01*
X211412000Y-97579000D01*
G75*
G02*
X211287000Y-97704000I-125000J0D01*
G01*
X209962000Y-97704000D01*
G75*
G02*
X209837000Y-97579000I0J125000D01*
G01*
G37*
G36*
G01*
X215562000Y-97579000D02*
X215562000Y-97329000D01*
G75*
G02*
X215687000Y-97204000I125000J0D01*
G01*
X217012000Y-97204000D01*
G75*
G02*
X217137000Y-97329000I0J-125000D01*
G01*
X217137000Y-97579000D01*
G75*
G02*
X217012000Y-97704000I-125000J0D01*
G01*
X215687000Y-97704000D01*
G75*
G02*
X215562000Y-97579000I0J125000D01*
G01*
G37*
G36*
G01*
X215562000Y-96929000D02*
X215562000Y-96679000D01*
G75*
G02*
X215687000Y-96554000I125000J0D01*
G01*
X217012000Y-96554000D01*
G75*
G02*
X217137000Y-96679000I0J-125000D01*
G01*
X217137000Y-96929000D01*
G75*
G02*
X217012000Y-97054000I-125000J0D01*
G01*
X215687000Y-97054000D01*
G75*
G02*
X215562000Y-96929000I0J125000D01*
G01*
G37*
G36*
G01*
X215562000Y-96279000D02*
X215562000Y-96029000D01*
G75*
G02*
X215687000Y-95904000I125000J0D01*
G01*
X217012000Y-95904000D01*
G75*
G02*
X217137000Y-96029000I0J-125000D01*
G01*
X217137000Y-96279000D01*
G75*
G02*
X217012000Y-96404000I-125000J0D01*
G01*
X215687000Y-96404000D01*
G75*
G02*
X215562000Y-96279000I0J125000D01*
G01*
G37*
G36*
G01*
X215562000Y-95629000D02*
X215562000Y-95379000D01*
G75*
G02*
X215687000Y-95254000I125000J0D01*
G01*
X217012000Y-95254000D01*
G75*
G02*
X217137000Y-95379000I0J-125000D01*
G01*
X217137000Y-95629000D01*
G75*
G02*
X217012000Y-95754000I-125000J0D01*
G01*
X215687000Y-95754000D01*
G75*
G02*
X215562000Y-95629000I0J125000D01*
G01*
G37*
G36*
G01*
X215562000Y-94979000D02*
X215562000Y-94729000D01*
G75*
G02*
X215687000Y-94604000I125000J0D01*
G01*
X217012000Y-94604000D01*
G75*
G02*
X217137000Y-94729000I0J-125000D01*
G01*
X217137000Y-94979000D01*
G75*
G02*
X217012000Y-95104000I-125000J0D01*
G01*
X215687000Y-95104000D01*
G75*
G02*
X215562000Y-94979000I0J125000D01*
G01*
G37*
G36*
G01*
X215562000Y-94329000D02*
X215562000Y-94079000D01*
G75*
G02*
X215687000Y-93954000I125000J0D01*
G01*
X217012000Y-93954000D01*
G75*
G02*
X217137000Y-94079000I0J-125000D01*
G01*
X217137000Y-94329000D01*
G75*
G02*
X217012000Y-94454000I-125000J0D01*
G01*
X215687000Y-94454000D01*
G75*
G02*
X215562000Y-94329000I0J125000D01*
G01*
G37*
G36*
G01*
X215562000Y-93679000D02*
X215562000Y-93429000D01*
G75*
G02*
X215687000Y-93304000I125000J0D01*
G01*
X217012000Y-93304000D01*
G75*
G02*
X217137000Y-93429000I0J-125000D01*
G01*
X217137000Y-93679000D01*
G75*
G02*
X217012000Y-93804000I-125000J0D01*
G01*
X215687000Y-93804000D01*
G75*
G02*
X215562000Y-93679000I0J125000D01*
G01*
G37*
%TD*%
D15*
%TO.C,Q11*%
X215154000Y-86553000D03*
X215154000Y-88453000D03*
X217154000Y-87503000D03*
%TD*%
%TO.C,Q12*%
X220821000Y-89601000D03*
X218821000Y-90551000D03*
X218821000Y-88651000D03*
%TD*%
%TO.C,R33*%
G36*
G01*
X213994500Y-84100750D02*
X213994500Y-85063250D01*
G75*
G02*
X213725750Y-85332000I-268750J0D01*
G01*
X213188250Y-85332000D01*
G75*
G02*
X212919500Y-85063250I0J268750D01*
G01*
X212919500Y-84100750D01*
G75*
G02*
X213188250Y-83832000I268750J0D01*
G01*
X213725750Y-83832000D01*
G75*
G02*
X213994500Y-84100750I0J-268750D01*
G01*
G37*
G36*
G01*
X212119500Y-84100750D02*
X212119500Y-85063250D01*
G75*
G02*
X211850750Y-85332000I-268750J0D01*
G01*
X211313250Y-85332000D01*
G75*
G02*
X211044500Y-85063250I0J268750D01*
G01*
X211044500Y-84100750D01*
G75*
G02*
X211313250Y-83832000I268750J0D01*
G01*
X211850750Y-83832000D01*
G75*
G02*
X212119500Y-84100750I0J-268750D01*
G01*
G37*
%TD*%
%TO.C,R34*%
G36*
G01*
X212751750Y-87854500D02*
X213714250Y-87854500D01*
G75*
G02*
X213983000Y-88123250I0J-268750D01*
G01*
X213983000Y-88660750D01*
G75*
G02*
X213714250Y-88929500I-268750J0D01*
G01*
X212751750Y-88929500D01*
G75*
G02*
X212483000Y-88660750I0J268750D01*
G01*
X212483000Y-88123250D01*
G75*
G02*
X212751750Y-87854500I268750J0D01*
G01*
G37*
G36*
G01*
X212751750Y-85979500D02*
X213714250Y-85979500D01*
G75*
G02*
X213983000Y-86248250I0J-268750D01*
G01*
X213983000Y-86785750D01*
G75*
G02*
X213714250Y-87054500I-268750J0D01*
G01*
X212751750Y-87054500D01*
G75*
G02*
X212483000Y-86785750I0J268750D01*
G01*
X212483000Y-86248250D01*
G75*
G02*
X212751750Y-85979500I268750J0D01*
G01*
G37*
%TD*%
%TO.C,R35*%
G36*
G01*
X214630500Y-90905250D02*
X214630500Y-89942750D01*
G75*
G02*
X214899250Y-89674000I268750J0D01*
G01*
X215436750Y-89674000D01*
G75*
G02*
X215705500Y-89942750I0J-268750D01*
G01*
X215705500Y-90905250D01*
G75*
G02*
X215436750Y-91174000I-268750J0D01*
G01*
X214899250Y-91174000D01*
G75*
G02*
X214630500Y-90905250I0J268750D01*
G01*
G37*
G36*
G01*
X216505500Y-90905250D02*
X216505500Y-89942750D01*
G75*
G02*
X216774250Y-89674000I268750J0D01*
G01*
X217311750Y-89674000D01*
G75*
G02*
X217580500Y-89942750I0J-268750D01*
G01*
X217580500Y-90905250D01*
G75*
G02*
X217311750Y-91174000I-268750J0D01*
G01*
X216774250Y-91174000D01*
G75*
G02*
X216505500Y-90905250I0J268750D01*
G01*
G37*
%TD*%
%TO.C,C14*%
G36*
G01*
X208888250Y-100994500D02*
X207925750Y-100994500D01*
G75*
G02*
X207657000Y-100725750I0J268750D01*
G01*
X207657000Y-100188250D01*
G75*
G02*
X207925750Y-99919500I268750J0D01*
G01*
X208888250Y-99919500D01*
G75*
G02*
X209157000Y-100188250I0J-268750D01*
G01*
X209157000Y-100725750D01*
G75*
G02*
X208888250Y-100994500I-268750J0D01*
G01*
G37*
G36*
G01*
X208888250Y-99119500D02*
X207925750Y-99119500D01*
G75*
G02*
X207657000Y-98850750I0J268750D01*
G01*
X207657000Y-98313250D01*
G75*
G02*
X207925750Y-98044500I268750J0D01*
G01*
X208888250Y-98044500D01*
G75*
G02*
X209157000Y-98313250I0J-268750D01*
G01*
X209157000Y-98850750D01*
G75*
G02*
X208888250Y-99119500I-268750J0D01*
G01*
G37*
%TD*%
%TO.C,C15*%
G36*
G01*
X208888250Y-92261500D02*
X207925750Y-92261500D01*
G75*
G02*
X207657000Y-91992750I0J268750D01*
G01*
X207657000Y-91455250D01*
G75*
G02*
X207925750Y-91186500I268750J0D01*
G01*
X208888250Y-91186500D01*
G75*
G02*
X209157000Y-91455250I0J-268750D01*
G01*
X209157000Y-91992750D01*
G75*
G02*
X208888250Y-92261500I-268750J0D01*
G01*
G37*
G36*
G01*
X208888250Y-94136500D02*
X207925750Y-94136500D01*
G75*
G02*
X207657000Y-93867750I0J268750D01*
G01*
X207657000Y-93330250D01*
G75*
G02*
X207925750Y-93061500I268750J0D01*
G01*
X208888250Y-93061500D01*
G75*
G02*
X209157000Y-93330250I0J-268750D01*
G01*
X209157000Y-93867750D01*
G75*
G02*
X208888250Y-94136500I-268750J0D01*
G01*
G37*
%TD*%
%TO.C,C16*%
G36*
G01*
X218085750Y-101873000D02*
X219048250Y-101873000D01*
G75*
G02*
X219317000Y-102141750I0J-268750D01*
G01*
X219317000Y-102679250D01*
G75*
G02*
X219048250Y-102948000I-268750J0D01*
G01*
X218085750Y-102948000D01*
G75*
G02*
X217817000Y-102679250I0J268750D01*
G01*
X217817000Y-102141750D01*
G75*
G02*
X218085750Y-101873000I268750J0D01*
G01*
G37*
G36*
G01*
X218085750Y-99998000D02*
X219048250Y-99998000D01*
G75*
G02*
X219317000Y-100266750I0J-268750D01*
G01*
X219317000Y-100804250D01*
G75*
G02*
X219048250Y-101073000I-268750J0D01*
G01*
X218085750Y-101073000D01*
G75*
G02*
X217817000Y-100804250I0J268750D01*
G01*
X217817000Y-100266750D01*
G75*
G02*
X218085750Y-99998000I268750J0D01*
G01*
G37*
%TD*%
%TO.C,C17*%
G36*
G01*
X218085750Y-93013000D02*
X219048250Y-93013000D01*
G75*
G02*
X219317000Y-93281750I0J-268750D01*
G01*
X219317000Y-93819250D01*
G75*
G02*
X219048250Y-94088000I-268750J0D01*
G01*
X218085750Y-94088000D01*
G75*
G02*
X217817000Y-93819250I0J268750D01*
G01*
X217817000Y-93281750D01*
G75*
G02*
X218085750Y-93013000I268750J0D01*
G01*
G37*
G36*
G01*
X218085750Y-94888000D02*
X219048250Y-94888000D01*
G75*
G02*
X219317000Y-95156750I0J-268750D01*
G01*
X219317000Y-95694250D01*
G75*
G02*
X219048250Y-95963000I-268750J0D01*
G01*
X218085750Y-95963000D01*
G75*
G02*
X217817000Y-95694250I0J268750D01*
G01*
X217817000Y-95156750D01*
G75*
G02*
X218085750Y-94888000I268750J0D01*
G01*
G37*
%TD*%
%TO.C,R38*%
G36*
G01*
X221263500Y-83465750D02*
X221263500Y-84428250D01*
G75*
G02*
X220994750Y-84697000I-268750J0D01*
G01*
X220457250Y-84697000D01*
G75*
G02*
X220188500Y-84428250I0J268750D01*
G01*
X220188500Y-83465750D01*
G75*
G02*
X220457250Y-83197000I268750J0D01*
G01*
X220994750Y-83197000D01*
G75*
G02*
X221263500Y-83465750I0J-268750D01*
G01*
G37*
G36*
G01*
X219388500Y-83465750D02*
X219388500Y-84428250D01*
G75*
G02*
X219119750Y-84697000I-268750J0D01*
G01*
X218582250Y-84697000D01*
G75*
G02*
X218313500Y-84428250I0J268750D01*
G01*
X218313500Y-83465750D01*
G75*
G02*
X218582250Y-83197000I268750J0D01*
G01*
X219119750Y-83197000D01*
G75*
G02*
X219388500Y-83465750I0J-268750D01*
G01*
G37*
%TD*%
M02*
