M48
; DRILL file {KiCad (5.1.6)-1} date 04/08/21 21:05:17
; FORMAT={-:-/ absolute / inch / decimal}
; #@! TF.CreationDate,2021-04-08T21:05:17-07:00
; #@! TF.GenerationSoftware,Kicad,Pcbnew,(5.1.6)-1
; #@! TF.FileFunction,Plated,1,2,PTH
FMAT,2
INCH
T1C0.0118
T2C0.0394
T3C0.0433
T4C0.0512
%
G90
G05
T1
X6.895Y-4.35
X6.895Y-4.64
X6.9066Y-2.2163
X6.9066Y-2.7333
X6.9066Y-3.2198
X6.9066Y-3.6456
X6.9066Y-4.0713
X6.9066Y-4.497
X6.9066Y-4.9228
X6.91Y-2.685
X6.91Y-2.835
X6.91Y-3.0
X6.91Y-3.155
X6.91Y-3.295
X6.91Y-3.505
X6.915Y-3.725
X6.955Y-4.915
X6.995Y-3.945
X7.0283Y-5.2269
X7.0891Y-2.4596
X7.145Y-4.245
X7.145Y-4.625
X7.1499Y-2.9157
X7.1499Y-4.3146
X7.1499Y-4.7403
X7.1803Y-3.4935
X7.205Y-4.78
X7.235Y-3.51
X7.2715Y-5.0444
X7.275Y-3.35
X7.275Y-4.44
X7.3019Y-2.2467
X7.3019Y-4.0105
X7.3112Y-3.9356
X7.345Y-3.215
X7.345Y-4.185
X7.3628Y-2.6116
X7.3932Y-3.2502
X7.395Y-4.255
X7.405Y-3.995
X7.415Y-3.335
X7.44Y-3.205
X7.44Y-4.375
X7.4844Y-3.6456
X7.495Y-4.595
X7.495Y-4.74
X7.51Y-3.32
X7.51Y-3.925
X7.5148Y-4.3754
X7.5148Y-4.8011
X7.5148Y-5.2269
X7.515Y-3.465
X7.515Y-3.585
X7.525Y-4.61
X7.54Y-4.025
X7.56Y-3.56
X7.565Y-3.66
X7.6Y-4.435
X7.606Y-2.4292
X7.625Y-4.58
X7.655Y-4.03
X7.6669Y-3.9497
X7.675Y-4.58
X7.6969Y-2.8937
X7.6973Y-3.0374
X7.7277Y-3.4327
X7.7277Y-5.014
X7.735Y-4.865
X7.76Y-4.925
X7.785Y-3.555
X7.7885Y-2.6725
X7.815Y-3.375
X7.8189Y-2.2163
X7.8189Y-4.2233
X7.82Y-4.775
X7.83Y-3.25
X7.84Y-4.545
X7.84Y-4.635
X7.8493Y-4.7099
X7.85Y-2.685
X7.88Y-4.08
X7.9405Y-3.2198
X7.9405Y-3.6456
X7.9405Y-5.2269
X7.96Y-2.955
X7.96Y-3.1
X7.965Y-2.685
X7.98Y-4.6
X7.99Y-3.965
X8.0014Y-2.4596
X8.02Y-3.905
X8.035Y-4.465
X8.05Y-3.76
X8.0622Y-4.9228
X8.065Y-4.43
X8.07Y-4.4838
X8.085Y-4.645
X8.0926Y-2.9461
X8.0926Y-4.0713
X8.1Y-4.01
X8.105Y-4.245
X8.11Y-3.755
X8.11Y-3.81
X8.145Y-4.04
X8.1838Y-3.4023
X8.1938Y-4.155
X8.195Y-4.305
X8.2Y-4.505
X8.2142Y-2.2467
X8.215Y-4.79
X8.22Y-3.815
X8.22Y-4.0
X8.22Y-4.635
X8.225Y-2.685
X8.225Y-4.46
X8.23Y-4.595
X8.24Y-4.31
X8.245Y-4.745
X8.255Y-3.2
X8.255Y-3.915
X8.265Y-3.87
X8.275Y-4.56
X8.275Y-2.6725
X8.275Y-5.1356
X8.325Y-4.745
X8.33Y-4.53
X8.3359Y-3.1286
X8.3359Y-4.5883
X8.3388Y-3.985
X8.345Y-3.785
X8.346Y-3.7546
X8.3488Y-3.715
X8.35Y-4.445
X8.36Y-4.0612
X8.3663Y-3.6456
X8.3812Y-4.03
X8.385Y-4.63
X8.39Y-3.03
X8.405Y-4.42
X8.435Y-4.115
X8.44Y-4.755
X8.445Y-4.26
X8.455Y-2.685
X8.4575Y-3.9801
X8.4575Y-4.8924
X8.46Y-4.375
X8.485Y-3.13
X8.485Y-4.345
X8.5183Y-2.3684
X8.5183Y-2.8853
X8.54Y-3.27
X8.5487Y-3.3415
X8.56Y-4.445
X8.575Y-4.475
X8.58Y-3.815
X8.6095Y-5.2269
X8.615Y-4.575
X8.618Y-2.86
X8.64Y-4.2233
X8.64Y-3.438
X8.642Y-3.13
X8.694Y-3.57
X8.705Y-3.74
X8.72Y-4.105
X8.7312Y-2.6725
X8.74Y-4.505
X8.742Y-3.752
X8.744Y-2.464
X8.7616Y-3.0678
X8.7616Y-3.5543
X8.7616Y-4.7099
X8.7726Y-4.5755
X8.815Y-4.58
X8.8224Y-2.2467
X8.824Y-2.492
X8.826Y-3.146
X8.8462Y-3.435
X8.8832Y-3.9192
X8.8832Y-5.0748
X8.904Y-2.516
X8.93Y-4.61
X8.9745Y-2.8549
X8.9782Y-3.1918
X8.9788Y-3.725
X8.998Y-2.55
X9.006Y-3.78
X9.026Y-4.092
X9.0353Y-2.4596
X9.0657Y-4.8315
X9.132Y-3.468
X9.1376Y-4.3974
X9.1426Y-4.5474
X9.1476Y-4.2474
X9.1569Y-5.2269
X9.176Y-4.096
X9.1873Y-3.0678
X9.246Y-3.234
X9.2481Y-2.6725
X9.252Y-3.502
X9.26Y-3.766
X9.272Y-3.596
X9.2786Y-4.1321
X9.2786Y-4.5883
X9.28Y-3.714
X9.298Y-2.482
X9.305Y-3.74
X9.309Y-3.4935
X9.31Y-4.04
X9.32Y-3.152
X9.32Y-3.545
X9.3394Y-4.9836
X9.345Y-3.415
X9.378Y-2.484
X9.41Y-3.43
X9.412Y-4.244
X9.461Y-2.8853
X9.474Y-2.456
X9.4914Y-2.338
X9.502Y-3.936
X9.5522Y-4.7403
X9.5522Y-5.1964
X9.558Y-3.158
X9.596Y-2.618
X9.6108Y-4.34
X9.62Y-3.68
X9.622Y-3.934
X9.6235Y-3.3475
X9.626Y-2.582
X9.628Y-4.428
X9.656Y-2.216
X9.658Y-4.396
X9.6712Y-4.0218
X9.6772Y-2.291
X9.6892Y-3.7879
X9.7Y-2.27
X9.702Y-4.492
X9.704Y-4.552
X9.744Y-2.238
X9.7955Y-2.2163
X9.7955Y-3.676
X9.7955Y-4.1017
X9.7955Y-4.5274
X9.802Y-3.49
X9.804Y-2.456
X9.8563Y-2.5812
X9.8563Y-3.007
X9.9172Y-5.1052
X9.932Y-4.468
X9.936Y-4.27
X9.942Y-4.076
X9.9476Y-3.4023
X9.988Y-3.948
X10.0Y-3.532
X10.002Y-2.458
X10.0084Y-3.8888
X10.076Y-3.59
X10.078Y-2.444
X10.0996Y-2.338
X10.106Y-3.63
X10.112Y-2.466
X10.1604Y-2.7029
X10.1604Y-3.1286
X10.1604Y-3.6152
X10.2212Y-5.2269
X10.3125Y-4.2842
X10.3125Y-4.8619
X10.3733Y-2.49
X10.4037Y-2.9461
X10.4037Y-3.3719
X10.4037Y-3.7976
X10.4645Y-4.5578
T2
X9.13Y-4.01
X9.23Y-4.01
X7.845Y-3.715
X7.845Y-3.815
X7.845Y-3.915
X7.945Y-3.715
X7.945Y-3.815
X7.945Y-3.915
X9.13Y-3.845
X9.23Y-3.845
X7.44Y-4.465
X7.44Y-4.565
X7.44Y-4.665
X9.455Y-3.29
X9.455Y-3.39
X9.455Y-3.49
X9.455Y-3.59
X9.455Y-3.69
X9.455Y-3.79
X9.455Y-3.89
X9.455Y-3.99
X9.455Y-4.09
X9.455Y-4.19
X9.455Y-4.29
X9.455Y-4.39
X9.455Y-4.49
X9.555Y-3.29
X9.555Y-3.39
X9.555Y-3.49
X9.555Y-3.59
X9.555Y-3.69
X9.555Y-3.79
X9.555Y-3.89
X9.555Y-3.99
X9.555Y-4.09
X9.555Y-4.19
X9.555Y-4.29
X9.555Y-4.39
X9.555Y-4.49
T3
X7.02Y-4.375
X7.02Y-4.475
X7.02Y-4.575
X7.02Y-4.675
X7.02Y-4.775
X7.02Y-4.875
T4
X10.335Y-2.855
X10.335Y-3.0519
X10.315Y-3.377
X10.315Y-3.5739
X10.315Y-3.7707
X10.315Y-3.9676
X10.315Y-4.1644
X10.315Y-4.3613
X10.315Y-4.5581
X10.315Y-4.755
X9.2139Y-2.35
X9.4107Y-2.35
X9.6076Y-2.35
X9.8044Y-2.35
X10.0013Y-2.35
X10.1981Y-2.35
X10.395Y-2.35
X8.7953Y-5.0866
X8.9921Y-5.0866
X9.189Y-5.0866
X9.3858Y-5.0866
X7.2383Y-2.35
X7.4352Y-2.35
X7.632Y-2.35
X7.8289Y-2.35
X8.0257Y-2.35
X8.2226Y-2.35
X8.4194Y-2.35
X8.6163Y-2.35
X8.8131Y-2.35
X9.01Y-2.35
X9.6142Y-5.0866
X9.811Y-5.0866
X10.0079Y-5.0866
X10.2047Y-5.0866
X10.4016Y-5.0866
T0
M30
