%TF.GenerationSoftware,KiCad,Pcbnew,(5.1.12)-1*%
%TF.CreationDate,2022-10-15T21:36:51-07:00*%
%TF.ProjectId,DJetECUTester,444a6574-4543-4555-9465-737465722e6b,rev?*%
%TF.SameCoordinates,Original*%
%TF.FileFunction,Paste,Top*%
%TF.FilePolarity,Positive*%
%FSLAX46Y46*%
G04 Gerber Fmt 4.6, Leading zero omitted, Abs format (unit mm)*
G04 Created by KiCad (PCBNEW (5.1.12)-1) date 2022-10-15 21:36:51*
%MOMM*%
%LPD*%
G01*
G04 APERTURE LIST*
%ADD10R,0.800000X0.900000*%
%ADD11R,0.900000X0.800000*%
%ADD12R,1.500000X2.600000*%
%ADD13R,3.000000X5.500000*%
%ADD14R,1.220000X0.910000*%
%ADD15R,0.910000X1.220000*%
%ADD16R,1.200000X1.400000*%
%ADD17R,1.800000X2.500000*%
%ADD18R,2.500000X2.000000*%
%ADD19R,2.500000X0.500000*%
%ADD20R,1.800000X5.700000*%
%ADD21R,4.600000X1.100000*%
%ADD22R,4.550000X5.250000*%
%ADD23R,1.750000X0.450000*%
G04 APERTURE END LIST*
%TO.C,R60*%
G36*
G01*
X254374999Y-82562500D02*
X255625001Y-82562500D01*
G75*
G02*
X255875000Y-82812499I0J-249999D01*
G01*
X255875000Y-83437501D01*
G75*
G02*
X255625001Y-83687500I-249999J0D01*
G01*
X254374999Y-83687500D01*
G75*
G02*
X254125000Y-83437501I0J249999D01*
G01*
X254125000Y-82812499D01*
G75*
G02*
X254374999Y-82562500I249999J0D01*
G01*
G37*
G36*
G01*
X254374999Y-79637500D02*
X255625001Y-79637500D01*
G75*
G02*
X255875000Y-79887499I0J-249999D01*
G01*
X255875000Y-80512501D01*
G75*
G02*
X255625001Y-80762500I-249999J0D01*
G01*
X254374999Y-80762500D01*
G75*
G02*
X254125000Y-80512501I0J249999D01*
G01*
X254125000Y-79887499D01*
G75*
G02*
X254374999Y-79637500I249999J0D01*
G01*
G37*
%TD*%
%TO.C,R59*%
G36*
G01*
X248549999Y-77887500D02*
X249450001Y-77887500D01*
G75*
G02*
X249700000Y-78137499I0J-249999D01*
G01*
X249700000Y-78662501D01*
G75*
G02*
X249450001Y-78912500I-249999J0D01*
G01*
X248549999Y-78912500D01*
G75*
G02*
X248300000Y-78662501I0J249999D01*
G01*
X248300000Y-78137499D01*
G75*
G02*
X248549999Y-77887500I249999J0D01*
G01*
G37*
G36*
G01*
X248549999Y-76062500D02*
X249450001Y-76062500D01*
G75*
G02*
X249700000Y-76312499I0J-249999D01*
G01*
X249700000Y-76837501D01*
G75*
G02*
X249450001Y-77087500I-249999J0D01*
G01*
X248549999Y-77087500D01*
G75*
G02*
X248300000Y-76837501I0J249999D01*
G01*
X248300000Y-76312499D01*
G75*
G02*
X248549999Y-76062500I249999J0D01*
G01*
G37*
%TD*%
%TO.C,R58*%
G36*
G01*
X249512500Y-73949999D02*
X249512500Y-74850001D01*
G75*
G02*
X249262501Y-75100000I-249999J0D01*
G01*
X248737499Y-75100000D01*
G75*
G02*
X248487500Y-74850001I0J249999D01*
G01*
X248487500Y-73949999D01*
G75*
G02*
X248737499Y-73700000I249999J0D01*
G01*
X249262501Y-73700000D01*
G75*
G02*
X249512500Y-73949999I0J-249999D01*
G01*
G37*
G36*
G01*
X251337500Y-73949999D02*
X251337500Y-74850001D01*
G75*
G02*
X251087501Y-75100000I-249999J0D01*
G01*
X250562499Y-75100000D01*
G75*
G02*
X250312500Y-74850001I0J249999D01*
G01*
X250312500Y-73949999D01*
G75*
G02*
X250562499Y-73700000I249999J0D01*
G01*
X251087501Y-73700000D01*
G75*
G02*
X251337500Y-73949999I0J-249999D01*
G01*
G37*
%TD*%
%TO.C,R52*%
G36*
G01*
X253250001Y-80712500D02*
X252349999Y-80712500D01*
G75*
G02*
X252100000Y-80462501I0J249999D01*
G01*
X252100000Y-79937499D01*
G75*
G02*
X252349999Y-79687500I249999J0D01*
G01*
X253250001Y-79687500D01*
G75*
G02*
X253500000Y-79937499I0J-249999D01*
G01*
X253500000Y-80462501D01*
G75*
G02*
X253250001Y-80712500I-249999J0D01*
G01*
G37*
G36*
G01*
X253250001Y-82537500D02*
X252349999Y-82537500D01*
G75*
G02*
X252100000Y-82287501I0J249999D01*
G01*
X252100000Y-81762499D01*
G75*
G02*
X252349999Y-81512500I249999J0D01*
G01*
X253250001Y-81512500D01*
G75*
G02*
X253500000Y-81762499I0J-249999D01*
G01*
X253500000Y-82287501D01*
G75*
G02*
X253250001Y-82537500I-249999J0D01*
G01*
G37*
%TD*%
%TO.C,R48*%
G36*
G01*
X252349999Y-85200000D02*
X253250001Y-85200000D01*
G75*
G02*
X253500000Y-85449999I0J-249999D01*
G01*
X253500000Y-85975001D01*
G75*
G02*
X253250001Y-86225000I-249999J0D01*
G01*
X252349999Y-86225000D01*
G75*
G02*
X252100000Y-85975001I0J249999D01*
G01*
X252100000Y-85449999D01*
G75*
G02*
X252349999Y-85200000I249999J0D01*
G01*
G37*
G36*
G01*
X252349999Y-83375000D02*
X253250001Y-83375000D01*
G75*
G02*
X253500000Y-83624999I0J-249999D01*
G01*
X253500000Y-84150001D01*
G75*
G02*
X253250001Y-84400000I-249999J0D01*
G01*
X252349999Y-84400000D01*
G75*
G02*
X252100000Y-84150001I0J249999D01*
G01*
X252100000Y-83624999D01*
G75*
G02*
X252349999Y-83375000I249999J0D01*
G01*
G37*
%TD*%
D10*
%TO.C,Q14*%
X255050000Y-78200000D03*
X254100000Y-76200000D03*
X256000000Y-76200000D03*
%TD*%
D11*
%TO.C,Q13*%
X248800000Y-81050000D03*
X250800000Y-80100000D03*
X250800000Y-82000000D03*
%TD*%
%TO.C,R57*%
G36*
G01*
X330500000Y-66974999D02*
X330500000Y-68225001D01*
G75*
G02*
X330250001Y-68475000I-249999J0D01*
G01*
X329624999Y-68475000D01*
G75*
G02*
X329375000Y-68225001I0J249999D01*
G01*
X329375000Y-66974999D01*
G75*
G02*
X329624999Y-66725000I249999J0D01*
G01*
X330250001Y-66725000D01*
G75*
G02*
X330500000Y-66974999I0J-249999D01*
G01*
G37*
G36*
G01*
X333425000Y-66974999D02*
X333425000Y-68225001D01*
G75*
G02*
X333175001Y-68475000I-249999J0D01*
G01*
X332549999Y-68475000D01*
G75*
G02*
X332300000Y-68225001I0J249999D01*
G01*
X332300000Y-66974999D01*
G75*
G02*
X332549999Y-66725000I249999J0D01*
G01*
X333175001Y-66725000D01*
G75*
G02*
X333425000Y-66974999I0J-249999D01*
G01*
G37*
%TD*%
%TO.C,R56*%
G36*
G01*
X253450001Y-101000000D02*
X252549999Y-101000000D01*
G75*
G02*
X252300000Y-100750001I0J249999D01*
G01*
X252300000Y-100224999D01*
G75*
G02*
X252549999Y-99975000I249999J0D01*
G01*
X253450001Y-99975000D01*
G75*
G02*
X253700000Y-100224999I0J-249999D01*
G01*
X253700000Y-100750001D01*
G75*
G02*
X253450001Y-101000000I-249999J0D01*
G01*
G37*
G36*
G01*
X253450001Y-102825000D02*
X252549999Y-102825000D01*
G75*
G02*
X252300000Y-102575001I0J249999D01*
G01*
X252300000Y-102049999D01*
G75*
G02*
X252549999Y-101800000I249999J0D01*
G01*
X253450001Y-101800000D01*
G75*
G02*
X253700000Y-102049999I0J-249999D01*
G01*
X253700000Y-102575001D01*
G75*
G02*
X253450001Y-102825000I-249999J0D01*
G01*
G37*
%TD*%
%TO.C,R55*%
G36*
G01*
X251250001Y-101000000D02*
X250349999Y-101000000D01*
G75*
G02*
X250100000Y-100750001I0J249999D01*
G01*
X250100000Y-100224999D01*
G75*
G02*
X250349999Y-99975000I249999J0D01*
G01*
X251250001Y-99975000D01*
G75*
G02*
X251500000Y-100224999I0J-249999D01*
G01*
X251500000Y-100750001D01*
G75*
G02*
X251250001Y-101000000I-249999J0D01*
G01*
G37*
G36*
G01*
X251250001Y-102825000D02*
X250349999Y-102825000D01*
G75*
G02*
X250100000Y-102575001I0J249999D01*
G01*
X250100000Y-102049999D01*
G75*
G02*
X250349999Y-101800000I249999J0D01*
G01*
X251250001Y-101800000D01*
G75*
G02*
X251500000Y-102049999I0J-249999D01*
G01*
X251500000Y-102575001D01*
G75*
G02*
X251250001Y-102825000I-249999J0D01*
G01*
G37*
%TD*%
%TO.C,R54*%
G36*
G01*
X331249999Y-73987500D02*
X332150001Y-73987500D01*
G75*
G02*
X332400000Y-74237499I0J-249999D01*
G01*
X332400000Y-74762501D01*
G75*
G02*
X332150001Y-75012500I-249999J0D01*
G01*
X331249999Y-75012500D01*
G75*
G02*
X331000000Y-74762501I0J249999D01*
G01*
X331000000Y-74237499D01*
G75*
G02*
X331249999Y-73987500I249999J0D01*
G01*
G37*
G36*
G01*
X331249999Y-72162500D02*
X332150001Y-72162500D01*
G75*
G02*
X332400000Y-72412499I0J-249999D01*
G01*
X332400000Y-72937501D01*
G75*
G02*
X332150001Y-73187500I-249999J0D01*
G01*
X331249999Y-73187500D01*
G75*
G02*
X331000000Y-72937501I0J249999D01*
G01*
X331000000Y-72412499D01*
G75*
G02*
X331249999Y-72162500I249999J0D01*
G01*
G37*
%TD*%
D12*
%TO.C,D11*%
X326600000Y-73500000D03*
X329600000Y-73500000D03*
%TD*%
D13*
%TO.C,L17*%
X277500000Y-116000000D03*
X268000000Y-116000000D03*
%TD*%
%TO.C,L16*%
X291500000Y-116000000D03*
X282000000Y-116000000D03*
%TD*%
%TO.C,L15*%
X306000000Y-116000000D03*
X296500000Y-116000000D03*
%TD*%
%TO.C,L14*%
X320000000Y-116000000D03*
X310500000Y-116000000D03*
%TD*%
%TO.C,L13*%
X277500000Y-129500000D03*
X268000000Y-129500000D03*
%TD*%
%TO.C,L12*%
X291500000Y-129500000D03*
X282000000Y-129500000D03*
%TD*%
%TO.C,L11*%
X306000000Y-129500000D03*
X296500000Y-129500000D03*
%TD*%
%TO.C,L10*%
X320000000Y-129500000D03*
X310500000Y-129500000D03*
%TD*%
%TO.C,L9*%
X277500000Y-102500000D03*
X268000000Y-102500000D03*
%TD*%
%TO.C,L8*%
X291500000Y-102500000D03*
X282000000Y-102500000D03*
%TD*%
%TO.C,L7*%
X306000000Y-102500000D03*
X296500000Y-102500000D03*
%TD*%
%TO.C,L6*%
X320000000Y-102500000D03*
X310500000Y-102500000D03*
%TD*%
%TO.C,L5*%
X277500000Y-89000000D03*
X268000000Y-89000000D03*
%TD*%
%TO.C,L4*%
X291500000Y-89000000D03*
X282000000Y-89000000D03*
%TD*%
%TO.C,L3*%
X306000000Y-89000000D03*
X296500000Y-89000000D03*
%TD*%
%TO.C,L2*%
X320000000Y-89000000D03*
X310500000Y-89000000D03*
%TD*%
%TO.C,U7*%
G36*
G01*
X212950000Y-82675000D02*
X212750000Y-82675000D01*
G75*
G02*
X212650000Y-82575000I0J100000D01*
G01*
X212650000Y-81300000D01*
G75*
G02*
X212750000Y-81200000I100000J0D01*
G01*
X212950000Y-81200000D01*
G75*
G02*
X213050000Y-81300000I0J-100000D01*
G01*
X213050000Y-82575000D01*
G75*
G02*
X212950000Y-82675000I-100000J0D01*
G01*
G37*
G36*
G01*
X213600000Y-82675000D02*
X213400000Y-82675000D01*
G75*
G02*
X213300000Y-82575000I0J100000D01*
G01*
X213300000Y-81300000D01*
G75*
G02*
X213400000Y-81200000I100000J0D01*
G01*
X213600000Y-81200000D01*
G75*
G02*
X213700000Y-81300000I0J-100000D01*
G01*
X213700000Y-82575000D01*
G75*
G02*
X213600000Y-82675000I-100000J0D01*
G01*
G37*
G36*
G01*
X214250000Y-82675000D02*
X214050000Y-82675000D01*
G75*
G02*
X213950000Y-82575000I0J100000D01*
G01*
X213950000Y-81300000D01*
G75*
G02*
X214050000Y-81200000I100000J0D01*
G01*
X214250000Y-81200000D01*
G75*
G02*
X214350000Y-81300000I0J-100000D01*
G01*
X214350000Y-82575000D01*
G75*
G02*
X214250000Y-82675000I-100000J0D01*
G01*
G37*
G36*
G01*
X214900000Y-82675000D02*
X214700000Y-82675000D01*
G75*
G02*
X214600000Y-82575000I0J100000D01*
G01*
X214600000Y-81300000D01*
G75*
G02*
X214700000Y-81200000I100000J0D01*
G01*
X214900000Y-81200000D01*
G75*
G02*
X215000000Y-81300000I0J-100000D01*
G01*
X215000000Y-82575000D01*
G75*
G02*
X214900000Y-82675000I-100000J0D01*
G01*
G37*
G36*
G01*
X215550000Y-82675000D02*
X215350000Y-82675000D01*
G75*
G02*
X215250000Y-82575000I0J100000D01*
G01*
X215250000Y-81300000D01*
G75*
G02*
X215350000Y-81200000I100000J0D01*
G01*
X215550000Y-81200000D01*
G75*
G02*
X215650000Y-81300000I0J-100000D01*
G01*
X215650000Y-82575000D01*
G75*
G02*
X215550000Y-82675000I-100000J0D01*
G01*
G37*
G36*
G01*
X216200000Y-82675000D02*
X216000000Y-82675000D01*
G75*
G02*
X215900000Y-82575000I0J100000D01*
G01*
X215900000Y-81300000D01*
G75*
G02*
X216000000Y-81200000I100000J0D01*
G01*
X216200000Y-81200000D01*
G75*
G02*
X216300000Y-81300000I0J-100000D01*
G01*
X216300000Y-82575000D01*
G75*
G02*
X216200000Y-82675000I-100000J0D01*
G01*
G37*
G36*
G01*
X216850000Y-82675000D02*
X216650000Y-82675000D01*
G75*
G02*
X216550000Y-82575000I0J100000D01*
G01*
X216550000Y-81300000D01*
G75*
G02*
X216650000Y-81200000I100000J0D01*
G01*
X216850000Y-81200000D01*
G75*
G02*
X216950000Y-81300000I0J-100000D01*
G01*
X216950000Y-82575000D01*
G75*
G02*
X216850000Y-82675000I-100000J0D01*
G01*
G37*
G36*
G01*
X216850000Y-88400000D02*
X216650000Y-88400000D01*
G75*
G02*
X216550000Y-88300000I0J100000D01*
G01*
X216550000Y-87025000D01*
G75*
G02*
X216650000Y-86925000I100000J0D01*
G01*
X216850000Y-86925000D01*
G75*
G02*
X216950000Y-87025000I0J-100000D01*
G01*
X216950000Y-88300000D01*
G75*
G02*
X216850000Y-88400000I-100000J0D01*
G01*
G37*
G36*
G01*
X216200000Y-88400000D02*
X216000000Y-88400000D01*
G75*
G02*
X215900000Y-88300000I0J100000D01*
G01*
X215900000Y-87025000D01*
G75*
G02*
X216000000Y-86925000I100000J0D01*
G01*
X216200000Y-86925000D01*
G75*
G02*
X216300000Y-87025000I0J-100000D01*
G01*
X216300000Y-88300000D01*
G75*
G02*
X216200000Y-88400000I-100000J0D01*
G01*
G37*
G36*
G01*
X215550000Y-88400000D02*
X215350000Y-88400000D01*
G75*
G02*
X215250000Y-88300000I0J100000D01*
G01*
X215250000Y-87025000D01*
G75*
G02*
X215350000Y-86925000I100000J0D01*
G01*
X215550000Y-86925000D01*
G75*
G02*
X215650000Y-87025000I0J-100000D01*
G01*
X215650000Y-88300000D01*
G75*
G02*
X215550000Y-88400000I-100000J0D01*
G01*
G37*
G36*
G01*
X214900000Y-88400000D02*
X214700000Y-88400000D01*
G75*
G02*
X214600000Y-88300000I0J100000D01*
G01*
X214600000Y-87025000D01*
G75*
G02*
X214700000Y-86925000I100000J0D01*
G01*
X214900000Y-86925000D01*
G75*
G02*
X215000000Y-87025000I0J-100000D01*
G01*
X215000000Y-88300000D01*
G75*
G02*
X214900000Y-88400000I-100000J0D01*
G01*
G37*
G36*
G01*
X214250000Y-88400000D02*
X214050000Y-88400000D01*
G75*
G02*
X213950000Y-88300000I0J100000D01*
G01*
X213950000Y-87025000D01*
G75*
G02*
X214050000Y-86925000I100000J0D01*
G01*
X214250000Y-86925000D01*
G75*
G02*
X214350000Y-87025000I0J-100000D01*
G01*
X214350000Y-88300000D01*
G75*
G02*
X214250000Y-88400000I-100000J0D01*
G01*
G37*
G36*
G01*
X213600000Y-88400000D02*
X213400000Y-88400000D01*
G75*
G02*
X213300000Y-88300000I0J100000D01*
G01*
X213300000Y-87025000D01*
G75*
G02*
X213400000Y-86925000I100000J0D01*
G01*
X213600000Y-86925000D01*
G75*
G02*
X213700000Y-87025000I0J-100000D01*
G01*
X213700000Y-88300000D01*
G75*
G02*
X213600000Y-88400000I-100000J0D01*
G01*
G37*
G36*
G01*
X212950000Y-88400000D02*
X212750000Y-88400000D01*
G75*
G02*
X212650000Y-88300000I0J100000D01*
G01*
X212650000Y-87025000D01*
G75*
G02*
X212750000Y-86925000I100000J0D01*
G01*
X212950000Y-86925000D01*
G75*
G02*
X213050000Y-87025000I0J-100000D01*
G01*
X213050000Y-88300000D01*
G75*
G02*
X212950000Y-88400000I-100000J0D01*
G01*
G37*
%TD*%
%TO.C,U6*%
G36*
G01*
X245420000Y-89745000D02*
X245120000Y-89745000D01*
G75*
G02*
X244970000Y-89595000I0J150000D01*
G01*
X244970000Y-87845000D01*
G75*
G02*
X245120000Y-87695000I150000J0D01*
G01*
X245420000Y-87695000D01*
G75*
G02*
X245570000Y-87845000I0J-150000D01*
G01*
X245570000Y-89595000D01*
G75*
G02*
X245420000Y-89745000I-150000J0D01*
G01*
G37*
G36*
G01*
X246690000Y-89745000D02*
X246390000Y-89745000D01*
G75*
G02*
X246240000Y-89595000I0J150000D01*
G01*
X246240000Y-87845000D01*
G75*
G02*
X246390000Y-87695000I150000J0D01*
G01*
X246690000Y-87695000D01*
G75*
G02*
X246840000Y-87845000I0J-150000D01*
G01*
X246840000Y-89595000D01*
G75*
G02*
X246690000Y-89745000I-150000J0D01*
G01*
G37*
G36*
G01*
X247960000Y-89745000D02*
X247660000Y-89745000D01*
G75*
G02*
X247510000Y-89595000I0J150000D01*
G01*
X247510000Y-87845000D01*
G75*
G02*
X247660000Y-87695000I150000J0D01*
G01*
X247960000Y-87695000D01*
G75*
G02*
X248110000Y-87845000I0J-150000D01*
G01*
X248110000Y-89595000D01*
G75*
G02*
X247960000Y-89745000I-150000J0D01*
G01*
G37*
G36*
G01*
X249230000Y-89745000D02*
X248930000Y-89745000D01*
G75*
G02*
X248780000Y-89595000I0J150000D01*
G01*
X248780000Y-87845000D01*
G75*
G02*
X248930000Y-87695000I150000J0D01*
G01*
X249230000Y-87695000D01*
G75*
G02*
X249380000Y-87845000I0J-150000D01*
G01*
X249380000Y-89595000D01*
G75*
G02*
X249230000Y-89745000I-150000J0D01*
G01*
G37*
G36*
G01*
X250500000Y-89745000D02*
X250200000Y-89745000D01*
G75*
G02*
X250050000Y-89595000I0J150000D01*
G01*
X250050000Y-87845000D01*
G75*
G02*
X250200000Y-87695000I150000J0D01*
G01*
X250500000Y-87695000D01*
G75*
G02*
X250650000Y-87845000I0J-150000D01*
G01*
X250650000Y-89595000D01*
G75*
G02*
X250500000Y-89745000I-150000J0D01*
G01*
G37*
G36*
G01*
X251770000Y-89745000D02*
X251470000Y-89745000D01*
G75*
G02*
X251320000Y-89595000I0J150000D01*
G01*
X251320000Y-87845000D01*
G75*
G02*
X251470000Y-87695000I150000J0D01*
G01*
X251770000Y-87695000D01*
G75*
G02*
X251920000Y-87845000I0J-150000D01*
G01*
X251920000Y-89595000D01*
G75*
G02*
X251770000Y-89745000I-150000J0D01*
G01*
G37*
G36*
G01*
X253040000Y-89745000D02*
X252740000Y-89745000D01*
G75*
G02*
X252590000Y-89595000I0J150000D01*
G01*
X252590000Y-87845000D01*
G75*
G02*
X252740000Y-87695000I150000J0D01*
G01*
X253040000Y-87695000D01*
G75*
G02*
X253190000Y-87845000I0J-150000D01*
G01*
X253190000Y-89595000D01*
G75*
G02*
X253040000Y-89745000I-150000J0D01*
G01*
G37*
G36*
G01*
X254310000Y-89745000D02*
X254010000Y-89745000D01*
G75*
G02*
X253860000Y-89595000I0J150000D01*
G01*
X253860000Y-87845000D01*
G75*
G02*
X254010000Y-87695000I150000J0D01*
G01*
X254310000Y-87695000D01*
G75*
G02*
X254460000Y-87845000I0J-150000D01*
G01*
X254460000Y-89595000D01*
G75*
G02*
X254310000Y-89745000I-150000J0D01*
G01*
G37*
G36*
G01*
X255580000Y-89745000D02*
X255280000Y-89745000D01*
G75*
G02*
X255130000Y-89595000I0J150000D01*
G01*
X255130000Y-87845000D01*
G75*
G02*
X255280000Y-87695000I150000J0D01*
G01*
X255580000Y-87695000D01*
G75*
G02*
X255730000Y-87845000I0J-150000D01*
G01*
X255730000Y-89595000D01*
G75*
G02*
X255580000Y-89745000I-150000J0D01*
G01*
G37*
G36*
G01*
X255580000Y-99045000D02*
X255280000Y-99045000D01*
G75*
G02*
X255130000Y-98895000I0J150000D01*
G01*
X255130000Y-97145000D01*
G75*
G02*
X255280000Y-96995000I150000J0D01*
G01*
X255580000Y-96995000D01*
G75*
G02*
X255730000Y-97145000I0J-150000D01*
G01*
X255730000Y-98895000D01*
G75*
G02*
X255580000Y-99045000I-150000J0D01*
G01*
G37*
G36*
G01*
X254310000Y-99045000D02*
X254010000Y-99045000D01*
G75*
G02*
X253860000Y-98895000I0J150000D01*
G01*
X253860000Y-97145000D01*
G75*
G02*
X254010000Y-96995000I150000J0D01*
G01*
X254310000Y-96995000D01*
G75*
G02*
X254460000Y-97145000I0J-150000D01*
G01*
X254460000Y-98895000D01*
G75*
G02*
X254310000Y-99045000I-150000J0D01*
G01*
G37*
G36*
G01*
X253040000Y-99045000D02*
X252740000Y-99045000D01*
G75*
G02*
X252590000Y-98895000I0J150000D01*
G01*
X252590000Y-97145000D01*
G75*
G02*
X252740000Y-96995000I150000J0D01*
G01*
X253040000Y-96995000D01*
G75*
G02*
X253190000Y-97145000I0J-150000D01*
G01*
X253190000Y-98895000D01*
G75*
G02*
X253040000Y-99045000I-150000J0D01*
G01*
G37*
G36*
G01*
X251770000Y-99045000D02*
X251470000Y-99045000D01*
G75*
G02*
X251320000Y-98895000I0J150000D01*
G01*
X251320000Y-97145000D01*
G75*
G02*
X251470000Y-96995000I150000J0D01*
G01*
X251770000Y-96995000D01*
G75*
G02*
X251920000Y-97145000I0J-150000D01*
G01*
X251920000Y-98895000D01*
G75*
G02*
X251770000Y-99045000I-150000J0D01*
G01*
G37*
G36*
G01*
X250500000Y-99045000D02*
X250200000Y-99045000D01*
G75*
G02*
X250050000Y-98895000I0J150000D01*
G01*
X250050000Y-97145000D01*
G75*
G02*
X250200000Y-96995000I150000J0D01*
G01*
X250500000Y-96995000D01*
G75*
G02*
X250650000Y-97145000I0J-150000D01*
G01*
X250650000Y-98895000D01*
G75*
G02*
X250500000Y-99045000I-150000J0D01*
G01*
G37*
G36*
G01*
X249230000Y-99045000D02*
X248930000Y-99045000D01*
G75*
G02*
X248780000Y-98895000I0J150000D01*
G01*
X248780000Y-97145000D01*
G75*
G02*
X248930000Y-96995000I150000J0D01*
G01*
X249230000Y-96995000D01*
G75*
G02*
X249380000Y-97145000I0J-150000D01*
G01*
X249380000Y-98895000D01*
G75*
G02*
X249230000Y-99045000I-150000J0D01*
G01*
G37*
G36*
G01*
X247960000Y-99045000D02*
X247660000Y-99045000D01*
G75*
G02*
X247510000Y-98895000I0J150000D01*
G01*
X247510000Y-97145000D01*
G75*
G02*
X247660000Y-96995000I150000J0D01*
G01*
X247960000Y-96995000D01*
G75*
G02*
X248110000Y-97145000I0J-150000D01*
G01*
X248110000Y-98895000D01*
G75*
G02*
X247960000Y-99045000I-150000J0D01*
G01*
G37*
G36*
G01*
X246690000Y-99045000D02*
X246390000Y-99045000D01*
G75*
G02*
X246240000Y-98895000I0J150000D01*
G01*
X246240000Y-97145000D01*
G75*
G02*
X246390000Y-96995000I150000J0D01*
G01*
X246690000Y-96995000D01*
G75*
G02*
X246840000Y-97145000I0J-150000D01*
G01*
X246840000Y-98895000D01*
G75*
G02*
X246690000Y-99045000I-150000J0D01*
G01*
G37*
G36*
G01*
X245420000Y-99045000D02*
X245120000Y-99045000D01*
G75*
G02*
X244970000Y-98895000I0J150000D01*
G01*
X244970000Y-97145000D01*
G75*
G02*
X245120000Y-96995000I150000J0D01*
G01*
X245420000Y-96995000D01*
G75*
G02*
X245570000Y-97145000I0J-150000D01*
G01*
X245570000Y-98895000D01*
G75*
G02*
X245420000Y-99045000I-150000J0D01*
G01*
G37*
%TD*%
%TO.C,R53*%
G36*
G01*
X246850001Y-84200000D02*
X245949999Y-84200000D01*
G75*
G02*
X245700000Y-83950001I0J249999D01*
G01*
X245700000Y-83424999D01*
G75*
G02*
X245949999Y-83175000I249999J0D01*
G01*
X246850001Y-83175000D01*
G75*
G02*
X247100000Y-83424999I0J-249999D01*
G01*
X247100000Y-83950001D01*
G75*
G02*
X246850001Y-84200000I-249999J0D01*
G01*
G37*
G36*
G01*
X246850001Y-86025000D02*
X245949999Y-86025000D01*
G75*
G02*
X245700000Y-85775001I0J249999D01*
G01*
X245700000Y-85249999D01*
G75*
G02*
X245949999Y-85000000I249999J0D01*
G01*
X246850001Y-85000000D01*
G75*
G02*
X247100000Y-85249999I0J-249999D01*
G01*
X247100000Y-85775001D01*
G75*
G02*
X246850001Y-86025000I-249999J0D01*
G01*
G37*
%TD*%
%TO.C,R49*%
G36*
G01*
X242549999Y-85000000D02*
X243450001Y-85000000D01*
G75*
G02*
X243700000Y-85249999I0J-249999D01*
G01*
X243700000Y-85775001D01*
G75*
G02*
X243450001Y-86025000I-249999J0D01*
G01*
X242549999Y-86025000D01*
G75*
G02*
X242300000Y-85775001I0J249999D01*
G01*
X242300000Y-85249999D01*
G75*
G02*
X242549999Y-85000000I249999J0D01*
G01*
G37*
G36*
G01*
X242549999Y-83175000D02*
X243450001Y-83175000D01*
G75*
G02*
X243700000Y-83424999I0J-249999D01*
G01*
X243700000Y-83950001D01*
G75*
G02*
X243450001Y-84200000I-249999J0D01*
G01*
X242549999Y-84200000D01*
G75*
G02*
X242300000Y-83950001I0J249999D01*
G01*
X242300000Y-83424999D01*
G75*
G02*
X242549999Y-83175000I249999J0D01*
G01*
G37*
%TD*%
%TO.C,R45*%
G36*
G01*
X211800000Y-90150001D02*
X211800000Y-89249999D01*
G75*
G02*
X212049999Y-89000000I249999J0D01*
G01*
X212575001Y-89000000D01*
G75*
G02*
X212825000Y-89249999I0J-249999D01*
G01*
X212825000Y-90150001D01*
G75*
G02*
X212575001Y-90400000I-249999J0D01*
G01*
X212049999Y-90400000D01*
G75*
G02*
X211800000Y-90150001I0J249999D01*
G01*
G37*
G36*
G01*
X209975000Y-90150001D02*
X209975000Y-89249999D01*
G75*
G02*
X210224999Y-89000000I249999J0D01*
G01*
X210750001Y-89000000D01*
G75*
G02*
X211000000Y-89249999I0J-249999D01*
G01*
X211000000Y-90150001D01*
G75*
G02*
X210750001Y-90400000I-249999J0D01*
G01*
X210224999Y-90400000D01*
G75*
G02*
X209975000Y-90150001I0J249999D01*
G01*
G37*
%TD*%
%TO.C,R44*%
G36*
G01*
X184050001Y-110600000D02*
X183149999Y-110600000D01*
G75*
G02*
X182900000Y-110350001I0J249999D01*
G01*
X182900000Y-109824999D01*
G75*
G02*
X183149999Y-109575000I249999J0D01*
G01*
X184050001Y-109575000D01*
G75*
G02*
X184300000Y-109824999I0J-249999D01*
G01*
X184300000Y-110350001D01*
G75*
G02*
X184050001Y-110600000I-249999J0D01*
G01*
G37*
G36*
G01*
X184050001Y-112425000D02*
X183149999Y-112425000D01*
G75*
G02*
X182900000Y-112175001I0J249999D01*
G01*
X182900000Y-111649999D01*
G75*
G02*
X183149999Y-111400000I249999J0D01*
G01*
X184050001Y-111400000D01*
G75*
G02*
X184300000Y-111649999I0J-249999D01*
G01*
X184300000Y-112175001D01*
G75*
G02*
X184050001Y-112425000I-249999J0D01*
G01*
G37*
%TD*%
%TO.C,R43*%
G36*
G01*
X245600000Y-127450001D02*
X245600000Y-126549999D01*
G75*
G02*
X245849999Y-126300000I249999J0D01*
G01*
X246375001Y-126300000D01*
G75*
G02*
X246625000Y-126549999I0J-249999D01*
G01*
X246625000Y-127450001D01*
G75*
G02*
X246375001Y-127700000I-249999J0D01*
G01*
X245849999Y-127700000D01*
G75*
G02*
X245600000Y-127450001I0J249999D01*
G01*
G37*
G36*
G01*
X243775000Y-127450001D02*
X243775000Y-126549999D01*
G75*
G02*
X244024999Y-126300000I249999J0D01*
G01*
X244550001Y-126300000D01*
G75*
G02*
X244800000Y-126549999I0J-249999D01*
G01*
X244800000Y-127450001D01*
G75*
G02*
X244550001Y-127700000I-249999J0D01*
G01*
X244024999Y-127700000D01*
G75*
G02*
X243775000Y-127450001I0J249999D01*
G01*
G37*
%TD*%
%TO.C,R42*%
G36*
G01*
X244850001Y-129400000D02*
X243949999Y-129400000D01*
G75*
G02*
X243700000Y-129150001I0J249999D01*
G01*
X243700000Y-128624999D01*
G75*
G02*
X243949999Y-128375000I249999J0D01*
G01*
X244850001Y-128375000D01*
G75*
G02*
X245100000Y-128624999I0J-249999D01*
G01*
X245100000Y-129150001D01*
G75*
G02*
X244850001Y-129400000I-249999J0D01*
G01*
G37*
G36*
G01*
X244850001Y-131225000D02*
X243949999Y-131225000D01*
G75*
G02*
X243700000Y-130975001I0J249999D01*
G01*
X243700000Y-130449999D01*
G75*
G02*
X243949999Y-130200000I249999J0D01*
G01*
X244850001Y-130200000D01*
G75*
G02*
X245100000Y-130449999I0J-249999D01*
G01*
X245100000Y-130975001D01*
G75*
G02*
X244850001Y-131225000I-249999J0D01*
G01*
G37*
%TD*%
%TO.C,R41*%
G36*
G01*
X245600000Y-136250001D02*
X245600000Y-135349999D01*
G75*
G02*
X245849999Y-135100000I249999J0D01*
G01*
X246375001Y-135100000D01*
G75*
G02*
X246625000Y-135349999I0J-249999D01*
G01*
X246625000Y-136250001D01*
G75*
G02*
X246375001Y-136500000I-249999J0D01*
G01*
X245849999Y-136500000D01*
G75*
G02*
X245600000Y-136250001I0J249999D01*
G01*
G37*
G36*
G01*
X243775000Y-136250001D02*
X243775000Y-135349999D01*
G75*
G02*
X244024999Y-135100000I249999J0D01*
G01*
X244550001Y-135100000D01*
G75*
G02*
X244800000Y-135349999I0J-249999D01*
G01*
X244800000Y-136250001D01*
G75*
G02*
X244550001Y-136500000I-249999J0D01*
G01*
X244024999Y-136500000D01*
G75*
G02*
X243775000Y-136250001I0J249999D01*
G01*
G37*
%TD*%
%TO.C,R40*%
G36*
G01*
X244850001Y-138400000D02*
X243949999Y-138400000D01*
G75*
G02*
X243700000Y-138150001I0J249999D01*
G01*
X243700000Y-137624999D01*
G75*
G02*
X243949999Y-137375000I249999J0D01*
G01*
X244850001Y-137375000D01*
G75*
G02*
X245100000Y-137624999I0J-249999D01*
G01*
X245100000Y-138150001D01*
G75*
G02*
X244850001Y-138400000I-249999J0D01*
G01*
G37*
G36*
G01*
X244850001Y-140225000D02*
X243949999Y-140225000D01*
G75*
G02*
X243700000Y-139975001I0J249999D01*
G01*
X243700000Y-139449999D01*
G75*
G02*
X243949999Y-139200000I249999J0D01*
G01*
X244850001Y-139200000D01*
G75*
G02*
X245100000Y-139449999I0J-249999D01*
G01*
X245100000Y-139975001D01*
G75*
G02*
X244850001Y-140225000I-249999J0D01*
G01*
G37*
%TD*%
%TO.C,R39*%
G36*
G01*
X245600000Y-117850001D02*
X245600000Y-116949999D01*
G75*
G02*
X245849999Y-116700000I249999J0D01*
G01*
X246375001Y-116700000D01*
G75*
G02*
X246625000Y-116949999I0J-249999D01*
G01*
X246625000Y-117850001D01*
G75*
G02*
X246375001Y-118100000I-249999J0D01*
G01*
X245849999Y-118100000D01*
G75*
G02*
X245600000Y-117850001I0J249999D01*
G01*
G37*
G36*
G01*
X243775000Y-117850001D02*
X243775000Y-116949999D01*
G75*
G02*
X244024999Y-116700000I249999J0D01*
G01*
X244550001Y-116700000D01*
G75*
G02*
X244800000Y-116949999I0J-249999D01*
G01*
X244800000Y-117850001D01*
G75*
G02*
X244550001Y-118100000I-249999J0D01*
G01*
X244024999Y-118100000D01*
G75*
G02*
X243775000Y-117850001I0J249999D01*
G01*
G37*
%TD*%
%TO.C,R38*%
G36*
G01*
X244850001Y-120000000D02*
X243949999Y-120000000D01*
G75*
G02*
X243700000Y-119750001I0J249999D01*
G01*
X243700000Y-119224999D01*
G75*
G02*
X243949999Y-118975000I249999J0D01*
G01*
X244850001Y-118975000D01*
G75*
G02*
X245100000Y-119224999I0J-249999D01*
G01*
X245100000Y-119750001D01*
G75*
G02*
X244850001Y-120000000I-249999J0D01*
G01*
G37*
G36*
G01*
X244850001Y-121825000D02*
X243949999Y-121825000D01*
G75*
G02*
X243700000Y-121575001I0J249999D01*
G01*
X243700000Y-121049999D01*
G75*
G02*
X243949999Y-120800000I249999J0D01*
G01*
X244850001Y-120800000D01*
G75*
G02*
X245100000Y-121049999I0J-249999D01*
G01*
X245100000Y-121575001D01*
G75*
G02*
X244850001Y-121825000I-249999J0D01*
G01*
G37*
%TD*%
%TO.C,R37*%
G36*
G01*
X245600000Y-108450001D02*
X245600000Y-107549999D01*
G75*
G02*
X245849999Y-107300000I249999J0D01*
G01*
X246375001Y-107300000D01*
G75*
G02*
X246625000Y-107549999I0J-249999D01*
G01*
X246625000Y-108450001D01*
G75*
G02*
X246375001Y-108700000I-249999J0D01*
G01*
X245849999Y-108700000D01*
G75*
G02*
X245600000Y-108450001I0J249999D01*
G01*
G37*
G36*
G01*
X243775000Y-108450001D02*
X243775000Y-107549999D01*
G75*
G02*
X244024999Y-107300000I249999J0D01*
G01*
X244550001Y-107300000D01*
G75*
G02*
X244800000Y-107549999I0J-249999D01*
G01*
X244800000Y-108450001D01*
G75*
G02*
X244550001Y-108700000I-249999J0D01*
G01*
X244024999Y-108700000D01*
G75*
G02*
X243775000Y-108450001I0J249999D01*
G01*
G37*
%TD*%
%TO.C,R36*%
G36*
G01*
X244850001Y-110600000D02*
X243949999Y-110600000D01*
G75*
G02*
X243700000Y-110350001I0J249999D01*
G01*
X243700000Y-109824999D01*
G75*
G02*
X243949999Y-109575000I249999J0D01*
G01*
X244850001Y-109575000D01*
G75*
G02*
X245100000Y-109824999I0J-249999D01*
G01*
X245100000Y-110350001D01*
G75*
G02*
X244850001Y-110600000I-249999J0D01*
G01*
G37*
G36*
G01*
X244850001Y-112425000D02*
X243949999Y-112425000D01*
G75*
G02*
X243700000Y-112175001I0J249999D01*
G01*
X243700000Y-111649999D01*
G75*
G02*
X243949999Y-111400000I249999J0D01*
G01*
X244850001Y-111400000D01*
G75*
G02*
X245100000Y-111649999I0J-249999D01*
G01*
X245100000Y-112175001D01*
G75*
G02*
X244850001Y-112425000I-249999J0D01*
G01*
G37*
%TD*%
%TO.C,R35*%
G36*
G01*
X244800000Y-132149999D02*
X244800000Y-133050001D01*
G75*
G02*
X244550001Y-133300000I-249999J0D01*
G01*
X244024999Y-133300000D01*
G75*
G02*
X243775000Y-133050001I0J249999D01*
G01*
X243775000Y-132149999D01*
G75*
G02*
X244024999Y-131900000I249999J0D01*
G01*
X244550001Y-131900000D01*
G75*
G02*
X244800000Y-132149999I0J-249999D01*
G01*
G37*
G36*
G01*
X246625000Y-132149999D02*
X246625000Y-133050001D01*
G75*
G02*
X246375001Y-133300000I-249999J0D01*
G01*
X245849999Y-133300000D01*
G75*
G02*
X245600000Y-133050001I0J249999D01*
G01*
X245600000Y-132149999D01*
G75*
G02*
X245849999Y-131900000I249999J0D01*
G01*
X246375001Y-131900000D01*
G75*
G02*
X246625000Y-132149999I0J-249999D01*
G01*
G37*
%TD*%
%TO.C,R34*%
G36*
G01*
X244800000Y-141149999D02*
X244800000Y-142050001D01*
G75*
G02*
X244550001Y-142300000I-249999J0D01*
G01*
X244024999Y-142300000D01*
G75*
G02*
X243775000Y-142050001I0J249999D01*
G01*
X243775000Y-141149999D01*
G75*
G02*
X244024999Y-140900000I249999J0D01*
G01*
X244550001Y-140900000D01*
G75*
G02*
X244800000Y-141149999I0J-249999D01*
G01*
G37*
G36*
G01*
X246625000Y-141149999D02*
X246625000Y-142050001D01*
G75*
G02*
X246375001Y-142300000I-249999J0D01*
G01*
X245849999Y-142300000D01*
G75*
G02*
X245600000Y-142050001I0J249999D01*
G01*
X245600000Y-141149999D01*
G75*
G02*
X245849999Y-140900000I249999J0D01*
G01*
X246375001Y-140900000D01*
G75*
G02*
X246625000Y-141149999I0J-249999D01*
G01*
G37*
%TD*%
%TO.C,R33*%
G36*
G01*
X244800000Y-122749999D02*
X244800000Y-123650001D01*
G75*
G02*
X244550001Y-123900000I-249999J0D01*
G01*
X244024999Y-123900000D01*
G75*
G02*
X243775000Y-123650001I0J249999D01*
G01*
X243775000Y-122749999D01*
G75*
G02*
X244024999Y-122500000I249999J0D01*
G01*
X244550001Y-122500000D01*
G75*
G02*
X244800000Y-122749999I0J-249999D01*
G01*
G37*
G36*
G01*
X246625000Y-122749999D02*
X246625000Y-123650001D01*
G75*
G02*
X246375001Y-123900000I-249999J0D01*
G01*
X245849999Y-123900000D01*
G75*
G02*
X245600000Y-123650001I0J249999D01*
G01*
X245600000Y-122749999D01*
G75*
G02*
X245849999Y-122500000I249999J0D01*
G01*
X246375001Y-122500000D01*
G75*
G02*
X246625000Y-122749999I0J-249999D01*
G01*
G37*
%TD*%
%TO.C,R32*%
G36*
G01*
X244800000Y-113349999D02*
X244800000Y-114250001D01*
G75*
G02*
X244550001Y-114500000I-249999J0D01*
G01*
X244024999Y-114500000D01*
G75*
G02*
X243775000Y-114250001I0J249999D01*
G01*
X243775000Y-113349999D01*
G75*
G02*
X244024999Y-113100000I249999J0D01*
G01*
X244550001Y-113100000D01*
G75*
G02*
X244800000Y-113349999I0J-249999D01*
G01*
G37*
G36*
G01*
X246625000Y-113349999D02*
X246625000Y-114250001D01*
G75*
G02*
X246375001Y-114500000I-249999J0D01*
G01*
X245849999Y-114500000D01*
G75*
G02*
X245600000Y-114250001I0J249999D01*
G01*
X245600000Y-113349999D01*
G75*
G02*
X245849999Y-113100000I249999J0D01*
G01*
X246375001Y-113100000D01*
G75*
G02*
X246625000Y-113349999I0J-249999D01*
G01*
G37*
%TD*%
%TO.C,R31*%
G36*
G01*
X250450001Y-127312500D02*
X249549999Y-127312500D01*
G75*
G02*
X249300000Y-127062501I0J249999D01*
G01*
X249300000Y-126537499D01*
G75*
G02*
X249549999Y-126287500I249999J0D01*
G01*
X250450001Y-126287500D01*
G75*
G02*
X250700000Y-126537499I0J-249999D01*
G01*
X250700000Y-127062501D01*
G75*
G02*
X250450001Y-127312500I-249999J0D01*
G01*
G37*
G36*
G01*
X250450001Y-129137500D02*
X249549999Y-129137500D01*
G75*
G02*
X249300000Y-128887501I0J249999D01*
G01*
X249300000Y-128362499D01*
G75*
G02*
X249549999Y-128112500I249999J0D01*
G01*
X250450001Y-128112500D01*
G75*
G02*
X250700000Y-128362499I0J-249999D01*
G01*
X250700000Y-128887501D01*
G75*
G02*
X250450001Y-129137500I-249999J0D01*
G01*
G37*
%TD*%
%TO.C,R30*%
G36*
G01*
X250450001Y-136400000D02*
X249549999Y-136400000D01*
G75*
G02*
X249300000Y-136150001I0J249999D01*
G01*
X249300000Y-135624999D01*
G75*
G02*
X249549999Y-135375000I249999J0D01*
G01*
X250450001Y-135375000D01*
G75*
G02*
X250700000Y-135624999I0J-249999D01*
G01*
X250700000Y-136150001D01*
G75*
G02*
X250450001Y-136400000I-249999J0D01*
G01*
G37*
G36*
G01*
X250450001Y-138225000D02*
X249549999Y-138225000D01*
G75*
G02*
X249300000Y-137975001I0J249999D01*
G01*
X249300000Y-137449999D01*
G75*
G02*
X249549999Y-137200000I249999J0D01*
G01*
X250450001Y-137200000D01*
G75*
G02*
X250700000Y-137449999I0J-249999D01*
G01*
X250700000Y-137975001D01*
G75*
G02*
X250450001Y-138225000I-249999J0D01*
G01*
G37*
%TD*%
%TO.C,R29*%
G36*
G01*
X250450001Y-118000000D02*
X249549999Y-118000000D01*
G75*
G02*
X249300000Y-117750001I0J249999D01*
G01*
X249300000Y-117224999D01*
G75*
G02*
X249549999Y-116975000I249999J0D01*
G01*
X250450001Y-116975000D01*
G75*
G02*
X250700000Y-117224999I0J-249999D01*
G01*
X250700000Y-117750001D01*
G75*
G02*
X250450001Y-118000000I-249999J0D01*
G01*
G37*
G36*
G01*
X250450001Y-119825000D02*
X249549999Y-119825000D01*
G75*
G02*
X249300000Y-119575001I0J249999D01*
G01*
X249300000Y-119049999D01*
G75*
G02*
X249549999Y-118800000I249999J0D01*
G01*
X250450001Y-118800000D01*
G75*
G02*
X250700000Y-119049999I0J-249999D01*
G01*
X250700000Y-119575001D01*
G75*
G02*
X250450001Y-119825000I-249999J0D01*
G01*
G37*
%TD*%
%TO.C,R28*%
G36*
G01*
X250450001Y-108800000D02*
X249549999Y-108800000D01*
G75*
G02*
X249300000Y-108550001I0J249999D01*
G01*
X249300000Y-108024999D01*
G75*
G02*
X249549999Y-107775000I249999J0D01*
G01*
X250450001Y-107775000D01*
G75*
G02*
X250700000Y-108024999I0J-249999D01*
G01*
X250700000Y-108550001D01*
G75*
G02*
X250450001Y-108800000I-249999J0D01*
G01*
G37*
G36*
G01*
X250450001Y-110625000D02*
X249549999Y-110625000D01*
G75*
G02*
X249300000Y-110375001I0J249999D01*
G01*
X249300000Y-109849999D01*
G75*
G02*
X249549999Y-109600000I249999J0D01*
G01*
X250450001Y-109600000D01*
G75*
G02*
X250700000Y-109849999I0J-249999D01*
G01*
X250700000Y-110375001D01*
G75*
G02*
X250450001Y-110625000I-249999J0D01*
G01*
G37*
%TD*%
%TO.C,R27*%
G36*
G01*
X253200000Y-129050001D02*
X253200000Y-128149999D01*
G75*
G02*
X253449999Y-127900000I249999J0D01*
G01*
X253975001Y-127900000D01*
G75*
G02*
X254225000Y-128149999I0J-249999D01*
G01*
X254225000Y-129050001D01*
G75*
G02*
X253975001Y-129300000I-249999J0D01*
G01*
X253449999Y-129300000D01*
G75*
G02*
X253200000Y-129050001I0J249999D01*
G01*
G37*
G36*
G01*
X251375000Y-129050001D02*
X251375000Y-128149999D01*
G75*
G02*
X251624999Y-127900000I249999J0D01*
G01*
X252150001Y-127900000D01*
G75*
G02*
X252400000Y-128149999I0J-249999D01*
G01*
X252400000Y-129050001D01*
G75*
G02*
X252150001Y-129300000I-249999J0D01*
G01*
X251624999Y-129300000D01*
G75*
G02*
X251375000Y-129050001I0J249999D01*
G01*
G37*
%TD*%
%TO.C,R26*%
G36*
G01*
X253200000Y-138050001D02*
X253200000Y-137149999D01*
G75*
G02*
X253449999Y-136900000I249999J0D01*
G01*
X253975001Y-136900000D01*
G75*
G02*
X254225000Y-137149999I0J-249999D01*
G01*
X254225000Y-138050001D01*
G75*
G02*
X253975001Y-138300000I-249999J0D01*
G01*
X253449999Y-138300000D01*
G75*
G02*
X253200000Y-138050001I0J249999D01*
G01*
G37*
G36*
G01*
X251375000Y-138050001D02*
X251375000Y-137149999D01*
G75*
G02*
X251624999Y-136900000I249999J0D01*
G01*
X252150001Y-136900000D01*
G75*
G02*
X252400000Y-137149999I0J-249999D01*
G01*
X252400000Y-138050001D01*
G75*
G02*
X252150001Y-138300000I-249999J0D01*
G01*
X251624999Y-138300000D01*
G75*
G02*
X251375000Y-138050001I0J249999D01*
G01*
G37*
%TD*%
%TO.C,R25*%
G36*
G01*
X253200000Y-119650001D02*
X253200000Y-118749999D01*
G75*
G02*
X253449999Y-118500000I249999J0D01*
G01*
X253975001Y-118500000D01*
G75*
G02*
X254225000Y-118749999I0J-249999D01*
G01*
X254225000Y-119650001D01*
G75*
G02*
X253975001Y-119900000I-249999J0D01*
G01*
X253449999Y-119900000D01*
G75*
G02*
X253200000Y-119650001I0J249999D01*
G01*
G37*
G36*
G01*
X251375000Y-119650001D02*
X251375000Y-118749999D01*
G75*
G02*
X251624999Y-118500000I249999J0D01*
G01*
X252150001Y-118500000D01*
G75*
G02*
X252400000Y-118749999I0J-249999D01*
G01*
X252400000Y-119650001D01*
G75*
G02*
X252150001Y-119900000I-249999J0D01*
G01*
X251624999Y-119900000D01*
G75*
G02*
X251375000Y-119650001I0J249999D01*
G01*
G37*
%TD*%
%TO.C,R5*%
G36*
G01*
X253200000Y-110450001D02*
X253200000Y-109549999D01*
G75*
G02*
X253449999Y-109300000I249999J0D01*
G01*
X253975001Y-109300000D01*
G75*
G02*
X254225000Y-109549999I0J-249999D01*
G01*
X254225000Y-110450001D01*
G75*
G02*
X253975001Y-110700000I-249999J0D01*
G01*
X253449999Y-110700000D01*
G75*
G02*
X253200000Y-110450001I0J249999D01*
G01*
G37*
G36*
G01*
X251375000Y-110450001D02*
X251375000Y-109549999D01*
G75*
G02*
X251624999Y-109300000I249999J0D01*
G01*
X252150001Y-109300000D01*
G75*
G02*
X252400000Y-109549999I0J-249999D01*
G01*
X252400000Y-110450001D01*
G75*
G02*
X252150001Y-110700000I-249999J0D01*
G01*
X251624999Y-110700000D01*
G75*
G02*
X251375000Y-110450001I0J249999D01*
G01*
G37*
%TD*%
D11*
%TO.C,Q12*%
X246200000Y-129800000D03*
X248200000Y-128850000D03*
X248200000Y-130750000D03*
%TD*%
%TO.C,Q11*%
X246200000Y-138600000D03*
X248200000Y-137650000D03*
X248200000Y-139550000D03*
%TD*%
%TO.C,Q10*%
X246200000Y-120200000D03*
X248200000Y-119250000D03*
X248200000Y-121150000D03*
%TD*%
%TO.C,Q9*%
X246200000Y-110800000D03*
X248200000Y-109850000D03*
X248200000Y-111750000D03*
%TD*%
D14*
%TO.C,D10*%
X246400000Y-78530000D03*
X246400000Y-81800000D03*
%TD*%
D12*
%TO.C,D8*%
X178000000Y-111000000D03*
X181000000Y-111000000D03*
%TD*%
D15*
%TO.C,D7*%
X253470000Y-130400000D03*
X250200000Y-130400000D03*
%TD*%
%TO.C,D6*%
X253870000Y-139400000D03*
X250600000Y-139400000D03*
%TD*%
%TO.C,D5*%
X253670000Y-121000000D03*
X250400000Y-121000000D03*
%TD*%
%TO.C,D1*%
X253670000Y-111800000D03*
X250400000Y-111800000D03*
%TD*%
%TO.C,C20*%
G36*
G01*
X214300000Y-79975000D02*
X214300000Y-79025000D01*
G75*
G02*
X214550000Y-78775000I250000J0D01*
G01*
X215050000Y-78775000D01*
G75*
G02*
X215300000Y-79025000I0J-250000D01*
G01*
X215300000Y-79975000D01*
G75*
G02*
X215050000Y-80225000I-250000J0D01*
G01*
X214550000Y-80225000D01*
G75*
G02*
X214300000Y-79975000I0J250000D01*
G01*
G37*
G36*
G01*
X212400000Y-79975000D02*
X212400000Y-79025000D01*
G75*
G02*
X212650000Y-78775000I250000J0D01*
G01*
X213150000Y-78775000D01*
G75*
G02*
X213400000Y-79025000I0J-250000D01*
G01*
X213400000Y-79975000D01*
G75*
G02*
X213150000Y-80225000I-250000J0D01*
G01*
X212650000Y-80225000D01*
G75*
G02*
X212400000Y-79975000I0J250000D01*
G01*
G37*
%TD*%
%TO.C,C19*%
G36*
G01*
X211275000Y-86600000D02*
X210325000Y-86600000D01*
G75*
G02*
X210075000Y-86350000I0J250000D01*
G01*
X210075000Y-85850000D01*
G75*
G02*
X210325000Y-85600000I250000J0D01*
G01*
X211275000Y-85600000D01*
G75*
G02*
X211525000Y-85850000I0J-250000D01*
G01*
X211525000Y-86350000D01*
G75*
G02*
X211275000Y-86600000I-250000J0D01*
G01*
G37*
G36*
G01*
X211275000Y-88500000D02*
X210325000Y-88500000D01*
G75*
G02*
X210075000Y-88250000I0J250000D01*
G01*
X210075000Y-87750000D01*
G75*
G02*
X210325000Y-87500000I250000J0D01*
G01*
X211275000Y-87500000D01*
G75*
G02*
X211525000Y-87750000I0J-250000D01*
G01*
X211525000Y-88250000D01*
G75*
G02*
X211275000Y-88500000I-250000J0D01*
G01*
G37*
%TD*%
%TO.C,C18*%
G36*
G01*
X243050000Y-89075000D02*
X243050000Y-88125000D01*
G75*
G02*
X243300000Y-87875000I250000J0D01*
G01*
X243800000Y-87875000D01*
G75*
G02*
X244050000Y-88125000I0J-250000D01*
G01*
X244050000Y-89075000D01*
G75*
G02*
X243800000Y-89325000I-250000J0D01*
G01*
X243300000Y-89325000D01*
G75*
G02*
X243050000Y-89075000I0J250000D01*
G01*
G37*
G36*
G01*
X241150000Y-89075000D02*
X241150000Y-88125000D01*
G75*
G02*
X241400000Y-87875000I250000J0D01*
G01*
X241900000Y-87875000D01*
G75*
G02*
X242150000Y-88125000I0J-250000D01*
G01*
X242150000Y-89075000D01*
G75*
G02*
X241900000Y-89325000I-250000J0D01*
G01*
X241400000Y-89325000D01*
G75*
G02*
X241150000Y-89075000I0J250000D01*
G01*
G37*
%TD*%
D16*
%TO.C,Y1*%
X217119000Y-119888000D03*
X217119000Y-122088000D03*
X215519000Y-119888000D03*
X215519000Y-122088000D03*
%TD*%
%TO.C,C1*%
G36*
G01*
X222673000Y-108720000D02*
X221573000Y-108720000D01*
G75*
G02*
X221323000Y-108470000I0J250000D01*
G01*
X221323000Y-106370000D01*
G75*
G02*
X221573000Y-106120000I250000J0D01*
G01*
X222673000Y-106120000D01*
G75*
G02*
X222923000Y-106370000I0J-250000D01*
G01*
X222923000Y-108470000D01*
G75*
G02*
X222673000Y-108720000I-250000J0D01*
G01*
G37*
G36*
G01*
X222673000Y-112320000D02*
X221573000Y-112320000D01*
G75*
G02*
X221323000Y-112070000I0J250000D01*
G01*
X221323000Y-109970000D01*
G75*
G02*
X221573000Y-109720000I250000J0D01*
G01*
X222673000Y-109720000D01*
G75*
G02*
X222923000Y-109970000I0J-250000D01*
G01*
X222923000Y-112070000D01*
G75*
G02*
X222673000Y-112320000I-250000J0D01*
G01*
G37*
%TD*%
%TO.C,C2*%
G36*
G01*
X211784250Y-109169500D02*
X210871750Y-109169500D01*
G75*
G02*
X210628000Y-108925750I0J243750D01*
G01*
X210628000Y-108438250D01*
G75*
G02*
X210871750Y-108194500I243750J0D01*
G01*
X211784250Y-108194500D01*
G75*
G02*
X212028000Y-108438250I0J-243750D01*
G01*
X212028000Y-108925750D01*
G75*
G02*
X211784250Y-109169500I-243750J0D01*
G01*
G37*
G36*
G01*
X211784250Y-107294500D02*
X210871750Y-107294500D01*
G75*
G02*
X210628000Y-107050750I0J243750D01*
G01*
X210628000Y-106563250D01*
G75*
G02*
X210871750Y-106319500I243750J0D01*
G01*
X211784250Y-106319500D01*
G75*
G02*
X212028000Y-106563250I0J-243750D01*
G01*
X212028000Y-107050750D01*
G75*
G02*
X211784250Y-107294500I-243750J0D01*
G01*
G37*
%TD*%
%TO.C,C3*%
G36*
G01*
X212014750Y-122702500D02*
X212927250Y-122702500D01*
G75*
G02*
X213171000Y-122946250I0J-243750D01*
G01*
X213171000Y-123433750D01*
G75*
G02*
X212927250Y-123677500I-243750J0D01*
G01*
X212014750Y-123677500D01*
G75*
G02*
X211771000Y-123433750I0J243750D01*
G01*
X211771000Y-122946250D01*
G75*
G02*
X212014750Y-122702500I243750J0D01*
G01*
G37*
G36*
G01*
X212014750Y-120827500D02*
X212927250Y-120827500D01*
G75*
G02*
X213171000Y-121071250I0J-243750D01*
G01*
X213171000Y-121558750D01*
G75*
G02*
X212927250Y-121802500I-243750J0D01*
G01*
X212014750Y-121802500D01*
G75*
G02*
X211771000Y-121558750I0J243750D01*
G01*
X211771000Y-121071250D01*
G75*
G02*
X212014750Y-120827500I243750J0D01*
G01*
G37*
%TD*%
%TO.C,C4*%
G36*
G01*
X218460500Y-120471250D02*
X218460500Y-119558750D01*
G75*
G02*
X218704250Y-119315000I243750J0D01*
G01*
X219191750Y-119315000D01*
G75*
G02*
X219435500Y-119558750I0J-243750D01*
G01*
X219435500Y-120471250D01*
G75*
G02*
X219191750Y-120715000I-243750J0D01*
G01*
X218704250Y-120715000D01*
G75*
G02*
X218460500Y-120471250I0J243750D01*
G01*
G37*
G36*
G01*
X220335500Y-120471250D02*
X220335500Y-119558750D01*
G75*
G02*
X220579250Y-119315000I243750J0D01*
G01*
X221066750Y-119315000D01*
G75*
G02*
X221310500Y-119558750I0J-243750D01*
G01*
X221310500Y-120471250D01*
G75*
G02*
X221066750Y-120715000I-243750J0D01*
G01*
X220579250Y-120715000D01*
G75*
G02*
X220335500Y-120471250I0J243750D01*
G01*
G37*
%TD*%
%TO.C,C5*%
G36*
G01*
X221310500Y-121590750D02*
X221310500Y-122503250D01*
G75*
G02*
X221066750Y-122747000I-243750J0D01*
G01*
X220579250Y-122747000D01*
G75*
G02*
X220335500Y-122503250I0J243750D01*
G01*
X220335500Y-121590750D01*
G75*
G02*
X220579250Y-121347000I243750J0D01*
G01*
X221066750Y-121347000D01*
G75*
G02*
X221310500Y-121590750I0J-243750D01*
G01*
G37*
G36*
G01*
X219435500Y-121590750D02*
X219435500Y-122503250D01*
G75*
G02*
X219191750Y-122747000I-243750J0D01*
G01*
X218704250Y-122747000D01*
G75*
G02*
X218460500Y-122503250I0J243750D01*
G01*
X218460500Y-121590750D01*
G75*
G02*
X218704250Y-121347000I243750J0D01*
G01*
X219191750Y-121347000D01*
G75*
G02*
X219435500Y-121590750I0J-243750D01*
G01*
G37*
%TD*%
%TO.C,C6*%
G36*
G01*
X209982750Y-122702500D02*
X210895250Y-122702500D01*
G75*
G02*
X211139000Y-122946250I0J-243750D01*
G01*
X211139000Y-123433750D01*
G75*
G02*
X210895250Y-123677500I-243750J0D01*
G01*
X209982750Y-123677500D01*
G75*
G02*
X209739000Y-123433750I0J243750D01*
G01*
X209739000Y-122946250D01*
G75*
G02*
X209982750Y-122702500I243750J0D01*
G01*
G37*
G36*
G01*
X209982750Y-120827500D02*
X210895250Y-120827500D01*
G75*
G02*
X211139000Y-121071250I0J-243750D01*
G01*
X211139000Y-121558750D01*
G75*
G02*
X210895250Y-121802500I-243750J0D01*
G01*
X209982750Y-121802500D01*
G75*
G02*
X209739000Y-121558750I0J243750D01*
G01*
X209739000Y-121071250D01*
G75*
G02*
X209982750Y-120827500I243750J0D01*
G01*
G37*
%TD*%
%TO.C,C7*%
G36*
G01*
X194639250Y-97261500D02*
X193726750Y-97261500D01*
G75*
G02*
X193483000Y-97017750I0J243750D01*
G01*
X193483000Y-96530250D01*
G75*
G02*
X193726750Y-96286500I243750J0D01*
G01*
X194639250Y-96286500D01*
G75*
G02*
X194883000Y-96530250I0J-243750D01*
G01*
X194883000Y-97017750D01*
G75*
G02*
X194639250Y-97261500I-243750J0D01*
G01*
G37*
G36*
G01*
X194639250Y-99136500D02*
X193726750Y-99136500D01*
G75*
G02*
X193483000Y-98892750I0J243750D01*
G01*
X193483000Y-98405250D01*
G75*
G02*
X193726750Y-98161500I243750J0D01*
G01*
X194639250Y-98161500D01*
G75*
G02*
X194883000Y-98405250I0J-243750D01*
G01*
X194883000Y-98892750D01*
G75*
G02*
X194639250Y-99136500I-243750J0D01*
G01*
G37*
%TD*%
%TO.C,C8*%
G36*
G01*
X215433000Y-71644000D02*
X215433000Y-73644000D01*
G75*
G02*
X215183000Y-73894000I-250000J0D01*
G01*
X211283000Y-73894000D01*
G75*
G02*
X211033000Y-73644000I0J250000D01*
G01*
X211033000Y-71644000D01*
G75*
G02*
X211283000Y-71394000I250000J0D01*
G01*
X215183000Y-71394000D01*
G75*
G02*
X215433000Y-71644000I0J-250000D01*
G01*
G37*
G36*
G01*
X207033000Y-71644000D02*
X207033000Y-73644000D01*
G75*
G02*
X206783000Y-73894000I-250000J0D01*
G01*
X202883000Y-73894000D01*
G75*
G02*
X202633000Y-73644000I0J250000D01*
G01*
X202633000Y-71644000D01*
G75*
G02*
X202883000Y-71394000I250000J0D01*
G01*
X206783000Y-71394000D01*
G75*
G02*
X207033000Y-71644000I0J-250000D01*
G01*
G37*
%TD*%
%TO.C,C9*%
G36*
G01*
X184637500Y-82855750D02*
X184637500Y-83768250D01*
G75*
G02*
X184393750Y-84012000I-243750J0D01*
G01*
X183906250Y-84012000D01*
G75*
G02*
X183662500Y-83768250I0J243750D01*
G01*
X183662500Y-82855750D01*
G75*
G02*
X183906250Y-82612000I243750J0D01*
G01*
X184393750Y-82612000D01*
G75*
G02*
X184637500Y-82855750I0J-243750D01*
G01*
G37*
G36*
G01*
X182762500Y-82855750D02*
X182762500Y-83768250D01*
G75*
G02*
X182518750Y-84012000I-243750J0D01*
G01*
X182031250Y-84012000D01*
G75*
G02*
X181787500Y-83768250I0J243750D01*
G01*
X181787500Y-82855750D01*
G75*
G02*
X182031250Y-82612000I243750J0D01*
G01*
X182518750Y-82612000D01*
G75*
G02*
X182762500Y-82855750I0J-243750D01*
G01*
G37*
%TD*%
%TO.C,C10*%
G36*
G01*
X203978000Y-79276000D02*
X205978000Y-79276000D01*
G75*
G02*
X206228000Y-79526000I0J-250000D01*
G01*
X206228000Y-83026000D01*
G75*
G02*
X205978000Y-83276000I-250000J0D01*
G01*
X203978000Y-83276000D01*
G75*
G02*
X203728000Y-83026000I0J250000D01*
G01*
X203728000Y-79526000D01*
G75*
G02*
X203978000Y-79276000I250000J0D01*
G01*
G37*
G36*
G01*
X203978000Y-85376000D02*
X205978000Y-85376000D01*
G75*
G02*
X206228000Y-85626000I0J-250000D01*
G01*
X206228000Y-89126000D01*
G75*
G02*
X205978000Y-89376000I-250000J0D01*
G01*
X203978000Y-89376000D01*
G75*
G02*
X203728000Y-89126000I0J250000D01*
G01*
X203728000Y-85626000D01*
G75*
G02*
X203978000Y-85376000I250000J0D01*
G01*
G37*
%TD*%
%TO.C,C11*%
G36*
G01*
X195885750Y-91841500D02*
X196798250Y-91841500D01*
G75*
G02*
X197042000Y-92085250I0J-243750D01*
G01*
X197042000Y-92572750D01*
G75*
G02*
X196798250Y-92816500I-243750J0D01*
G01*
X195885750Y-92816500D01*
G75*
G02*
X195642000Y-92572750I0J243750D01*
G01*
X195642000Y-92085250D01*
G75*
G02*
X195885750Y-91841500I243750J0D01*
G01*
G37*
G36*
G01*
X195885750Y-89966500D02*
X196798250Y-89966500D01*
G75*
G02*
X197042000Y-90210250I0J-243750D01*
G01*
X197042000Y-90697750D01*
G75*
G02*
X196798250Y-90941500I-243750J0D01*
G01*
X195885750Y-90941500D01*
G75*
G02*
X195642000Y-90697750I0J243750D01*
G01*
X195642000Y-90210250D01*
G75*
G02*
X195885750Y-89966500I243750J0D01*
G01*
G37*
%TD*%
%TO.C,C12*%
G36*
G01*
X183418000Y-90509000D02*
X183418000Y-91609000D01*
G75*
G02*
X183168000Y-91859000I-250000J0D01*
G01*
X181068000Y-91859000D01*
G75*
G02*
X180818000Y-91609000I0J250000D01*
G01*
X180818000Y-90509000D01*
G75*
G02*
X181068000Y-90259000I250000J0D01*
G01*
X183168000Y-90259000D01*
G75*
G02*
X183418000Y-90509000I0J-250000D01*
G01*
G37*
G36*
G01*
X179818000Y-90509000D02*
X179818000Y-91609000D01*
G75*
G02*
X179568000Y-91859000I-250000J0D01*
G01*
X177468000Y-91859000D01*
G75*
G02*
X177218000Y-91609000I0J250000D01*
G01*
X177218000Y-90509000D01*
G75*
G02*
X177468000Y-90259000I250000J0D01*
G01*
X179568000Y-90259000D01*
G75*
G02*
X179818000Y-90509000I0J-250000D01*
G01*
G37*
%TD*%
%TO.C,C13*%
G36*
G01*
X188392750Y-96316500D02*
X189305250Y-96316500D01*
G75*
G02*
X189549000Y-96560250I0J-243750D01*
G01*
X189549000Y-97047750D01*
G75*
G02*
X189305250Y-97291500I-243750J0D01*
G01*
X188392750Y-97291500D01*
G75*
G02*
X188149000Y-97047750I0J243750D01*
G01*
X188149000Y-96560250D01*
G75*
G02*
X188392750Y-96316500I243750J0D01*
G01*
G37*
G36*
G01*
X188392750Y-98191500D02*
X189305250Y-98191500D01*
G75*
G02*
X189549000Y-98435250I0J-243750D01*
G01*
X189549000Y-98922750D01*
G75*
G02*
X189305250Y-99166500I-243750J0D01*
G01*
X188392750Y-99166500D01*
G75*
G02*
X188149000Y-98922750I0J243750D01*
G01*
X188149000Y-98435250D01*
G75*
G02*
X188392750Y-98191500I243750J0D01*
G01*
G37*
%TD*%
D17*
%TO.C,D2*%
X181356000Y-76105000D03*
X181356000Y-80105000D03*
%TD*%
D12*
%TO.C,D3*%
X181102000Y-86487000D03*
X178102000Y-86487000D03*
%TD*%
D14*
%TO.C,D4*%
X192024000Y-99917000D03*
X192024000Y-96647000D03*
%TD*%
%TO.C,FB1*%
G36*
G01*
X187146250Y-99166500D02*
X186233750Y-99166500D01*
G75*
G02*
X185990000Y-98922750I0J243750D01*
G01*
X185990000Y-98435250D01*
G75*
G02*
X186233750Y-98191500I243750J0D01*
G01*
X187146250Y-98191500D01*
G75*
G02*
X187390000Y-98435250I0J-243750D01*
G01*
X187390000Y-98922750D01*
G75*
G02*
X187146250Y-99166500I-243750J0D01*
G01*
G37*
G36*
G01*
X187146250Y-97291500D02*
X186233750Y-97291500D01*
G75*
G02*
X185990000Y-97047750I0J243750D01*
G01*
X185990000Y-96560250D01*
G75*
G02*
X186233750Y-96316500I243750J0D01*
G01*
X187146250Y-96316500D01*
G75*
G02*
X187390000Y-96560250I0J-243750D01*
G01*
X187390000Y-97047750D01*
G75*
G02*
X187146250Y-97291500I-243750J0D01*
G01*
G37*
%TD*%
D18*
%TO.C,J3*%
X177300000Y-96000000D03*
X177300000Y-104800000D03*
X182800000Y-96000000D03*
X182800000Y-104800000D03*
D19*
X182800000Y-98800000D03*
X182800000Y-99600000D03*
X182800000Y-100400000D03*
X182800000Y-101200000D03*
X182800000Y-102000000D03*
%TD*%
D20*
%TO.C,L1*%
X182372000Y-70485000D03*
X177772000Y-70485000D03*
%TD*%
D11*
%TO.C,Q1*%
X233696000Y-109794000D03*
X233696000Y-111694000D03*
X235696000Y-110744000D03*
%TD*%
%TO.C,Q2*%
X233696000Y-117414000D03*
X233696000Y-119314000D03*
X235696000Y-118364000D03*
%TD*%
%TO.C,Q3*%
X233696000Y-113604000D03*
X233696000Y-115504000D03*
X235696000Y-114554000D03*
%TD*%
%TO.C,Q4*%
X235696000Y-106934000D03*
X233696000Y-107884000D03*
X233696000Y-105984000D03*
%TD*%
%TO.C,Q5*%
X233569000Y-86807000D03*
X233569000Y-88707000D03*
X235569000Y-87757000D03*
%TD*%
%TO.C,Q6*%
X231759000Y-85090000D03*
X229759000Y-86040000D03*
X229759000Y-84140000D03*
%TD*%
%TO.C,Q7*%
X229775000Y-89220000D03*
X229775000Y-91120000D03*
X231775000Y-90170000D03*
%TD*%
%TO.C,Q8*%
X233569000Y-92014000D03*
X233569000Y-93914000D03*
X235569000Y-92964000D03*
%TD*%
%TO.C,R1*%
G36*
G01*
X202234500Y-115899250D02*
X202234500Y-114986750D01*
G75*
G02*
X202478250Y-114743000I243750J0D01*
G01*
X202965750Y-114743000D01*
G75*
G02*
X203209500Y-114986750I0J-243750D01*
G01*
X203209500Y-115899250D01*
G75*
G02*
X202965750Y-116143000I-243750J0D01*
G01*
X202478250Y-116143000D01*
G75*
G02*
X202234500Y-115899250I0J243750D01*
G01*
G37*
G36*
G01*
X204109500Y-115899250D02*
X204109500Y-114986750D01*
G75*
G02*
X204353250Y-114743000I243750J0D01*
G01*
X204840750Y-114743000D01*
G75*
G02*
X205084500Y-114986750I0J-243750D01*
G01*
X205084500Y-115899250D01*
G75*
G02*
X204840750Y-116143000I-243750J0D01*
G01*
X204353250Y-116143000D01*
G75*
G02*
X204109500Y-115899250I0J243750D01*
G01*
G37*
%TD*%
%TO.C,R2*%
G36*
G01*
X216459750Y-110305000D02*
X217372250Y-110305000D01*
G75*
G02*
X217616000Y-110548750I0J-243750D01*
G01*
X217616000Y-111036250D01*
G75*
G02*
X217372250Y-111280000I-243750J0D01*
G01*
X216459750Y-111280000D01*
G75*
G02*
X216216000Y-111036250I0J243750D01*
G01*
X216216000Y-110548750D01*
G75*
G02*
X216459750Y-110305000I243750J0D01*
G01*
G37*
G36*
G01*
X216459750Y-108430000D02*
X217372250Y-108430000D01*
G75*
G02*
X217616000Y-108673750I0J-243750D01*
G01*
X217616000Y-109161250D01*
G75*
G02*
X217372250Y-109405000I-243750J0D01*
G01*
X216459750Y-109405000D01*
G75*
G02*
X216216000Y-109161250I0J243750D01*
G01*
X216216000Y-108673750D01*
G75*
G02*
X216459750Y-108430000I243750J0D01*
G01*
G37*
%TD*%
%TO.C,R3*%
G36*
G01*
X203385000Y-122860750D02*
X203385000Y-123773250D01*
G75*
G02*
X203141250Y-124017000I-243750J0D01*
G01*
X202653750Y-124017000D01*
G75*
G02*
X202410000Y-123773250I0J243750D01*
G01*
X202410000Y-122860750D01*
G75*
G02*
X202653750Y-122617000I243750J0D01*
G01*
X203141250Y-122617000D01*
G75*
G02*
X203385000Y-122860750I0J-243750D01*
G01*
G37*
G36*
G01*
X205260000Y-122860750D02*
X205260000Y-123773250D01*
G75*
G02*
X205016250Y-124017000I-243750J0D01*
G01*
X204528750Y-124017000D01*
G75*
G02*
X204285000Y-123773250I0J243750D01*
G01*
X204285000Y-122860750D01*
G75*
G02*
X204528750Y-122617000I243750J0D01*
G01*
X205016250Y-122617000D01*
G75*
G02*
X205260000Y-122860750I0J-243750D01*
G01*
G37*
%TD*%
%TO.C,R4*%
G36*
G01*
X201625500Y-122860750D02*
X201625500Y-123773250D01*
G75*
G02*
X201381750Y-124017000I-243750J0D01*
G01*
X200894250Y-124017000D01*
G75*
G02*
X200650500Y-123773250I0J243750D01*
G01*
X200650500Y-122860750D01*
G75*
G02*
X200894250Y-122617000I243750J0D01*
G01*
X201381750Y-122617000D01*
G75*
G02*
X201625500Y-122860750I0J-243750D01*
G01*
G37*
G36*
G01*
X199750500Y-122860750D02*
X199750500Y-123773250D01*
G75*
G02*
X199506750Y-124017000I-243750J0D01*
G01*
X199019250Y-124017000D01*
G75*
G02*
X198775500Y-123773250I0J243750D01*
G01*
X198775500Y-122860750D01*
G75*
G02*
X199019250Y-122617000I243750J0D01*
G01*
X199506750Y-122617000D01*
G75*
G02*
X199750500Y-122860750I0J-243750D01*
G01*
G37*
%TD*%
%TO.C,R6*%
G36*
G01*
X179176500Y-82855750D02*
X179176500Y-83768250D01*
G75*
G02*
X178932750Y-84012000I-243750J0D01*
G01*
X178445250Y-84012000D01*
G75*
G02*
X178201500Y-83768250I0J243750D01*
G01*
X178201500Y-82855750D01*
G75*
G02*
X178445250Y-82612000I243750J0D01*
G01*
X178932750Y-82612000D01*
G75*
G02*
X179176500Y-82855750I0J-243750D01*
G01*
G37*
G36*
G01*
X181051500Y-82855750D02*
X181051500Y-83768250D01*
G75*
G02*
X180807750Y-84012000I-243750J0D01*
G01*
X180320250Y-84012000D01*
G75*
G02*
X180076500Y-83768250I0J243750D01*
G01*
X180076500Y-82855750D01*
G75*
G02*
X180320250Y-82612000I243750J0D01*
G01*
X180807750Y-82612000D01*
G75*
G02*
X181051500Y-82855750I0J-243750D01*
G01*
G37*
%TD*%
%TO.C,R7*%
G36*
G01*
X231373500Y-109144750D02*
X231373500Y-110057250D01*
G75*
G02*
X231129750Y-110301000I-243750J0D01*
G01*
X230642250Y-110301000D01*
G75*
G02*
X230398500Y-110057250I0J243750D01*
G01*
X230398500Y-109144750D01*
G75*
G02*
X230642250Y-108901000I243750J0D01*
G01*
X231129750Y-108901000D01*
G75*
G02*
X231373500Y-109144750I0J-243750D01*
G01*
G37*
G36*
G01*
X229498500Y-109144750D02*
X229498500Y-110057250D01*
G75*
G02*
X229254750Y-110301000I-243750J0D01*
G01*
X228767250Y-110301000D01*
G75*
G02*
X228523500Y-110057250I0J243750D01*
G01*
X228523500Y-109144750D01*
G75*
G02*
X228767250Y-108901000I243750J0D01*
G01*
X229254750Y-108901000D01*
G75*
G02*
X229498500Y-109144750I0J-243750D01*
G01*
G37*
%TD*%
%TO.C,R8*%
G36*
G01*
X231343500Y-117272750D02*
X231343500Y-118185250D01*
G75*
G02*
X231099750Y-118429000I-243750J0D01*
G01*
X230612250Y-118429000D01*
G75*
G02*
X230368500Y-118185250I0J243750D01*
G01*
X230368500Y-117272750D01*
G75*
G02*
X230612250Y-117029000I243750J0D01*
G01*
X231099750Y-117029000D01*
G75*
G02*
X231343500Y-117272750I0J-243750D01*
G01*
G37*
G36*
G01*
X229468500Y-117272750D02*
X229468500Y-118185250D01*
G75*
G02*
X229224750Y-118429000I-243750J0D01*
G01*
X228737250Y-118429000D01*
G75*
G02*
X228493500Y-118185250I0J243750D01*
G01*
X228493500Y-117272750D01*
G75*
G02*
X228737250Y-117029000I243750J0D01*
G01*
X229224750Y-117029000D01*
G75*
G02*
X229468500Y-117272750I0J-243750D01*
G01*
G37*
%TD*%
%TO.C,R9*%
G36*
G01*
X230368500Y-112089250D02*
X230368500Y-111176750D01*
G75*
G02*
X230612250Y-110933000I243750J0D01*
G01*
X231099750Y-110933000D01*
G75*
G02*
X231343500Y-111176750I0J-243750D01*
G01*
X231343500Y-112089250D01*
G75*
G02*
X231099750Y-112333000I-243750J0D01*
G01*
X230612250Y-112333000D01*
G75*
G02*
X230368500Y-112089250I0J243750D01*
G01*
G37*
G36*
G01*
X228493500Y-112089250D02*
X228493500Y-111176750D01*
G75*
G02*
X228737250Y-110933000I243750J0D01*
G01*
X229224750Y-110933000D01*
G75*
G02*
X229468500Y-111176750I0J-243750D01*
G01*
X229468500Y-112089250D01*
G75*
G02*
X229224750Y-112333000I-243750J0D01*
G01*
X228737250Y-112333000D01*
G75*
G02*
X228493500Y-112089250I0J243750D01*
G01*
G37*
%TD*%
%TO.C,R10*%
G36*
G01*
X231343500Y-119304750D02*
X231343500Y-120217250D01*
G75*
G02*
X231099750Y-120461000I-243750J0D01*
G01*
X230612250Y-120461000D01*
G75*
G02*
X230368500Y-120217250I0J243750D01*
G01*
X230368500Y-119304750D01*
G75*
G02*
X230612250Y-119061000I243750J0D01*
G01*
X231099750Y-119061000D01*
G75*
G02*
X231343500Y-119304750I0J-243750D01*
G01*
G37*
G36*
G01*
X229468500Y-119304750D02*
X229468500Y-120217250D01*
G75*
G02*
X229224750Y-120461000I-243750J0D01*
G01*
X228737250Y-120461000D01*
G75*
G02*
X228493500Y-120217250I0J243750D01*
G01*
X228493500Y-119304750D01*
G75*
G02*
X228737250Y-119061000I243750J0D01*
G01*
X229224750Y-119061000D01*
G75*
G02*
X229468500Y-119304750I0J-243750D01*
G01*
G37*
%TD*%
%TO.C,R11*%
G36*
G01*
X231343500Y-113208750D02*
X231343500Y-114121250D01*
G75*
G02*
X231099750Y-114365000I-243750J0D01*
G01*
X230612250Y-114365000D01*
G75*
G02*
X230368500Y-114121250I0J243750D01*
G01*
X230368500Y-113208750D01*
G75*
G02*
X230612250Y-112965000I243750J0D01*
G01*
X231099750Y-112965000D01*
G75*
G02*
X231343500Y-113208750I0J-243750D01*
G01*
G37*
G36*
G01*
X229468500Y-113208750D02*
X229468500Y-114121250D01*
G75*
G02*
X229224750Y-114365000I-243750J0D01*
G01*
X228737250Y-114365000D01*
G75*
G02*
X228493500Y-114121250I0J243750D01*
G01*
X228493500Y-113208750D01*
G75*
G02*
X228737250Y-112965000I243750J0D01*
G01*
X229224750Y-112965000D01*
G75*
G02*
X229468500Y-113208750I0J-243750D01*
G01*
G37*
%TD*%
%TO.C,R12*%
G36*
G01*
X231343500Y-105080750D02*
X231343500Y-105993250D01*
G75*
G02*
X231099750Y-106237000I-243750J0D01*
G01*
X230612250Y-106237000D01*
G75*
G02*
X230368500Y-105993250I0J243750D01*
G01*
X230368500Y-105080750D01*
G75*
G02*
X230612250Y-104837000I243750J0D01*
G01*
X231099750Y-104837000D01*
G75*
G02*
X231343500Y-105080750I0J-243750D01*
G01*
G37*
G36*
G01*
X229468500Y-105080750D02*
X229468500Y-105993250D01*
G75*
G02*
X229224750Y-106237000I-243750J0D01*
G01*
X228737250Y-106237000D01*
G75*
G02*
X228493500Y-105993250I0J243750D01*
G01*
X228493500Y-105080750D01*
G75*
G02*
X228737250Y-104837000I243750J0D01*
G01*
X229224750Y-104837000D01*
G75*
G02*
X229468500Y-105080750I0J-243750D01*
G01*
G37*
%TD*%
%TO.C,R13*%
G36*
G01*
X230368500Y-116153250D02*
X230368500Y-115240750D01*
G75*
G02*
X230612250Y-114997000I243750J0D01*
G01*
X231099750Y-114997000D01*
G75*
G02*
X231343500Y-115240750I0J-243750D01*
G01*
X231343500Y-116153250D01*
G75*
G02*
X231099750Y-116397000I-243750J0D01*
G01*
X230612250Y-116397000D01*
G75*
G02*
X230368500Y-116153250I0J243750D01*
G01*
G37*
G36*
G01*
X228493500Y-116153250D02*
X228493500Y-115240750D01*
G75*
G02*
X228737250Y-114997000I243750J0D01*
G01*
X229224750Y-114997000D01*
G75*
G02*
X229468500Y-115240750I0J-243750D01*
G01*
X229468500Y-116153250D01*
G75*
G02*
X229224750Y-116397000I-243750J0D01*
G01*
X228737250Y-116397000D01*
G75*
G02*
X228493500Y-116153250I0J243750D01*
G01*
G37*
%TD*%
%TO.C,R14*%
G36*
G01*
X230368500Y-108025250D02*
X230368500Y-107112750D01*
G75*
G02*
X230612250Y-106869000I243750J0D01*
G01*
X231099750Y-106869000D01*
G75*
G02*
X231343500Y-107112750I0J-243750D01*
G01*
X231343500Y-108025250D01*
G75*
G02*
X231099750Y-108269000I-243750J0D01*
G01*
X230612250Y-108269000D01*
G75*
G02*
X230368500Y-108025250I0J243750D01*
G01*
G37*
G36*
G01*
X228493500Y-108025250D02*
X228493500Y-107112750D01*
G75*
G02*
X228737250Y-106869000I243750J0D01*
G01*
X229224750Y-106869000D01*
G75*
G02*
X229468500Y-107112750I0J-243750D01*
G01*
X229468500Y-108025250D01*
G75*
G02*
X229224750Y-108269000I-243750J0D01*
G01*
X228737250Y-108269000D01*
G75*
G02*
X228493500Y-108025250I0J243750D01*
G01*
G37*
%TD*%
%TO.C,R15*%
G36*
G01*
X205791750Y-99969500D02*
X206704250Y-99969500D01*
G75*
G02*
X206948000Y-100213250I0J-243750D01*
G01*
X206948000Y-100700750D01*
G75*
G02*
X206704250Y-100944500I-243750J0D01*
G01*
X205791750Y-100944500D01*
G75*
G02*
X205548000Y-100700750I0J243750D01*
G01*
X205548000Y-100213250D01*
G75*
G02*
X205791750Y-99969500I243750J0D01*
G01*
G37*
G36*
G01*
X205791750Y-98094500D02*
X206704250Y-98094500D01*
G75*
G02*
X206948000Y-98338250I0J-243750D01*
G01*
X206948000Y-98825750D01*
G75*
G02*
X206704250Y-99069500I-243750J0D01*
G01*
X205791750Y-99069500D01*
G75*
G02*
X205548000Y-98825750I0J243750D01*
G01*
X205548000Y-98338250D01*
G75*
G02*
X205791750Y-98094500I243750J0D01*
G01*
G37*
%TD*%
%TO.C,R16*%
G36*
G01*
X205791750Y-91236500D02*
X206704250Y-91236500D01*
G75*
G02*
X206948000Y-91480250I0J-243750D01*
G01*
X206948000Y-91967750D01*
G75*
G02*
X206704250Y-92211500I-243750J0D01*
G01*
X205791750Y-92211500D01*
G75*
G02*
X205548000Y-91967750I0J243750D01*
G01*
X205548000Y-91480250D01*
G75*
G02*
X205791750Y-91236500I243750J0D01*
G01*
G37*
G36*
G01*
X205791750Y-93111500D02*
X206704250Y-93111500D01*
G75*
G02*
X206948000Y-93355250I0J-243750D01*
G01*
X206948000Y-93842750D01*
G75*
G02*
X206704250Y-94086500I-243750J0D01*
G01*
X205791750Y-94086500D01*
G75*
G02*
X205548000Y-93842750I0J243750D01*
G01*
X205548000Y-93355250D01*
G75*
G02*
X205791750Y-93111500I243750J0D01*
G01*
G37*
%TD*%
%TO.C,R17*%
G36*
G01*
X230182000Y-80315750D02*
X230182000Y-81228250D01*
G75*
G02*
X229938250Y-81472000I-243750J0D01*
G01*
X229450750Y-81472000D01*
G75*
G02*
X229207000Y-81228250I0J243750D01*
G01*
X229207000Y-80315750D01*
G75*
G02*
X229450750Y-80072000I243750J0D01*
G01*
X229938250Y-80072000D01*
G75*
G02*
X230182000Y-80315750I0J-243750D01*
G01*
G37*
G36*
G01*
X232057000Y-80315750D02*
X232057000Y-81228250D01*
G75*
G02*
X231813250Y-81472000I-243750J0D01*
G01*
X231325750Y-81472000D01*
G75*
G02*
X231082000Y-81228250I0J243750D01*
G01*
X231082000Y-80315750D01*
G75*
G02*
X231325750Y-80072000I243750J0D01*
G01*
X231813250Y-80072000D01*
G75*
G02*
X232057000Y-80315750I0J-243750D01*
G01*
G37*
%TD*%
%TO.C,R18*%
G36*
G01*
X227477500Y-83260250D02*
X227477500Y-82347750D01*
G75*
G02*
X227721250Y-82104000I243750J0D01*
G01*
X228208750Y-82104000D01*
G75*
G02*
X228452500Y-82347750I0J-243750D01*
G01*
X228452500Y-83260250D01*
G75*
G02*
X228208750Y-83504000I-243750J0D01*
G01*
X227721250Y-83504000D01*
G75*
G02*
X227477500Y-83260250I0J243750D01*
G01*
G37*
G36*
G01*
X225602500Y-83260250D02*
X225602500Y-82347750D01*
G75*
G02*
X225846250Y-82104000I243750J0D01*
G01*
X226333750Y-82104000D01*
G75*
G02*
X226577500Y-82347750I0J-243750D01*
G01*
X226577500Y-83260250D01*
G75*
G02*
X226333750Y-83504000I-243750J0D01*
G01*
X225846250Y-83504000D01*
G75*
G02*
X225602500Y-83260250I0J243750D01*
G01*
G37*
%TD*%
%TO.C,R19*%
G36*
G01*
X233095500Y-85292250D02*
X233095500Y-84379750D01*
G75*
G02*
X233339250Y-84136000I243750J0D01*
G01*
X233826750Y-84136000D01*
G75*
G02*
X234070500Y-84379750I0J-243750D01*
G01*
X234070500Y-85292250D01*
G75*
G02*
X233826750Y-85536000I-243750J0D01*
G01*
X233339250Y-85536000D01*
G75*
G02*
X233095500Y-85292250I0J243750D01*
G01*
G37*
G36*
G01*
X234970500Y-85292250D02*
X234970500Y-84379750D01*
G75*
G02*
X235214250Y-84136000I243750J0D01*
G01*
X235701750Y-84136000D01*
G75*
G02*
X235945500Y-84379750I0J-243750D01*
G01*
X235945500Y-85292250D01*
G75*
G02*
X235701750Y-85536000I-243750J0D01*
G01*
X235214250Y-85536000D01*
G75*
G02*
X234970500Y-85292250I0J243750D01*
G01*
G37*
%TD*%
%TO.C,R20*%
G36*
G01*
X227477500Y-85419250D02*
X227477500Y-84506750D01*
G75*
G02*
X227721250Y-84263000I243750J0D01*
G01*
X228208750Y-84263000D01*
G75*
G02*
X228452500Y-84506750I0J-243750D01*
G01*
X228452500Y-85419250D01*
G75*
G02*
X228208750Y-85663000I-243750J0D01*
G01*
X227721250Y-85663000D01*
G75*
G02*
X227477500Y-85419250I0J243750D01*
G01*
G37*
G36*
G01*
X225602500Y-85419250D02*
X225602500Y-84506750D01*
G75*
G02*
X225846250Y-84263000I243750J0D01*
G01*
X226333750Y-84263000D01*
G75*
G02*
X226577500Y-84506750I0J-243750D01*
G01*
X226577500Y-85419250D01*
G75*
G02*
X226333750Y-85663000I-243750J0D01*
G01*
X225846250Y-85663000D01*
G75*
G02*
X225602500Y-85419250I0J243750D01*
G01*
G37*
%TD*%
%TO.C,R21*%
G36*
G01*
X228422500Y-86665750D02*
X228422500Y-87578250D01*
G75*
G02*
X228178750Y-87822000I-243750J0D01*
G01*
X227691250Y-87822000D01*
G75*
G02*
X227447500Y-87578250I0J243750D01*
G01*
X227447500Y-86665750D01*
G75*
G02*
X227691250Y-86422000I243750J0D01*
G01*
X228178750Y-86422000D01*
G75*
G02*
X228422500Y-86665750I0J-243750D01*
G01*
G37*
G36*
G01*
X226547500Y-86665750D02*
X226547500Y-87578250D01*
G75*
G02*
X226303750Y-87822000I-243750J0D01*
G01*
X225816250Y-87822000D01*
G75*
G02*
X225572500Y-87578250I0J243750D01*
G01*
X225572500Y-86665750D01*
G75*
G02*
X225816250Y-86422000I243750J0D01*
G01*
X226303750Y-86422000D01*
G75*
G02*
X226547500Y-86665750I0J-243750D01*
G01*
G37*
%TD*%
%TO.C,R22*%
G36*
G01*
X230357500Y-92634750D02*
X230357500Y-93547250D01*
G75*
G02*
X230113750Y-93791000I-243750J0D01*
G01*
X229626250Y-93791000D01*
G75*
G02*
X229382500Y-93547250I0J243750D01*
G01*
X229382500Y-92634750D01*
G75*
G02*
X229626250Y-92391000I243750J0D01*
G01*
X230113750Y-92391000D01*
G75*
G02*
X230357500Y-92634750I0J-243750D01*
G01*
G37*
G36*
G01*
X232232500Y-92634750D02*
X232232500Y-93547250D01*
G75*
G02*
X231988750Y-93791000I-243750J0D01*
G01*
X231501250Y-93791000D01*
G75*
G02*
X231257500Y-93547250I0J243750D01*
G01*
X231257500Y-92634750D01*
G75*
G02*
X231501250Y-92391000I243750J0D01*
G01*
X231988750Y-92391000D01*
G75*
G02*
X232232500Y-92634750I0J-243750D01*
G01*
G37*
%TD*%
%TO.C,R23*%
G36*
G01*
X226547500Y-88824750D02*
X226547500Y-89737250D01*
G75*
G02*
X226303750Y-89981000I-243750J0D01*
G01*
X225816250Y-89981000D01*
G75*
G02*
X225572500Y-89737250I0J243750D01*
G01*
X225572500Y-88824750D01*
G75*
G02*
X225816250Y-88581000I243750J0D01*
G01*
X226303750Y-88581000D01*
G75*
G02*
X226547500Y-88824750I0J-243750D01*
G01*
G37*
G36*
G01*
X228422500Y-88824750D02*
X228422500Y-89737250D01*
G75*
G02*
X228178750Y-89981000I-243750J0D01*
G01*
X227691250Y-89981000D01*
G75*
G02*
X227447500Y-89737250I0J243750D01*
G01*
X227447500Y-88824750D01*
G75*
G02*
X227691250Y-88581000I243750J0D01*
G01*
X228178750Y-88581000D01*
G75*
G02*
X228422500Y-88824750I0J-243750D01*
G01*
G37*
%TD*%
%TO.C,R24*%
G36*
G01*
X226577500Y-92634750D02*
X226577500Y-93547250D01*
G75*
G02*
X226333750Y-93791000I-243750J0D01*
G01*
X225846250Y-93791000D01*
G75*
G02*
X225602500Y-93547250I0J243750D01*
G01*
X225602500Y-92634750D01*
G75*
G02*
X225846250Y-92391000I243750J0D01*
G01*
X226333750Y-92391000D01*
G75*
G02*
X226577500Y-92634750I0J-243750D01*
G01*
G37*
G36*
G01*
X228452500Y-92634750D02*
X228452500Y-93547250D01*
G75*
G02*
X228208750Y-93791000I-243750J0D01*
G01*
X227721250Y-93791000D01*
G75*
G02*
X227477500Y-93547250I0J243750D01*
G01*
X227477500Y-92634750D01*
G75*
G02*
X227721250Y-92391000I243750J0D01*
G01*
X228208750Y-92391000D01*
G75*
G02*
X228452500Y-92634750I0J-243750D01*
G01*
G37*
%TD*%
%TO.C,U1*%
G36*
G01*
X208272000Y-119987000D02*
X208022000Y-119987000D01*
G75*
G02*
X207897000Y-119862000I0J125000D01*
G01*
X207897000Y-118612000D01*
G75*
G02*
X208022000Y-118487000I125000J0D01*
G01*
X208272000Y-118487000D01*
G75*
G02*
X208397000Y-118612000I0J-125000D01*
G01*
X208397000Y-119862000D01*
G75*
G02*
X208272000Y-119987000I-125000J0D01*
G01*
G37*
G36*
G01*
X209072000Y-119987000D02*
X208822000Y-119987000D01*
G75*
G02*
X208697000Y-119862000I0J125000D01*
G01*
X208697000Y-118612000D01*
G75*
G02*
X208822000Y-118487000I125000J0D01*
G01*
X209072000Y-118487000D01*
G75*
G02*
X209197000Y-118612000I0J-125000D01*
G01*
X209197000Y-119862000D01*
G75*
G02*
X209072000Y-119987000I-125000J0D01*
G01*
G37*
G36*
G01*
X209872000Y-119987000D02*
X209622000Y-119987000D01*
G75*
G02*
X209497000Y-119862000I0J125000D01*
G01*
X209497000Y-118612000D01*
G75*
G02*
X209622000Y-118487000I125000J0D01*
G01*
X209872000Y-118487000D01*
G75*
G02*
X209997000Y-118612000I0J-125000D01*
G01*
X209997000Y-119862000D01*
G75*
G02*
X209872000Y-119987000I-125000J0D01*
G01*
G37*
G36*
G01*
X210672000Y-119987000D02*
X210422000Y-119987000D01*
G75*
G02*
X210297000Y-119862000I0J125000D01*
G01*
X210297000Y-118612000D01*
G75*
G02*
X210422000Y-118487000I125000J0D01*
G01*
X210672000Y-118487000D01*
G75*
G02*
X210797000Y-118612000I0J-125000D01*
G01*
X210797000Y-119862000D01*
G75*
G02*
X210672000Y-119987000I-125000J0D01*
G01*
G37*
G36*
G01*
X211472000Y-119987000D02*
X211222000Y-119987000D01*
G75*
G02*
X211097000Y-119862000I0J125000D01*
G01*
X211097000Y-118612000D01*
G75*
G02*
X211222000Y-118487000I125000J0D01*
G01*
X211472000Y-118487000D01*
G75*
G02*
X211597000Y-118612000I0J-125000D01*
G01*
X211597000Y-119862000D01*
G75*
G02*
X211472000Y-119987000I-125000J0D01*
G01*
G37*
G36*
G01*
X212272000Y-119987000D02*
X212022000Y-119987000D01*
G75*
G02*
X211897000Y-119862000I0J125000D01*
G01*
X211897000Y-118612000D01*
G75*
G02*
X212022000Y-118487000I125000J0D01*
G01*
X212272000Y-118487000D01*
G75*
G02*
X212397000Y-118612000I0J-125000D01*
G01*
X212397000Y-119862000D01*
G75*
G02*
X212272000Y-119987000I-125000J0D01*
G01*
G37*
G36*
G01*
X213072000Y-119987000D02*
X212822000Y-119987000D01*
G75*
G02*
X212697000Y-119862000I0J125000D01*
G01*
X212697000Y-118612000D01*
G75*
G02*
X212822000Y-118487000I125000J0D01*
G01*
X213072000Y-118487000D01*
G75*
G02*
X213197000Y-118612000I0J-125000D01*
G01*
X213197000Y-119862000D01*
G75*
G02*
X213072000Y-119987000I-125000J0D01*
G01*
G37*
G36*
G01*
X213872000Y-119987000D02*
X213622000Y-119987000D01*
G75*
G02*
X213497000Y-119862000I0J125000D01*
G01*
X213497000Y-118612000D01*
G75*
G02*
X213622000Y-118487000I125000J0D01*
G01*
X213872000Y-118487000D01*
G75*
G02*
X213997000Y-118612000I0J-125000D01*
G01*
X213997000Y-119862000D01*
G75*
G02*
X213872000Y-119987000I-125000J0D01*
G01*
G37*
G36*
G01*
X215747000Y-118112000D02*
X214497000Y-118112000D01*
G75*
G02*
X214372000Y-117987000I0J125000D01*
G01*
X214372000Y-117737000D01*
G75*
G02*
X214497000Y-117612000I125000J0D01*
G01*
X215747000Y-117612000D01*
G75*
G02*
X215872000Y-117737000I0J-125000D01*
G01*
X215872000Y-117987000D01*
G75*
G02*
X215747000Y-118112000I-125000J0D01*
G01*
G37*
G36*
G01*
X215747000Y-117312000D02*
X214497000Y-117312000D01*
G75*
G02*
X214372000Y-117187000I0J125000D01*
G01*
X214372000Y-116937000D01*
G75*
G02*
X214497000Y-116812000I125000J0D01*
G01*
X215747000Y-116812000D01*
G75*
G02*
X215872000Y-116937000I0J-125000D01*
G01*
X215872000Y-117187000D01*
G75*
G02*
X215747000Y-117312000I-125000J0D01*
G01*
G37*
G36*
G01*
X215747000Y-116512000D02*
X214497000Y-116512000D01*
G75*
G02*
X214372000Y-116387000I0J125000D01*
G01*
X214372000Y-116137000D01*
G75*
G02*
X214497000Y-116012000I125000J0D01*
G01*
X215747000Y-116012000D01*
G75*
G02*
X215872000Y-116137000I0J-125000D01*
G01*
X215872000Y-116387000D01*
G75*
G02*
X215747000Y-116512000I-125000J0D01*
G01*
G37*
G36*
G01*
X215747000Y-115712000D02*
X214497000Y-115712000D01*
G75*
G02*
X214372000Y-115587000I0J125000D01*
G01*
X214372000Y-115337000D01*
G75*
G02*
X214497000Y-115212000I125000J0D01*
G01*
X215747000Y-115212000D01*
G75*
G02*
X215872000Y-115337000I0J-125000D01*
G01*
X215872000Y-115587000D01*
G75*
G02*
X215747000Y-115712000I-125000J0D01*
G01*
G37*
G36*
G01*
X215747000Y-114912000D02*
X214497000Y-114912000D01*
G75*
G02*
X214372000Y-114787000I0J125000D01*
G01*
X214372000Y-114537000D01*
G75*
G02*
X214497000Y-114412000I125000J0D01*
G01*
X215747000Y-114412000D01*
G75*
G02*
X215872000Y-114537000I0J-125000D01*
G01*
X215872000Y-114787000D01*
G75*
G02*
X215747000Y-114912000I-125000J0D01*
G01*
G37*
G36*
G01*
X215747000Y-114112000D02*
X214497000Y-114112000D01*
G75*
G02*
X214372000Y-113987000I0J125000D01*
G01*
X214372000Y-113737000D01*
G75*
G02*
X214497000Y-113612000I125000J0D01*
G01*
X215747000Y-113612000D01*
G75*
G02*
X215872000Y-113737000I0J-125000D01*
G01*
X215872000Y-113987000D01*
G75*
G02*
X215747000Y-114112000I-125000J0D01*
G01*
G37*
G36*
G01*
X215747000Y-113312000D02*
X214497000Y-113312000D01*
G75*
G02*
X214372000Y-113187000I0J125000D01*
G01*
X214372000Y-112937000D01*
G75*
G02*
X214497000Y-112812000I125000J0D01*
G01*
X215747000Y-112812000D01*
G75*
G02*
X215872000Y-112937000I0J-125000D01*
G01*
X215872000Y-113187000D01*
G75*
G02*
X215747000Y-113312000I-125000J0D01*
G01*
G37*
G36*
G01*
X215747000Y-112512000D02*
X214497000Y-112512000D01*
G75*
G02*
X214372000Y-112387000I0J125000D01*
G01*
X214372000Y-112137000D01*
G75*
G02*
X214497000Y-112012000I125000J0D01*
G01*
X215747000Y-112012000D01*
G75*
G02*
X215872000Y-112137000I0J-125000D01*
G01*
X215872000Y-112387000D01*
G75*
G02*
X215747000Y-112512000I-125000J0D01*
G01*
G37*
G36*
G01*
X213872000Y-111637000D02*
X213622000Y-111637000D01*
G75*
G02*
X213497000Y-111512000I0J125000D01*
G01*
X213497000Y-110262000D01*
G75*
G02*
X213622000Y-110137000I125000J0D01*
G01*
X213872000Y-110137000D01*
G75*
G02*
X213997000Y-110262000I0J-125000D01*
G01*
X213997000Y-111512000D01*
G75*
G02*
X213872000Y-111637000I-125000J0D01*
G01*
G37*
G36*
G01*
X213072000Y-111637000D02*
X212822000Y-111637000D01*
G75*
G02*
X212697000Y-111512000I0J125000D01*
G01*
X212697000Y-110262000D01*
G75*
G02*
X212822000Y-110137000I125000J0D01*
G01*
X213072000Y-110137000D01*
G75*
G02*
X213197000Y-110262000I0J-125000D01*
G01*
X213197000Y-111512000D01*
G75*
G02*
X213072000Y-111637000I-125000J0D01*
G01*
G37*
G36*
G01*
X212272000Y-111637000D02*
X212022000Y-111637000D01*
G75*
G02*
X211897000Y-111512000I0J125000D01*
G01*
X211897000Y-110262000D01*
G75*
G02*
X212022000Y-110137000I125000J0D01*
G01*
X212272000Y-110137000D01*
G75*
G02*
X212397000Y-110262000I0J-125000D01*
G01*
X212397000Y-111512000D01*
G75*
G02*
X212272000Y-111637000I-125000J0D01*
G01*
G37*
G36*
G01*
X211472000Y-111637000D02*
X211222000Y-111637000D01*
G75*
G02*
X211097000Y-111512000I0J125000D01*
G01*
X211097000Y-110262000D01*
G75*
G02*
X211222000Y-110137000I125000J0D01*
G01*
X211472000Y-110137000D01*
G75*
G02*
X211597000Y-110262000I0J-125000D01*
G01*
X211597000Y-111512000D01*
G75*
G02*
X211472000Y-111637000I-125000J0D01*
G01*
G37*
G36*
G01*
X210672000Y-111637000D02*
X210422000Y-111637000D01*
G75*
G02*
X210297000Y-111512000I0J125000D01*
G01*
X210297000Y-110262000D01*
G75*
G02*
X210422000Y-110137000I125000J0D01*
G01*
X210672000Y-110137000D01*
G75*
G02*
X210797000Y-110262000I0J-125000D01*
G01*
X210797000Y-111512000D01*
G75*
G02*
X210672000Y-111637000I-125000J0D01*
G01*
G37*
G36*
G01*
X209872000Y-111637000D02*
X209622000Y-111637000D01*
G75*
G02*
X209497000Y-111512000I0J125000D01*
G01*
X209497000Y-110262000D01*
G75*
G02*
X209622000Y-110137000I125000J0D01*
G01*
X209872000Y-110137000D01*
G75*
G02*
X209997000Y-110262000I0J-125000D01*
G01*
X209997000Y-111512000D01*
G75*
G02*
X209872000Y-111637000I-125000J0D01*
G01*
G37*
G36*
G01*
X209072000Y-111637000D02*
X208822000Y-111637000D01*
G75*
G02*
X208697000Y-111512000I0J125000D01*
G01*
X208697000Y-110262000D01*
G75*
G02*
X208822000Y-110137000I125000J0D01*
G01*
X209072000Y-110137000D01*
G75*
G02*
X209197000Y-110262000I0J-125000D01*
G01*
X209197000Y-111512000D01*
G75*
G02*
X209072000Y-111637000I-125000J0D01*
G01*
G37*
G36*
G01*
X208272000Y-111637000D02*
X208022000Y-111637000D01*
G75*
G02*
X207897000Y-111512000I0J125000D01*
G01*
X207897000Y-110262000D01*
G75*
G02*
X208022000Y-110137000I125000J0D01*
G01*
X208272000Y-110137000D01*
G75*
G02*
X208397000Y-110262000I0J-125000D01*
G01*
X208397000Y-111512000D01*
G75*
G02*
X208272000Y-111637000I-125000J0D01*
G01*
G37*
G36*
G01*
X207397000Y-112512000D02*
X206147000Y-112512000D01*
G75*
G02*
X206022000Y-112387000I0J125000D01*
G01*
X206022000Y-112137000D01*
G75*
G02*
X206147000Y-112012000I125000J0D01*
G01*
X207397000Y-112012000D01*
G75*
G02*
X207522000Y-112137000I0J-125000D01*
G01*
X207522000Y-112387000D01*
G75*
G02*
X207397000Y-112512000I-125000J0D01*
G01*
G37*
G36*
G01*
X207397000Y-113312000D02*
X206147000Y-113312000D01*
G75*
G02*
X206022000Y-113187000I0J125000D01*
G01*
X206022000Y-112937000D01*
G75*
G02*
X206147000Y-112812000I125000J0D01*
G01*
X207397000Y-112812000D01*
G75*
G02*
X207522000Y-112937000I0J-125000D01*
G01*
X207522000Y-113187000D01*
G75*
G02*
X207397000Y-113312000I-125000J0D01*
G01*
G37*
G36*
G01*
X207397000Y-114112000D02*
X206147000Y-114112000D01*
G75*
G02*
X206022000Y-113987000I0J125000D01*
G01*
X206022000Y-113737000D01*
G75*
G02*
X206147000Y-113612000I125000J0D01*
G01*
X207397000Y-113612000D01*
G75*
G02*
X207522000Y-113737000I0J-125000D01*
G01*
X207522000Y-113987000D01*
G75*
G02*
X207397000Y-114112000I-125000J0D01*
G01*
G37*
G36*
G01*
X207397000Y-114912000D02*
X206147000Y-114912000D01*
G75*
G02*
X206022000Y-114787000I0J125000D01*
G01*
X206022000Y-114537000D01*
G75*
G02*
X206147000Y-114412000I125000J0D01*
G01*
X207397000Y-114412000D01*
G75*
G02*
X207522000Y-114537000I0J-125000D01*
G01*
X207522000Y-114787000D01*
G75*
G02*
X207397000Y-114912000I-125000J0D01*
G01*
G37*
G36*
G01*
X207397000Y-115712000D02*
X206147000Y-115712000D01*
G75*
G02*
X206022000Y-115587000I0J125000D01*
G01*
X206022000Y-115337000D01*
G75*
G02*
X206147000Y-115212000I125000J0D01*
G01*
X207397000Y-115212000D01*
G75*
G02*
X207522000Y-115337000I0J-125000D01*
G01*
X207522000Y-115587000D01*
G75*
G02*
X207397000Y-115712000I-125000J0D01*
G01*
G37*
G36*
G01*
X207397000Y-116512000D02*
X206147000Y-116512000D01*
G75*
G02*
X206022000Y-116387000I0J125000D01*
G01*
X206022000Y-116137000D01*
G75*
G02*
X206147000Y-116012000I125000J0D01*
G01*
X207397000Y-116012000D01*
G75*
G02*
X207522000Y-116137000I0J-125000D01*
G01*
X207522000Y-116387000D01*
G75*
G02*
X207397000Y-116512000I-125000J0D01*
G01*
G37*
G36*
G01*
X207397000Y-117312000D02*
X206147000Y-117312000D01*
G75*
G02*
X206022000Y-117187000I0J125000D01*
G01*
X206022000Y-116937000D01*
G75*
G02*
X206147000Y-116812000I125000J0D01*
G01*
X207397000Y-116812000D01*
G75*
G02*
X207522000Y-116937000I0J-125000D01*
G01*
X207522000Y-117187000D01*
G75*
G02*
X207397000Y-117312000I-125000J0D01*
G01*
G37*
G36*
G01*
X207397000Y-118112000D02*
X206147000Y-118112000D01*
G75*
G02*
X206022000Y-117987000I0J125000D01*
G01*
X206022000Y-117737000D01*
G75*
G02*
X206147000Y-117612000I125000J0D01*
G01*
X207397000Y-117612000D01*
G75*
G02*
X207522000Y-117737000I0J-125000D01*
G01*
X207522000Y-117987000D01*
G75*
G02*
X207397000Y-118112000I-125000J0D01*
G01*
G37*
%TD*%
D21*
%TO.C,U2*%
X198815000Y-77695000D03*
X198815000Y-75995000D03*
X198815000Y-74295000D03*
X198815000Y-72595000D03*
X198815000Y-70895000D03*
D22*
X187240000Y-71520000D03*
X192090000Y-77070000D03*
X187240000Y-77070000D03*
X192090000Y-71520000D03*
%TD*%
D23*
%TO.C,U3*%
X193846000Y-92998000D03*
X193846000Y-92348000D03*
X193846000Y-91698000D03*
X193846000Y-91048000D03*
X193846000Y-90398000D03*
X193846000Y-89748000D03*
X193846000Y-89098000D03*
X193846000Y-88448000D03*
X193846000Y-87798000D03*
X193846000Y-87148000D03*
X193846000Y-86498000D03*
X193846000Y-85848000D03*
X193846000Y-85198000D03*
X193846000Y-84548000D03*
X186646000Y-84548000D03*
X186646000Y-85198000D03*
X186646000Y-85848000D03*
X186646000Y-86498000D03*
X186646000Y-87148000D03*
X186646000Y-87798000D03*
X186646000Y-88448000D03*
X186646000Y-89098000D03*
X186646000Y-89748000D03*
X186646000Y-90398000D03*
X186646000Y-91048000D03*
X186646000Y-91698000D03*
X186646000Y-92348000D03*
X186646000Y-92998000D03*
%TD*%
%TO.C,U4*%
G36*
G01*
X215670500Y-100639000D02*
X215670500Y-100439000D01*
G75*
G02*
X215770500Y-100339000I100000J0D01*
G01*
X217045500Y-100339000D01*
G75*
G02*
X217145500Y-100439000I0J-100000D01*
G01*
X217145500Y-100639000D01*
G75*
G02*
X217045500Y-100739000I-100000J0D01*
G01*
X215770500Y-100739000D01*
G75*
G02*
X215670500Y-100639000I0J100000D01*
G01*
G37*
G36*
G01*
X215670500Y-101289000D02*
X215670500Y-101089000D01*
G75*
G02*
X215770500Y-100989000I100000J0D01*
G01*
X217045500Y-100989000D01*
G75*
G02*
X217145500Y-101089000I0J-100000D01*
G01*
X217145500Y-101289000D01*
G75*
G02*
X217045500Y-101389000I-100000J0D01*
G01*
X215770500Y-101389000D01*
G75*
G02*
X215670500Y-101289000I0J100000D01*
G01*
G37*
G36*
G01*
X215670500Y-101939000D02*
X215670500Y-101739000D01*
G75*
G02*
X215770500Y-101639000I100000J0D01*
G01*
X217045500Y-101639000D01*
G75*
G02*
X217145500Y-101739000I0J-100000D01*
G01*
X217145500Y-101939000D01*
G75*
G02*
X217045500Y-102039000I-100000J0D01*
G01*
X215770500Y-102039000D01*
G75*
G02*
X215670500Y-101939000I0J100000D01*
G01*
G37*
G36*
G01*
X215670500Y-102589000D02*
X215670500Y-102389000D01*
G75*
G02*
X215770500Y-102289000I100000J0D01*
G01*
X217045500Y-102289000D01*
G75*
G02*
X217145500Y-102389000I0J-100000D01*
G01*
X217145500Y-102589000D01*
G75*
G02*
X217045500Y-102689000I-100000J0D01*
G01*
X215770500Y-102689000D01*
G75*
G02*
X215670500Y-102589000I0J100000D01*
G01*
G37*
G36*
G01*
X215670500Y-103239000D02*
X215670500Y-103039000D01*
G75*
G02*
X215770500Y-102939000I100000J0D01*
G01*
X217045500Y-102939000D01*
G75*
G02*
X217145500Y-103039000I0J-100000D01*
G01*
X217145500Y-103239000D01*
G75*
G02*
X217045500Y-103339000I-100000J0D01*
G01*
X215770500Y-103339000D01*
G75*
G02*
X215670500Y-103239000I0J100000D01*
G01*
G37*
G36*
G01*
X215670500Y-103889000D02*
X215670500Y-103689000D01*
G75*
G02*
X215770500Y-103589000I100000J0D01*
G01*
X217045500Y-103589000D01*
G75*
G02*
X217145500Y-103689000I0J-100000D01*
G01*
X217145500Y-103889000D01*
G75*
G02*
X217045500Y-103989000I-100000J0D01*
G01*
X215770500Y-103989000D01*
G75*
G02*
X215670500Y-103889000I0J100000D01*
G01*
G37*
G36*
G01*
X215670500Y-104539000D02*
X215670500Y-104339000D01*
G75*
G02*
X215770500Y-104239000I100000J0D01*
G01*
X217045500Y-104239000D01*
G75*
G02*
X217145500Y-104339000I0J-100000D01*
G01*
X217145500Y-104539000D01*
G75*
G02*
X217045500Y-104639000I-100000J0D01*
G01*
X215770500Y-104639000D01*
G75*
G02*
X215670500Y-104539000I0J100000D01*
G01*
G37*
G36*
G01*
X209945500Y-104539000D02*
X209945500Y-104339000D01*
G75*
G02*
X210045500Y-104239000I100000J0D01*
G01*
X211320500Y-104239000D01*
G75*
G02*
X211420500Y-104339000I0J-100000D01*
G01*
X211420500Y-104539000D01*
G75*
G02*
X211320500Y-104639000I-100000J0D01*
G01*
X210045500Y-104639000D01*
G75*
G02*
X209945500Y-104539000I0J100000D01*
G01*
G37*
G36*
G01*
X209945500Y-103889000D02*
X209945500Y-103689000D01*
G75*
G02*
X210045500Y-103589000I100000J0D01*
G01*
X211320500Y-103589000D01*
G75*
G02*
X211420500Y-103689000I0J-100000D01*
G01*
X211420500Y-103889000D01*
G75*
G02*
X211320500Y-103989000I-100000J0D01*
G01*
X210045500Y-103989000D01*
G75*
G02*
X209945500Y-103889000I0J100000D01*
G01*
G37*
G36*
G01*
X209945500Y-103239000D02*
X209945500Y-103039000D01*
G75*
G02*
X210045500Y-102939000I100000J0D01*
G01*
X211320500Y-102939000D01*
G75*
G02*
X211420500Y-103039000I0J-100000D01*
G01*
X211420500Y-103239000D01*
G75*
G02*
X211320500Y-103339000I-100000J0D01*
G01*
X210045500Y-103339000D01*
G75*
G02*
X209945500Y-103239000I0J100000D01*
G01*
G37*
G36*
G01*
X209945500Y-102589000D02*
X209945500Y-102389000D01*
G75*
G02*
X210045500Y-102289000I100000J0D01*
G01*
X211320500Y-102289000D01*
G75*
G02*
X211420500Y-102389000I0J-100000D01*
G01*
X211420500Y-102589000D01*
G75*
G02*
X211320500Y-102689000I-100000J0D01*
G01*
X210045500Y-102689000D01*
G75*
G02*
X209945500Y-102589000I0J100000D01*
G01*
G37*
G36*
G01*
X209945500Y-101939000D02*
X209945500Y-101739000D01*
G75*
G02*
X210045500Y-101639000I100000J0D01*
G01*
X211320500Y-101639000D01*
G75*
G02*
X211420500Y-101739000I0J-100000D01*
G01*
X211420500Y-101939000D01*
G75*
G02*
X211320500Y-102039000I-100000J0D01*
G01*
X210045500Y-102039000D01*
G75*
G02*
X209945500Y-101939000I0J100000D01*
G01*
G37*
G36*
G01*
X209945500Y-101289000D02*
X209945500Y-101089000D01*
G75*
G02*
X210045500Y-100989000I100000J0D01*
G01*
X211320500Y-100989000D01*
G75*
G02*
X211420500Y-101089000I0J-100000D01*
G01*
X211420500Y-101289000D01*
G75*
G02*
X211320500Y-101389000I-100000J0D01*
G01*
X210045500Y-101389000D01*
G75*
G02*
X209945500Y-101289000I0J100000D01*
G01*
G37*
G36*
G01*
X209945500Y-100639000D02*
X209945500Y-100439000D01*
G75*
G02*
X210045500Y-100339000I100000J0D01*
G01*
X211320500Y-100339000D01*
G75*
G02*
X211420500Y-100439000I0J-100000D01*
G01*
X211420500Y-100639000D01*
G75*
G02*
X211320500Y-100739000I-100000J0D01*
G01*
X210045500Y-100739000D01*
G75*
G02*
X209945500Y-100639000I0J100000D01*
G01*
G37*
%TD*%
%TO.C,U5*%
G36*
G01*
X209887000Y-93654000D02*
X209887000Y-93454000D01*
G75*
G02*
X209987000Y-93354000I100000J0D01*
G01*
X211262000Y-93354000D01*
G75*
G02*
X211362000Y-93454000I0J-100000D01*
G01*
X211362000Y-93654000D01*
G75*
G02*
X211262000Y-93754000I-100000J0D01*
G01*
X209987000Y-93754000D01*
G75*
G02*
X209887000Y-93654000I0J100000D01*
G01*
G37*
G36*
G01*
X209887000Y-94304000D02*
X209887000Y-94104000D01*
G75*
G02*
X209987000Y-94004000I100000J0D01*
G01*
X211262000Y-94004000D01*
G75*
G02*
X211362000Y-94104000I0J-100000D01*
G01*
X211362000Y-94304000D01*
G75*
G02*
X211262000Y-94404000I-100000J0D01*
G01*
X209987000Y-94404000D01*
G75*
G02*
X209887000Y-94304000I0J100000D01*
G01*
G37*
G36*
G01*
X209887000Y-94954000D02*
X209887000Y-94754000D01*
G75*
G02*
X209987000Y-94654000I100000J0D01*
G01*
X211262000Y-94654000D01*
G75*
G02*
X211362000Y-94754000I0J-100000D01*
G01*
X211362000Y-94954000D01*
G75*
G02*
X211262000Y-95054000I-100000J0D01*
G01*
X209987000Y-95054000D01*
G75*
G02*
X209887000Y-94954000I0J100000D01*
G01*
G37*
G36*
G01*
X209887000Y-95604000D02*
X209887000Y-95404000D01*
G75*
G02*
X209987000Y-95304000I100000J0D01*
G01*
X211262000Y-95304000D01*
G75*
G02*
X211362000Y-95404000I0J-100000D01*
G01*
X211362000Y-95604000D01*
G75*
G02*
X211262000Y-95704000I-100000J0D01*
G01*
X209987000Y-95704000D01*
G75*
G02*
X209887000Y-95604000I0J100000D01*
G01*
G37*
G36*
G01*
X209887000Y-96254000D02*
X209887000Y-96054000D01*
G75*
G02*
X209987000Y-95954000I100000J0D01*
G01*
X211262000Y-95954000D01*
G75*
G02*
X211362000Y-96054000I0J-100000D01*
G01*
X211362000Y-96254000D01*
G75*
G02*
X211262000Y-96354000I-100000J0D01*
G01*
X209987000Y-96354000D01*
G75*
G02*
X209887000Y-96254000I0J100000D01*
G01*
G37*
G36*
G01*
X209887000Y-96904000D02*
X209887000Y-96704000D01*
G75*
G02*
X209987000Y-96604000I100000J0D01*
G01*
X211262000Y-96604000D01*
G75*
G02*
X211362000Y-96704000I0J-100000D01*
G01*
X211362000Y-96904000D01*
G75*
G02*
X211262000Y-97004000I-100000J0D01*
G01*
X209987000Y-97004000D01*
G75*
G02*
X209887000Y-96904000I0J100000D01*
G01*
G37*
G36*
G01*
X209887000Y-97554000D02*
X209887000Y-97354000D01*
G75*
G02*
X209987000Y-97254000I100000J0D01*
G01*
X211262000Y-97254000D01*
G75*
G02*
X211362000Y-97354000I0J-100000D01*
G01*
X211362000Y-97554000D01*
G75*
G02*
X211262000Y-97654000I-100000J0D01*
G01*
X209987000Y-97654000D01*
G75*
G02*
X209887000Y-97554000I0J100000D01*
G01*
G37*
G36*
G01*
X215612000Y-97554000D02*
X215612000Y-97354000D01*
G75*
G02*
X215712000Y-97254000I100000J0D01*
G01*
X216987000Y-97254000D01*
G75*
G02*
X217087000Y-97354000I0J-100000D01*
G01*
X217087000Y-97554000D01*
G75*
G02*
X216987000Y-97654000I-100000J0D01*
G01*
X215712000Y-97654000D01*
G75*
G02*
X215612000Y-97554000I0J100000D01*
G01*
G37*
G36*
G01*
X215612000Y-96904000D02*
X215612000Y-96704000D01*
G75*
G02*
X215712000Y-96604000I100000J0D01*
G01*
X216987000Y-96604000D01*
G75*
G02*
X217087000Y-96704000I0J-100000D01*
G01*
X217087000Y-96904000D01*
G75*
G02*
X216987000Y-97004000I-100000J0D01*
G01*
X215712000Y-97004000D01*
G75*
G02*
X215612000Y-96904000I0J100000D01*
G01*
G37*
G36*
G01*
X215612000Y-96254000D02*
X215612000Y-96054000D01*
G75*
G02*
X215712000Y-95954000I100000J0D01*
G01*
X216987000Y-95954000D01*
G75*
G02*
X217087000Y-96054000I0J-100000D01*
G01*
X217087000Y-96254000D01*
G75*
G02*
X216987000Y-96354000I-100000J0D01*
G01*
X215712000Y-96354000D01*
G75*
G02*
X215612000Y-96254000I0J100000D01*
G01*
G37*
G36*
G01*
X215612000Y-95604000D02*
X215612000Y-95404000D01*
G75*
G02*
X215712000Y-95304000I100000J0D01*
G01*
X216987000Y-95304000D01*
G75*
G02*
X217087000Y-95404000I0J-100000D01*
G01*
X217087000Y-95604000D01*
G75*
G02*
X216987000Y-95704000I-100000J0D01*
G01*
X215712000Y-95704000D01*
G75*
G02*
X215612000Y-95604000I0J100000D01*
G01*
G37*
G36*
G01*
X215612000Y-94954000D02*
X215612000Y-94754000D01*
G75*
G02*
X215712000Y-94654000I100000J0D01*
G01*
X216987000Y-94654000D01*
G75*
G02*
X217087000Y-94754000I0J-100000D01*
G01*
X217087000Y-94954000D01*
G75*
G02*
X216987000Y-95054000I-100000J0D01*
G01*
X215712000Y-95054000D01*
G75*
G02*
X215612000Y-94954000I0J100000D01*
G01*
G37*
G36*
G01*
X215612000Y-94304000D02*
X215612000Y-94104000D01*
G75*
G02*
X215712000Y-94004000I100000J0D01*
G01*
X216987000Y-94004000D01*
G75*
G02*
X217087000Y-94104000I0J-100000D01*
G01*
X217087000Y-94304000D01*
G75*
G02*
X216987000Y-94404000I-100000J0D01*
G01*
X215712000Y-94404000D01*
G75*
G02*
X215612000Y-94304000I0J100000D01*
G01*
G37*
G36*
G01*
X215612000Y-93654000D02*
X215612000Y-93454000D01*
G75*
G02*
X215712000Y-93354000I100000J0D01*
G01*
X216987000Y-93354000D01*
G75*
G02*
X217087000Y-93454000I0J-100000D01*
G01*
X217087000Y-93654000D01*
G75*
G02*
X216987000Y-93754000I-100000J0D01*
G01*
X215712000Y-93754000D01*
G75*
G02*
X215612000Y-93654000I0J100000D01*
G01*
G37*
%TD*%
%TO.C,C14*%
G36*
G01*
X208863250Y-100944500D02*
X207950750Y-100944500D01*
G75*
G02*
X207707000Y-100700750I0J243750D01*
G01*
X207707000Y-100213250D01*
G75*
G02*
X207950750Y-99969500I243750J0D01*
G01*
X208863250Y-99969500D01*
G75*
G02*
X209107000Y-100213250I0J-243750D01*
G01*
X209107000Y-100700750D01*
G75*
G02*
X208863250Y-100944500I-243750J0D01*
G01*
G37*
G36*
G01*
X208863250Y-99069500D02*
X207950750Y-99069500D01*
G75*
G02*
X207707000Y-98825750I0J243750D01*
G01*
X207707000Y-98338250D01*
G75*
G02*
X207950750Y-98094500I243750J0D01*
G01*
X208863250Y-98094500D01*
G75*
G02*
X209107000Y-98338250I0J-243750D01*
G01*
X209107000Y-98825750D01*
G75*
G02*
X208863250Y-99069500I-243750J0D01*
G01*
G37*
%TD*%
%TO.C,C15*%
G36*
G01*
X208863250Y-92211500D02*
X207950750Y-92211500D01*
G75*
G02*
X207707000Y-91967750I0J243750D01*
G01*
X207707000Y-91480250D01*
G75*
G02*
X207950750Y-91236500I243750J0D01*
G01*
X208863250Y-91236500D01*
G75*
G02*
X209107000Y-91480250I0J-243750D01*
G01*
X209107000Y-91967750D01*
G75*
G02*
X208863250Y-92211500I-243750J0D01*
G01*
G37*
G36*
G01*
X208863250Y-94086500D02*
X207950750Y-94086500D01*
G75*
G02*
X207707000Y-93842750I0J243750D01*
G01*
X207707000Y-93355250D01*
G75*
G02*
X207950750Y-93111500I243750J0D01*
G01*
X208863250Y-93111500D01*
G75*
G02*
X209107000Y-93355250I0J-243750D01*
G01*
X209107000Y-93842750D01*
G75*
G02*
X208863250Y-94086500I-243750J0D01*
G01*
G37*
%TD*%
%TO.C,C16*%
G36*
G01*
X218110750Y-101923000D02*
X219023250Y-101923000D01*
G75*
G02*
X219267000Y-102166750I0J-243750D01*
G01*
X219267000Y-102654250D01*
G75*
G02*
X219023250Y-102898000I-243750J0D01*
G01*
X218110750Y-102898000D01*
G75*
G02*
X217867000Y-102654250I0J243750D01*
G01*
X217867000Y-102166750D01*
G75*
G02*
X218110750Y-101923000I243750J0D01*
G01*
G37*
G36*
G01*
X218110750Y-100048000D02*
X219023250Y-100048000D01*
G75*
G02*
X219267000Y-100291750I0J-243750D01*
G01*
X219267000Y-100779250D01*
G75*
G02*
X219023250Y-101023000I-243750J0D01*
G01*
X218110750Y-101023000D01*
G75*
G02*
X217867000Y-100779250I0J243750D01*
G01*
X217867000Y-100291750D01*
G75*
G02*
X218110750Y-100048000I243750J0D01*
G01*
G37*
%TD*%
%TO.C,C17*%
G36*
G01*
X218110750Y-93063000D02*
X219023250Y-93063000D01*
G75*
G02*
X219267000Y-93306750I0J-243750D01*
G01*
X219267000Y-93794250D01*
G75*
G02*
X219023250Y-94038000I-243750J0D01*
G01*
X218110750Y-94038000D01*
G75*
G02*
X217867000Y-93794250I0J243750D01*
G01*
X217867000Y-93306750D01*
G75*
G02*
X218110750Y-93063000I243750J0D01*
G01*
G37*
G36*
G01*
X218110750Y-94938000D02*
X219023250Y-94938000D01*
G75*
G02*
X219267000Y-95181750I0J-243750D01*
G01*
X219267000Y-95669250D01*
G75*
G02*
X219023250Y-95913000I-243750J0D01*
G01*
X218110750Y-95913000D01*
G75*
G02*
X217867000Y-95669250I0J243750D01*
G01*
X217867000Y-95181750D01*
G75*
G02*
X218110750Y-94938000I243750J0D01*
G01*
G37*
%TD*%
M02*
