%TF.GenerationSoftware,KiCad,Pcbnew,(5.1.12)-1*%
%TF.CreationDate,2022-10-15T21:36:51-07:00*%
%TF.ProjectId,DJetECUTester,444a6574-4543-4555-9465-737465722e6b,rev?*%
%TF.SameCoordinates,Original*%
%TF.FileFunction,Soldermask,Bot*%
%TF.FilePolarity,Negative*%
%FSLAX46Y46*%
G04 Gerber Fmt 4.6, Leading zero omitted, Abs format (unit mm)*
G04 Created by KiCad (PCBNEW (5.1.12)-1) date 2022-10-15 21:36:51*
%MOMM*%
%LPD*%
G01*
G04 APERTURE LIST*
%ADD10C,1.900000*%
%ADD11C,1.700000*%
%ADD12O,2.130000X1.830000*%
%ADD13C,1.624000*%
%ADD14O,1.800000X1.800000*%
%ADD15O,4.100000X1.900000*%
%ADD16O,1.900000X4.100000*%
%ADD17C,1.000000*%
G04 APERTURE END LIST*
D10*
%TO.C,J8*%
X178900000Y-117500000D03*
X178900000Y-122500000D03*
X178900000Y-127500000D03*
G36*
G01*
X179800000Y-133450000D02*
X178000000Y-133450000D01*
G75*
G02*
X177950000Y-133400000I0J50000D01*
G01*
X177950000Y-131600000D01*
G75*
G02*
X178000000Y-131550000I50000J0D01*
G01*
X179800000Y-131550000D01*
G75*
G02*
X179850000Y-131600000I0J-50000D01*
G01*
X179850000Y-133400000D01*
G75*
G02*
X179800000Y-133450000I-50000J0D01*
G01*
G37*
%TD*%
D11*
%TO.C,TP9*%
X299676000Y-141500000D03*
%TD*%
%TO.C,TP8*%
X304756000Y-141500000D03*
%TD*%
%TO.C,TP7*%
X309582000Y-141508000D03*
%TD*%
%TO.C,TP6*%
X314535000Y-141508000D03*
%TD*%
%TO.C,TP5*%
X319615000Y-141508000D03*
%TD*%
D10*
%TO.C,J7*%
X306200000Y-71800000D03*
G36*
G01*
X307100000Y-77750000D02*
X305300000Y-77750000D01*
G75*
G02*
X305250000Y-77700000I0J50000D01*
G01*
X305250000Y-75900000D01*
G75*
G02*
X305300000Y-75850000I50000J0D01*
G01*
X307100000Y-75850000D01*
G75*
G02*
X307150000Y-75900000I0J-50000D01*
G01*
X307150000Y-77700000D01*
G75*
G02*
X307100000Y-77750000I-50000J0D01*
G01*
G37*
%TD*%
D12*
%TO.C,M1*%
X263200000Y-72260000D03*
X263200000Y-74800000D03*
G36*
G01*
X264265000Y-76475000D02*
X264265000Y-78205000D01*
G75*
G02*
X264215000Y-78255000I-50000J0D01*
G01*
X262185000Y-78255000D01*
G75*
G02*
X262135000Y-78205000I0J50000D01*
G01*
X262135000Y-76475000D01*
G75*
G02*
X262185000Y-76425000I50000J0D01*
G01*
X264215000Y-76425000D01*
G75*
G02*
X264265000Y-76475000I0J-50000D01*
G01*
G37*
%TD*%
D10*
%TO.C,J10*%
X265533000Y-59690000D03*
X270533000Y-59690000D03*
X275533000Y-59690000D03*
X280533000Y-59690000D03*
X285533000Y-59690000D03*
X290533000Y-59690000D03*
G36*
G01*
X296483000Y-58790000D02*
X296483000Y-60590000D01*
G75*
G02*
X296433000Y-60640000I-50000J0D01*
G01*
X294633000Y-60640000D01*
G75*
G02*
X294583000Y-60590000I0J50000D01*
G01*
X294583000Y-58790000D01*
G75*
G02*
X294633000Y-58740000I50000J0D01*
G01*
X296433000Y-58740000D01*
G75*
G02*
X296483000Y-58790000I0J-50000D01*
G01*
G37*
%TD*%
%TO.C,R51*%
G36*
G01*
X261738000Y-116688000D02*
X263262000Y-116688000D01*
G75*
G02*
X263312000Y-116738000I0J-50000D01*
G01*
X263312000Y-118262000D01*
G75*
G02*
X263262000Y-118312000I-50000J0D01*
G01*
X261738000Y-118312000D01*
G75*
G02*
X261688000Y-118262000I0J50000D01*
G01*
X261688000Y-116738000D01*
G75*
G02*
X261738000Y-116688000I50000J0D01*
G01*
G37*
D13*
X262500000Y-115000000D03*
X262500000Y-112500000D03*
%TD*%
%TO.C,R50*%
G36*
G01*
X261738000Y-130188000D02*
X263262000Y-130188000D01*
G75*
G02*
X263312000Y-130238000I0J-50000D01*
G01*
X263312000Y-131762000D01*
G75*
G02*
X263262000Y-131812000I-50000J0D01*
G01*
X261738000Y-131812000D01*
G75*
G02*
X261688000Y-131762000I0J50000D01*
G01*
X261688000Y-130238000D01*
G75*
G02*
X261738000Y-130188000I50000J0D01*
G01*
G37*
X262500000Y-128500000D03*
X262500000Y-126000000D03*
%TD*%
%TO.C,R47*%
G36*
G01*
X261738000Y-103188000D02*
X263262000Y-103188000D01*
G75*
G02*
X263312000Y-103238000I0J-50000D01*
G01*
X263312000Y-104762000D01*
G75*
G02*
X263262000Y-104812000I-50000J0D01*
G01*
X261738000Y-104812000D01*
G75*
G02*
X261688000Y-104762000I0J50000D01*
G01*
X261688000Y-103238000D01*
G75*
G02*
X261738000Y-103188000I50000J0D01*
G01*
G37*
X262500000Y-101500000D03*
X262500000Y-99000000D03*
%TD*%
%TO.C,R46*%
G36*
G01*
X261738000Y-89688000D02*
X263262000Y-89688000D01*
G75*
G02*
X263312000Y-89738000I0J-50000D01*
G01*
X263312000Y-91262000D01*
G75*
G02*
X263262000Y-91312000I-50000J0D01*
G01*
X261738000Y-91312000D01*
G75*
G02*
X261688000Y-91262000I0J50000D01*
G01*
X261688000Y-89738000D01*
G75*
G02*
X261738000Y-89688000I50000J0D01*
G01*
G37*
X262500000Y-88000000D03*
X262500000Y-85500000D03*
%TD*%
D10*
%TO.C,J9*%
X215354000Y-59690000D03*
X220354000Y-59690000D03*
X225354000Y-59690000D03*
X230354000Y-59690000D03*
X235354000Y-59690000D03*
X240354000Y-59690000D03*
X245354000Y-59690000D03*
X250354000Y-59690000D03*
X255354000Y-59690000D03*
G36*
G01*
X261304000Y-58790000D02*
X261304000Y-60590000D01*
G75*
G02*
X261254000Y-60640000I-50000J0D01*
G01*
X259454000Y-60640000D01*
G75*
G02*
X259404000Y-60590000I0J50000D01*
G01*
X259404000Y-58790000D01*
G75*
G02*
X259454000Y-58740000I50000J0D01*
G01*
X261254000Y-58740000D01*
G75*
G02*
X261304000Y-58790000I0J-50000D01*
G01*
G37*
%TD*%
%TO.C,J6*%
X204200000Y-59800000D03*
X199200000Y-59800000D03*
X194200000Y-59800000D03*
G36*
G01*
X188250000Y-60700000D02*
X188250000Y-58900000D01*
G75*
G02*
X188300000Y-58850000I50000J0D01*
G01*
X190100000Y-58850000D01*
G75*
G02*
X190150000Y-58900000I0J-50000D01*
G01*
X190150000Y-60700000D01*
G75*
G02*
X190100000Y-60750000I-50000J0D01*
G01*
X188300000Y-60750000D01*
G75*
G02*
X188250000Y-60700000I0J50000D01*
G01*
G37*
%TD*%
D14*
%TO.C,JP1*%
X221800000Y-79860000D03*
G36*
G01*
X222650000Y-83300000D02*
X220950000Y-83300000D01*
G75*
G02*
X220900000Y-83250000I0J50000D01*
G01*
X220900000Y-81550000D01*
G75*
G02*
X220950000Y-81500000I50000J0D01*
G01*
X222650000Y-81500000D01*
G75*
G02*
X222700000Y-81550000I0J-50000D01*
G01*
X222700000Y-83250000D01*
G75*
G02*
X222650000Y-83300000I-50000J0D01*
G01*
G37*
%TD*%
%TO.C,J4*%
G36*
G01*
X322250000Y-68100000D02*
X322250000Y-69900000D01*
G75*
G02*
X322200000Y-69950000I-50000J0D01*
G01*
X317800000Y-69950000D01*
G75*
G02*
X317750000Y-69900000I0J50000D01*
G01*
X317750000Y-68100000D01*
G75*
G02*
X317800000Y-68050000I50000J0D01*
G01*
X322200000Y-68050000D01*
G75*
G02*
X322250000Y-68100000I0J-50000D01*
G01*
G37*
D15*
X320000000Y-63200000D03*
D16*
X315200000Y-66000000D03*
%TD*%
D10*
%TO.C,J5*%
X309500000Y-59500000D03*
G36*
G01*
X303550000Y-60400000D02*
X303550000Y-58600000D01*
G75*
G02*
X303600000Y-58550000I50000J0D01*
G01*
X305400000Y-58550000D01*
G75*
G02*
X305450000Y-58600000I0J-50000D01*
G01*
X305450000Y-60400000D01*
G75*
G02*
X305400000Y-60450000I-50000J0D01*
G01*
X303600000Y-60450000D01*
G75*
G02*
X303550000Y-60400000I0J50000D01*
G01*
G37*
%TD*%
%TO.C,J2*%
X330500000Y-120277000D03*
X330500000Y-115277000D03*
X330500000Y-110277000D03*
X330500000Y-105277000D03*
X330500000Y-100277000D03*
X330500000Y-95277000D03*
X330500000Y-90277000D03*
G36*
G01*
X329600000Y-84327000D02*
X331400000Y-84327000D01*
G75*
G02*
X331450000Y-84377000I0J-50000D01*
G01*
X331450000Y-86177000D01*
G75*
G02*
X331400000Y-86227000I-50000J0D01*
G01*
X329600000Y-86227000D01*
G75*
G02*
X329550000Y-86177000I0J50000D01*
G01*
X329550000Y-84377000D01*
G75*
G02*
X329600000Y-84327000I50000J0D01*
G01*
G37*
%TD*%
%TO.C,J1*%
G36*
G01*
X198363000Y-95211000D02*
X198363000Y-93511000D01*
G75*
G02*
X198413000Y-93461000I50000J0D01*
G01*
X200113000Y-93461000D01*
G75*
G02*
X200163000Y-93511000I0J-50000D01*
G01*
X200163000Y-95211000D01*
G75*
G02*
X200113000Y-95261000I-50000J0D01*
G01*
X198413000Y-95261000D01*
G75*
G02*
X198363000Y-95211000I0J50000D01*
G01*
G37*
D14*
X201803000Y-94361000D03*
X199263000Y-96901000D03*
X201803000Y-96901000D03*
X199263000Y-99441000D03*
X201803000Y-99441000D03*
%TD*%
D17*
%TO.C,J3*%
X180200000Y-98200000D03*
X180200000Y-102600000D03*
%TD*%
%TO.C,JP2*%
G36*
G01*
X231002000Y-102704000D02*
X231002000Y-101004000D01*
G75*
G02*
X231052000Y-100954000I50000J0D01*
G01*
X232752000Y-100954000D01*
G75*
G02*
X232802000Y-101004000I0J-50000D01*
G01*
X232802000Y-102704000D01*
G75*
G02*
X232752000Y-102754000I-50000J0D01*
G01*
X231052000Y-102754000D01*
G75*
G02*
X231002000Y-102704000I0J50000D01*
G01*
G37*
D14*
X234442000Y-101854000D03*
%TD*%
%TO.C,JP3*%
X234442000Y-97663000D03*
G36*
G01*
X231002000Y-98513000D02*
X231002000Y-96813000D01*
G75*
G02*
X231052000Y-96763000I50000J0D01*
G01*
X232752000Y-96763000D01*
G75*
G02*
X232802000Y-96813000I0J-50000D01*
G01*
X232802000Y-98513000D01*
G75*
G02*
X232752000Y-98563000I-50000J0D01*
G01*
X231052000Y-98563000D01*
G75*
G02*
X231002000Y-98513000I0J50000D01*
G01*
G37*
%TD*%
M02*
