M48
; DRILL file {KiCad (5.1.12)-1} date 09/27/22 22:57:16
; FORMAT={-:-/ absolute / inch / decimal}
; #@! TF.CreationDate,2022-09-27T22:57:16-07:00
; #@! TF.GenerationSoftware,Kicad,Pcbnew,(5.1.12)-1
; #@! TF.FileFunction,Plated,1,2,PTH
FMAT,2
INCH
T1C0.0118
T2C0.0315
T3C0.0354
T4C0.0394
T5C0.0512
T6C0.0551
%
G90
G05
T1
X6.8898Y-3.7795
X6.8898Y-4.1339
X6.9066Y-2.2163
X6.9066Y-2.5812
X6.9066Y-2.9461
X6.9066Y-3.3111
X6.9066Y-3.676
X6.9066Y-4.0409
X6.9066Y-4.4058
X6.9066Y-4.7707
X6.9066Y-5.1356
X6.9066Y-5.5005
X6.937Y-3.5827
X6.9921Y-3.7008
X6.9921Y-3.8661
X6.9921Y-4.0394
X7.0Y-4.2126
X7.0315Y-3.5197
X7.0315Y-3.6535
X7.063Y-3.1732
X7.0787Y-3.3386
X7.0891Y-2.7637
X7.0891Y-3.4935
X7.0891Y-4.2233
X7.0891Y-4.5883
X7.0891Y-4.9532
X7.0891Y-5.3181
X7.0945Y-3.7795
X7.1024Y-4.1339
X7.1181Y-3.9843
X7.1195Y-2.3684
X7.1195Y-5.6526
X7.1417Y-3.2283
X7.1499Y-3.0678
X7.1499Y-3.8584
X7.2047Y-3.7087
X7.2047Y-4.0551
X7.2126Y-3.1654
X7.2126Y-4.2126
X7.2205Y-3.2283
X7.2205Y-3.3937
X7.2715Y-2.5812
X7.2715Y-4.7707
X7.2715Y-5.1356
X7.275Y-3.35
X7.2992Y-4.0
X7.2992Y-4.1339
X7.3019Y-3.2806
X7.3019Y-4.0713
X7.3019Y-4.4362
X7.3019Y-5.4701
X7.3112Y-3.9356
X7.3324Y-2.2163
X7.3622Y-3.9291
X7.3628Y-3.7064
X7.405Y-3.995
X7.415Y-3.335
X7.4409Y-3.4016
X7.4488Y-3.937
X7.454Y-4.9532
X7.4844Y-2.4292
X7.4844Y-3.4631
X7.4844Y-4.6187
X7.4844Y-5.2877
X7.4844Y-5.6526
X7.4961Y-4.2677
X7.51Y-3.925
X7.515Y-3.585
X7.5452Y-3.159
X7.5452Y-4.1929
X7.5591Y-3.5118
X7.56Y-3.56
X7.565Y-3.66
X7.5756Y-3.8584
X7.6457Y-3.937
X7.6669Y-2.6116
X7.6669Y-4.4362
X7.6669Y-4.8011
X7.6669Y-5.4701
X7.6973Y-2.2163
X7.6973Y-5.1356
X7.7008Y-2.7638
X7.7008Y-2.8976
X7.7008Y-3.5039
X7.7087Y-3.8819
X7.7277Y-3.3415
X7.735Y-4.865
X7.76Y-4.925
X7.785Y-3.555
X7.7885Y-4.0105
X7.8189Y-3.6456
X7.8493Y-2.4292
X7.8493Y-4.6187
X7.8493Y-5.6526
X7.8583Y-4.4882
X7.8797Y-3.1286
X7.8797Y-4.2842
X7.8797Y-4.9532
X7.8797Y-5.3181
X7.9101Y-2.7333
X7.9528Y-2.811
X7.96Y-3.1417
X7.96Y-2.955
X7.98Y-4.6
X7.9843Y-3.4409
X8.0157Y-3.9134
X8.0394Y-3.6929
X8.05Y-3.76
X8.0622Y-2.2163
X8.0622Y-4.7707
X8.0622Y-5.1356
X8.0622Y-5.5005
X8.063Y-2.7638
X8.065Y-4.43
X8.07Y-4.4838
X8.0709Y-2.9528
X8.0709Y-3.3307
X8.0709Y-3.5591
X8.0926Y-2.5508
X8.0926Y-4.0713
X8.11Y-3.755
X8.11Y-3.81
X8.123Y-2.9461
X8.1339Y-4.6693
X8.1417Y-3.7323
X8.145Y-4.04
X8.1654Y-4.9606
X8.1838Y-3.2502
X8.1969Y-2.8583
X8.1969Y-4.4173
X8.2047Y-4.7638
X8.2047Y-4.9921
X8.2142Y-4.497
X8.22Y-4.0
X8.22Y-4.635
X8.2205Y-3.8189
X8.2283Y-4.4252
X8.2283Y-4.8504
X8.23Y-4.595
X8.2362Y-4.1811
X8.2446Y-5.3181
X8.2472Y-4.7453
X8.255Y-3.915
X8.265Y-3.87
X8.275Y-2.3684
X8.275Y-2.7333
X8.275Y-5.6526
X8.2835Y-3.5827
X8.2835Y-4.9055
X8.2913Y-3.6535
X8.3055Y-5.014
X8.325Y-4.745
X8.3388Y-3.985
X8.345Y-3.785
X8.346Y-3.7546
X8.3488Y-3.715
X8.36Y-4.0612
X8.3622Y-4.9055
X8.3663Y-3.0678
X8.3812Y-4.03
X8.385Y-4.63
X8.3858Y-3.752
X8.3967Y-3.6152
X8.405Y-4.42
X8.4055Y-3.5157
X8.4252Y-5.3465
X8.4271Y-3.9497
X8.435Y-4.115
X8.445Y-4.26
X8.4464Y-4.7579
X8.4528Y-3.7598
X8.4543Y-3.5201
X8.4575Y-2.5508
X8.4575Y-5.4701
X8.46Y-4.375
X8.4646Y-3.7165
X8.4844Y-3.5157
X8.485Y-4.345
X8.4879Y-2.2163
X8.4879Y-4.2538
X8.4882Y-2.685
X8.5183Y-3.2806
X8.5183Y-5.166
X8.5354Y-4.5433
X8.5487Y-2.8245
X8.5573Y-3.5881
X8.5669Y-3.4646
X8.5791Y-4.8619
X8.58Y-3.8095
X8.6063Y-3.6378
X8.618Y-2.86
X8.6181Y-3.8307
X8.64Y-5.6526
X8.6535Y-3.5669
X8.6704Y-3.4935
X8.6704Y-4.4666
X8.6929Y-4.874
X8.6969Y-3.8307
X8.7008Y-4.0409
X8.7008Y-5.3485
X8.7165Y-4.5748
X8.7312Y-2.3988
X8.74Y-4.505
X8.748Y-4.8189
X8.7559Y-4.7717
X8.7616Y-5.0444
X8.7726Y-4.5755
X8.7772Y-3.3778
X8.7795Y-3.0709
X8.7819Y-3.333
X8.792Y-2.9461
X8.792Y-3.7368
X8.792Y-4.7099
X8.8031Y-3.0945
X8.8031Y-3.4094
X8.811Y-3.0
X8.815Y-4.58
X8.8462Y-3.435
X8.8528Y-3.3111
X8.8583Y-3.1732
X8.874Y-2.7165
X8.8832Y-4.2233
X8.8832Y-5.5309
X8.8873Y-3.1349
X8.8898Y-4.748
X8.9055Y-3.1102
X8.9136Y-2.2163
X8.9136Y-2.5812
X8.9158Y-4.0945
X8.9158Y-4.1654
X8.9213Y-4.5118
X8.9291Y-4.315
X8.93Y-4.61
X8.937Y-3.7638
X8.9441Y-5.2269
X8.9606Y-3.0
X8.9606Y-4.7087
X8.9685Y-4.6457
X8.9745Y-4.8924
X8.9782Y-3.1918
X8.9788Y-3.725
X9.0049Y-3.5847
X9.0315Y-3.937
X9.0353Y-2.8245
X9.0657Y-3.8888
X9.0709Y-2.5433
X9.1024Y-2.4961
X9.1063Y-3.2992
X9.1265Y-2.3988
X9.1265Y-4.497
X9.1265Y-5.4093
X9.1314Y-2.6063
X9.1339Y-2.685
X9.1339Y-2.7165
X9.1376Y-4.3974
X9.1417Y-4.7008
X9.1426Y-4.5474
X9.1476Y-4.2474
X9.1496Y-3.4567
X9.1569Y-3.159
X9.1569Y-5.0748
X9.2441Y-3.7165
X9.2481Y-2.6421
X9.2481Y-4.1625
X9.2481Y-4.8011
X9.2481Y-5.6526
X9.252Y-4.7008
X9.2795Y-3.6181
X9.2835Y-3.4134
X9.2835Y-4.3189
X9.2874Y-4.4685
X9.2874Y-4.6142
X9.3031Y-2.9173
X9.309Y-2.2163
X9.309Y-3.7064
X9.3394Y-5.2573
X9.3858Y-3.5315
X9.4002Y-4.4058
X9.4567Y-2.4724
X9.461Y-2.4292
X9.461Y-5.014
X9.461Y-5.5005
X9.4724Y-4.7402
X9.4749Y-4.0079
X9.4803Y-3.126
X9.4843Y-3.795
X9.4882Y-3.7323
X9.4961Y-2.4724
X9.5043Y-3.8384
X9.5118Y-4.9606
X9.5157Y-2.5827
X9.5173Y-4.189
X9.5173Y-4.3386
X9.5258Y-3.811
X9.5276Y-3.0551
X9.5379Y-3.6299
X9.5433Y-2.5433
X9.5433Y-2.9173
X9.5433Y-4.1102
X9.5512Y-3.0945
X9.5522Y-2.9766
X9.5522Y-4.6187
X9.5591Y-3.9055
X9.5591Y-4.0315
X9.5826Y-4.1929
X9.5827Y-2.5173
X9.6131Y-2.6421
X9.6131Y-3.828
X9.6159Y-2.86
X9.6435Y-3.4023
X9.6535Y-3.2913
X9.6739Y-2.2163
X9.6739Y-5.166
X9.6739Y-5.6526
X9.685Y-5.2835
X9.6929Y-3.9291
X9.6929Y-4.1811
X9.6929Y-4.315
X9.6929Y-4.5591
X9.6929Y-4.685
X9.6929Y-4.937
X9.6929Y-5.0709
X9.6929Y-5.4094
X9.7008Y-2.622
X9.7008Y-3.0394
X9.7165Y-3.6929
X9.7323Y-4.4803
X9.7323Y-4.8425
X9.7323Y-5.2047
X9.7323Y-5.5669
X9.748Y-3.7323
X9.748Y-3.9921
X9.7542Y-3.928
X9.7638Y-3.685
X9.7638Y-4.252
X9.7638Y-4.622
X9.7638Y-4.9921
X9.7638Y-5.3465
X9.7651Y-3.1286
X9.7651Y-4.4362
X9.7651Y-4.8924
X9.7795Y-2.6614
X9.7795Y-3.0394
X9.7955Y-4.0105
X9.811Y-3.5591
X9.811Y-3.7402
X9.8189Y-3.9291
X9.8259Y-2.4292
X9.8259Y-2.7941
X9.8346Y-3.2992
X9.8346Y-3.6772
X9.8425Y-4.5591
X9.8425Y-4.937
X9.8425Y-5.2913
X9.8583Y-3.5591
X9.8898Y-3.7323
X9.9055Y-3.2283
X9.9055Y-3.5669
X9.9134Y-4.9921
X9.9134Y-5.3465
X9.9172Y-5.2877
X9.9213Y-4.2677
X9.9213Y-4.622
X9.9291Y-3.7323
X9.9476Y-4.2233
X9.9528Y-3.5591
X9.9528Y-3.6535
X9.9528Y-3.7795
X9.978Y-3.3719
X9.978Y-3.7368
X9.978Y-4.5883
X9.978Y-5.5918
X9.9921Y-3.2992
X10.0079Y-3.6063
X10.0084Y-2.2467
X10.0084Y-2.9766
X10.0157Y-4.0236
X10.0472Y-2.4512
X10.0551Y-3.7717
X10.0551Y-3.9449
X10.0692Y-5.0444
X10.0996Y-2.7029
X10.1102Y-3.8661
X10.13Y-3.9497
X10.1908Y-2.4292
X10.1969Y-3.189
X10.1969Y-3.2677
X10.1969Y-3.3465
X10.1969Y-3.4252
X10.1969Y-3.5039
X10.1969Y-3.5827
X10.1969Y-3.6614
X10.1969Y-3.7795
X10.1969Y-3.8583
X10.1969Y-3.937
X10.1969Y-4.0157
X10.1969Y-4.0945
X10.1969Y-4.1732
X10.1969Y-4.3307
X10.1969Y-4.4094
X10.1969Y-4.4882
X10.1969Y-4.5669
X10.1969Y-4.6457
X10.1969Y-4.7244
X10.1969Y-4.8031
X10.1969Y-4.9213
X10.1969Y-5.0
X10.1969Y-5.0787
X10.1969Y-5.1575
X10.1969Y-5.315
X10.1969Y-5.3937
X10.1969Y-5.4724
X10.1969Y-5.5512
X10.1969Y-5.6299
X10.2212Y-3.1286
X10.2441Y-2.4724
X10.2517Y-3.4631
X10.2517Y-4.2842
X10.2517Y-4.6795
X10.2517Y-5.2269
X10.2756Y-3.189
X10.2821Y-5.6526
X10.3429Y-2.2163
X10.3429Y-2.8245
X10.3429Y-3.7976
X10.3543Y-3.189
X10.4037Y-4.8924
X10.4331Y-3.189
X10.4341Y-3.2806
X10.4341Y-4.0713
X10.4341Y-4.4666
X10.4341Y-5.4093
X10.5118Y-3.189
X10.5253Y-2.3988
X10.5253Y-3.007
X10.5558Y-3.6456
X10.5862Y-2.7029
X10.5862Y-4.7099
X10.5906Y-3.189
X10.6166Y-4.2538
X10.6166Y-5.2269
X10.6166Y-5.5918
X10.6457Y-2.5669
X10.6693Y-3.189
X10.6693Y-3.3465
X10.6693Y-3.4252
X10.6693Y-3.5039
X10.6693Y-3.5827
X10.6693Y-3.6614
X10.6693Y-3.8583
X10.6693Y-3.937
X10.6693Y-4.0157
X10.6693Y-4.0945
X10.6693Y-4.1732
X10.6693Y-4.4094
X10.6693Y-4.4882
X10.6693Y-4.5669
X10.6693Y-4.6457
X10.6693Y-4.7244
X10.6693Y-4.8819
X10.6693Y-4.9606
X10.6693Y-5.0394
X10.6693Y-5.1181
X10.6693Y-5.1969
X10.6693Y-5.2756
X10.7078Y-2.2163
X10.7382Y-3.3415
X10.7382Y-3.828
X10.7382Y-4.9228
X10.748Y-3.189
X10.7686Y-4.497
X10.799Y-2.9157
X10.799Y-5.4093
X10.8268Y-3.189
X10.8294Y-2.5812
X10.8294Y-4.1017
X10.8425Y-2.4961
X10.9055Y-3.189
X10.9207Y-3.6456
X10.9207Y-4.7403
X10.9207Y-5.6526
X10.9511Y-2.338
X10.9511Y-3.1286
X10.9815Y-4.345
X10.9815Y-5.2269
X10.9843Y-3.189
X11.0119Y-2.7637
X11.0119Y-3.9192
X11.0394Y-2.5433
X11.063Y-3.189
X11.0727Y-3.3719
X11.0727Y-4.9532
X11.1031Y-5.4701
X11.1417Y-3.189
X11.1639Y-2.49
X11.1639Y-2.9766
X11.1639Y-4.1625
X11.1944Y-3.7368
X11.1944Y-4.497
X11.2205Y-3.189
X11.2362Y-2.5118
X11.2552Y-2.2163
X11.2552Y-5.1356
X11.2598Y-3.3858
X11.2598Y-3.622
X11.2598Y-3.937
X11.2598Y-4.1339
X11.2598Y-4.4488
X11.2598Y-4.685
X11.2598Y-5.0
X11.2598Y-5.1969
X11.2856Y-4.7707
X11.2856Y-5.6526
X11.2992Y-3.189
X11.316Y-2.7029
X11.316Y-3.2502
X11.3386Y-3.3858
X11.3386Y-3.622
X11.3386Y-3.937
X11.3386Y-4.1339
X11.3386Y-4.4488
X11.3386Y-4.685
X11.3386Y-5.0
X11.3386Y-5.1969
X11.3464Y-3.9801
X11.3768Y-3.5543
X11.378Y-3.189
X11.4072Y-4.345
X11.4072Y-5.4093
X11.4252Y-2.6063
X11.4567Y-3.189
X11.468Y-2.4292
X11.468Y-2.9157
X11.468Y-4.9532
X11.5354Y-3.189
X11.5593Y-3.3719
X11.5593Y-3.7368
X11.5593Y-4.1321
X11.5593Y-4.6187
X11.5897Y-5.1964
X11.5897Y-5.5918
X11.6142Y-3.189
X11.6201Y-2.2163
X11.6299Y-2.6378
X11.6505Y-2.7333
X11.6505Y-3.0982
X11.685Y-5.5669
X11.6929Y-3.189
X11.7113Y-4.4058
X11.7417Y-4.8011
X11.7717Y-3.189
X11.7721Y-2.49
X11.7721Y-3.5239
X11.7721Y-3.8888
X11.7721Y-5.4093
X11.7953Y-5.4961
X11.7953Y-5.6378
X11.811Y-3.3858
X11.811Y-3.622
X11.811Y-3.937
X11.811Y-4.1339
X11.811Y-4.4488
X11.811Y-4.685
X11.811Y-5.0
X11.811Y-5.1969
X11.8329Y-2.9157
X11.8329Y-5.0748
X11.8504Y-3.189
X11.8634Y-3.2502
X11.8634Y-4.1929
X11.8898Y-2.3386
X11.8898Y-3.3858
X11.8898Y-3.622
X11.8898Y-3.937
X11.8898Y-4.1339
X11.8898Y-4.4488
X11.8898Y-4.685
X11.8898Y-5.0
X11.8898Y-5.1969
X11.8898Y-5.5748
X11.8938Y-4.5883
X11.8938Y-5.6526
X11.9242Y-2.2771
X11.9291Y-3.189
X11.9546Y-2.6725
X11.9546Y-3.7064
X11.9843Y-2.2598
X11.9843Y-2.4252
X12.0079Y-3.189
X12.0154Y-4.8924
X12.0154Y-5.2573
X12.0458Y-3.0678
X12.0458Y-4.3754
X12.0866Y-2.3386
X12.0866Y-3.189
X12.1066Y-2.4596
X12.1066Y-3.3719
X12.137Y-3.8888
X12.137Y-5.5005
X12.1654Y-3.189
X12.1675Y-2.8245
X12.1979Y-4.7099
X12.2283Y-2.2163
X12.2283Y-4.1625
X12.2441Y-3.189
X12.2587Y-3.6456
X12.3195Y-4.4666
X12.3195Y-4.9532
X12.3195Y-5.3181
X12.3228Y-2.6063
X12.3228Y-3.189
X12.3499Y-3.007
X12.3499Y-5.6526
X12.3543Y-5.4331
X12.3622Y-3.3858
X12.3622Y-3.622
X12.3622Y-3.937
X12.3622Y-4.1339
X12.3622Y-4.4488
X12.3622Y-4.685
X12.3622Y-5.0
X12.3622Y-5.1969
X12.4016Y-3.189
X12.4094Y-2.4646
X12.4094Y-2.7244
X12.4107Y-2.3988
X12.4107Y-3.3111
X12.4107Y-3.9801
X12.4409Y-3.3858
X12.4409Y-3.622
X12.4409Y-3.937
X12.4409Y-4.1339
X12.4409Y-4.4488
X12.4409Y-4.6457
X12.4409Y-5.0
X12.4409Y-5.1969
X12.4567Y-2.4803
X12.4715Y-2.7029
X12.4803Y-3.189
X12.4882Y-2.5984
X12.502Y-4.7707
X12.502Y-5.1356
X12.5039Y-5.4882
X12.5591Y-3.189
X12.5628Y-4.3146
X12.5932Y-2.2163
X12.5932Y-3.1286
X12.5932Y-3.7672
X12.5984Y-2.5748
X12.6063Y-2.4094
X12.6378Y-3.189
X12.6844Y-2.5508
X12.6844Y-3.4023
X12.6844Y-4.0713
X12.6844Y-4.5578
X12.6844Y-4.9532
X12.6844Y-5.6222
X12.7165Y-3.189
X12.7165Y-5.5709
X12.7397Y-4.4169
X12.7607Y-3.9479
X12.7756Y-2.8245
X12.7756Y-5.2269
X12.8365Y-2.338
X12.8365Y-3.6152
X12.8456Y-3.7511
X12.8973Y-3.0678
X12.8973Y-5.4701
X12.9449Y-4.5906
X12.9449Y-4.685
X12.9449Y-4.7953
X12.9528Y-3.189
X12.9581Y-2.6421
X12.9581Y-3.8584
X12.9581Y-4.2842
X12.9581Y-4.8619
X12.9606Y-4.4882
X13.0315Y-3.189
X13.0493Y-3.2806
X13.0493Y-5.1356
X13.063Y-2.9921
X13.0787Y-4.4803
X13.0787Y-4.5827
X13.0787Y-4.685
X13.0787Y-4.7953
X13.0797Y-4.5274
X13.1101Y-2.2163
X13.1101Y-2.8549
X13.1101Y-4.0713
X13.1102Y-3.189
X13.1339Y-2.937
X13.1406Y-3.5543
X13.1406Y-5.6526
X13.189Y-3.189
T3
X10.3346Y-3.3661
X10.3346Y-3.4646
X10.3346Y-3.563
X10.3346Y-3.8976
X10.3346Y-3.9961
X10.3346Y-4.0945
X10.3346Y-4.4291
X10.3346Y-4.5276
X10.3346Y-4.626
X10.3346Y-4.9606
X10.3346Y-5.0591
X10.3346Y-5.1575
T4
X7.845Y-3.715
X7.845Y-3.815
X7.845Y-3.915
X7.945Y-3.715
X7.945Y-3.815
X7.945Y-3.915
X8.7323Y-3.1441
X8.7323Y-3.2441
X9.13Y-3.845
X9.13Y-4.01
X9.23Y-3.845
X9.23Y-4.01
T5
X7.4488Y-2.3543
X7.6457Y-2.3543
X7.8425Y-2.3543
X8.0394Y-2.3543
X8.4785Y-2.35
X8.6754Y-2.35
X8.8722Y-2.35
X9.0691Y-2.35
X9.2659Y-2.35
X9.4628Y-2.35
X9.6596Y-2.35
X9.8565Y-2.35
X10.0533Y-2.35
X10.2502Y-2.35
X10.4541Y-2.35
X10.6509Y-2.35
X10.8478Y-2.35
X11.0446Y-2.35
X11.2415Y-2.35
X11.4383Y-2.35
X11.6352Y-2.35
X11.9882Y-2.3425
X12.185Y-2.3425
X13.0118Y-3.3574
X13.0118Y-3.5542
X13.0118Y-3.7511
X13.0118Y-3.9479
X13.0118Y-4.1448
X13.0118Y-4.3416
X13.0118Y-4.5385
X13.0118Y-4.7353
T6
X12.5Y-2.8906
X12.5Y-3.0906
X12.6969Y-2.8906
X12.6969Y-3.0906
T2
G00X12.4094Y-2.5551
M15
G01X12.4094Y-2.6417
M16
G05
G00X12.6417Y-2.4882
M15
G01X12.5551Y-2.4882
M16
G05
G00X12.6496Y-2.7165
M15
G01X12.5472Y-2.7165
M16
G05
T0
M30
